<svg width="72" height="34" fill="none" xmlns="http://www.w3.org/2000/svg"><g clip-path="url(#clip0)"><path d="M34.926 33.952c-1.844-.251-3.73-1.279-4.845-2.64l-.425-.52-.203.253c-.158.199-.304.267-.674.317-.26.035-.762.177-1.118.316-.355.14-.817.253-1.027.253-.328 0-.427-.049-.705-.343-.178-.189-.422-.357-.543-.374-.146-.02-.302-.163-.465-.427-.454-.73-.298-1.003.586-1.026.845-.022 1.244-.162.956-.336-.13-.078-2.98-.1-3.254-.024-.153.042-.293.182-.394.396-.218.459-.463.7-.988.97-.405.21-.538.232-1.296.217-.793-.016-.862-.002-1.125.214-.386.318-.806.476-1.109.417-.215-.042-.306.007-.595.32l-.34.372-.603-.054c-.332-.03-.662-.018-.733.025-.143.088-.527-.07-.716-.293-.091-.107-.076-.23.081-.651.155-.415.303-.614.738-.988.594-.51.92-.592 1.239-.31.216.192.401.085.496-.286.103-.408.393-.634.81-.634.205 0 .448-.054.54-.12.148-.106.156-.163.067-.506a9.69 9.69 0 01-.156-.725l-.056-.339-.401.059c-.897.131-1.767-.366-2.06-1.177-.248-.688.001-1.37.754-2.058.252-.23.459-.432.459-.448 0-.016-.142-.052-.316-.079-.397-.063-.817-.35-.99-.68-.17-.32-.173-.88-.006-1.101.125-.167.141-.165.71.109.319.154.737.308.929.341.762.135 1.115.469 1.11 1.048-.005.477-.16.723-.73 1.148-.844.63-1.103 1.238-.696 1.636.164.16.265.18.704.142.547-.049 1.168-.308 1.535-.64.401-.365 1.248-.744 1.66-.744a1.89 1.89 0 001.328-.494c.445-.388.988-.65 1.35-.651.325-.002.485-.078 1.055-.5.208-.154.752-.402 1.208-.55.456-.149.978-.37 1.16-.49.474-.315 1.147-.452 1.575-.32l.339.103.473-.52c.991-1.088 2.386-1.924 3.846-2.305.867-.226 2.663-.271 3.51-.089.852.183 1.871.6 2.584 1.055.631.403 1.653 1.321 1.93 1.732.121.183.15.189.374.075.43-.22 1.144-.104 1.72.279.174.115.69.331 1.146.48.456.148 1 .396 1.208.55.57.422.73.498 1.054.5.363.001.906.263 1.35.65a1.89 1.89 0 001.329.495c.412 0 1.258.379 1.66.744.367.332.987.591 1.535.64.44.039.54.019.704-.142.407-.398.148-1.006-.695-1.636-.57-.425-.726-.671-.73-1.148-.006-.58.347-.913 1.11-1.048.19-.034.61-.187.929-.341.568-.274.584-.276.71-.11.166.223.163.783-.006 1.103-.174.328-.594.616-.99.679-.175.027-.317.064-.317.08 0 .018.185.198.412.402.772.696 1.048 1.419.8 2.103-.292.811-1.162 1.308-2.059 1.177l-.401-.059-.056.34c-.03.186-.1.512-.156.724-.089.343-.081.4.067.506.092.066.335.12.54.12.417 0 .707.226.81.634.094.37.28.478.496.287.32-.283.645-.202 1.24.31.434.373.582.572.737.986.157.422.172.545.081.652-.19.224-.573.38-.716.293-.072-.043-.401-.055-.733-.025l-.602.054-.341-.371c-.289-.314-.38-.363-.595-.321-.303.059-.724-.099-1.109-.416-.263-.217-.332-.23-1.125-.215-.758.015-.89-.007-1.296-.216-.525-.271-.77-.512-.988-.971-.102-.214-.241-.354-.394-.396-.274-.076-3.125-.054-3.255.024-.287.174.112.314.957.336.569.015.848.147.844.4 0 .078-.112.34-.247.582-.177.318-.308.449-.47.47-.124.018-.371.186-.55.375-.277.294-.377.343-.701.343-.209 0-.69-.117-1.072-.259-.38-.142-.884-.283-1.118-.313-.328-.042-.473-.114-.635-.317l-.21-.263-.4.495c-.887 1.1-2.55 2.141-3.995 2.503-.808.202-2.214.283-3.014.175z" fill="#DAA44B"/><path d="M16.484 32.028c-.219-.135-.035-.619.31-.818.17-.097.307-.21.307-.252 0-.04.183-.197.406-.348.258-.173.486-.428.627-.699.21-.406.242-.429.68-.488.275-.037.553-.141.697-.262.218-.183.228-.222.125-.444-.063-.133-.149-.517-.192-.853-.043-.336-.093-.624-.11-.642-.019-.017-.255-.003-.526.032-.972.127-1.508-.097-1.865-.779-.384-.735-.197-1.255.752-2.092.693-.61.707-.762.078-.83-.514-.058-.842-.278-1.066-.718-.133-.262-.148-.375-.071-.54l.097-.208.423.231c.233.127.629.263.88.302 1.071.165 1.38.967.616 1.603-.946.789-1.198 1.069-1.25 1.395-.12.736.361 1.18 1.19 1.097.545-.055.893-.212 1.544-.697.544-.406 1.385-.768 1.79-.77.446-.004 1.042-.248 1.385-.568.422-.393.64-.492 1.275-.58.447-.062.602-.133.927-.426.283-.255.566-.402 1.035-.539a8.983 8.983 0 001.319-.534c.747-.385 1.273-.448 1.78-.213.466.217 2.162 1.578 2.537 2.037.19.234.477.571.638.75.43.483.666.994.757 1.645.114.813.512 2.003.758 2.262.114.12.274.356.356.526.082.168.314.423.515.566.288.203.334.27.219.313-.234.088-.602-.042-.81-.286-.554-.65-.806-.91-.847-.87-.025.024.005.104.066.176.062.072.162.3.223.508.087.297.199.432.526.64.488.31.523.396.16.396-.343 0-.695-.152-1.065-.458-.35-.291-.402-.297-.72-.078-.166.113-.462.182-.92.213-.37.025-.825.108-1.009.184-.423.176-.65.176-.829 0-.182-.177-.18-.513.004-.788.138-.206.136-.217-.042-.217-.226 0-.18-.195.124-.527a2.81 2.81 0 00.35-.506l.147-.286h-.36c-.2 0-.543.047-.765.105-.222.058-.43.08-.463.048-.033-.032.01-.204.097-.382.198-.408.299-1.057.15-.967-.057.035-.103.154-.103.264 0 .111-.122.366-.271.567-.214.29-.327.365-.543.365-.302 0-.44.2-.296.43.515.828.604 1.076.51 1.422-.106.385-.024.45.19.152.207-.29.171-.601-.13-1.154-.149-.272-.27-.518-.27-.546 0-.029.11-.04.244-.024.367.042.79.697.79 1.222 0 .543-.357 1.016-.834 1.103-.184.033-.677.173-1.095.311-1.014.335-1.18.326-1.541-.08-.162-.18-.373-.35-.47-.374-.185-.048-.76-.757-.677-.837.026-.026.251-.07.5-.1.488-.056.441-.084 1.023.608.194.23.35.33.517.33.272 0 .804-.291.878-.48.082-.207-.216-.597-.741-.968-.271-.191-.582-.488-.691-.66l-.198-.311-.045.308-.045.308-.45-.024a94.038 94.038 0 00-1.53-.055 59.878 59.878 0 01-1.197-.043c-.206-.018-.4-.62-.336-1.037.035-.225.023-.38-.028-.38-.048 0-.115.236-.15.526-.142 1.206-.693 1.688-2.114 1.853-.47.055-1.021.158-1.224.23-.373.132-.846.495-.846.649 0 .122.1.103.215-.042.055-.07.298-.228.54-.352.367-.188.563-.226 1.16-.226 1.012 0 1.372-.126 1.924-.674.342-.34.488-.433.553-.355.111.134-.31.928-.567 1.065a7.838 7.838 0 00-.45.272c-.232.151-.396.173-1.152.153l-.881-.023-.414.309c-.348.26-.487.309-.872.309-.419 0-.485.03-.786.352-.26.278-.393.351-.632.35-.167 0-.358-.035-.425-.077zm15.787-2.07c.136-.099.15-.15.067-.234-.085-.084-.158-.075-.34.042-.229.146-.236.317-.014.317.061 0 .19-.056.287-.126zm.85-1.926c0-.312-.483-1.027-.693-1.027-.063 0-.196.158-.297.352-.194.37-.162.442.094.216.139-.123.178-.115.434.096.172.14.282.314.282.443 0 .117.04.212.09.212.049 0 .09-.131.09-.292zm-3.514-3.154c-.092-.327-.315-.582-.42-.479-.033.032.039.253.16.49.244.484.398.477.26-.01zm24.853 6.877c-.3-.322-.367-.352-.786-.352-.385 0-.524-.05-.872-.31l-.414-.308-.881.023c-.756.02-.92-.002-1.152-.153a7.838 7.838 0 00-.45-.272c-.256-.137-.678-.93-.567-1.066.065-.078.21.017.553.356.55.546.913.674 1.909.674.739 0 1.236.16 1.64.528.213.194.29.219.29.092 0-.154-.473-.517-.846-.649-.203-.072-.748-.175-1.212-.23-1.498-.177-1.965-.588-2.128-1.874-.036-.278-.103-.506-.15-.506-.049 0-.06.16-.026.38.064.419-.13 1.02-.336 1.038-.064.006-.603.025-1.197.043-.594.017-1.282.042-1.53.055l-.45.024-.045-.308-.045-.308-.198.311c-.109.172-.42.469-.69.66-.526.371-.824.76-.742.968.074.189.606.48.879.48.166 0 .322-.1.515-.33.583-.692.536-.664 1.025-.607.248.028.473.073.5.1.081.08-.493.788-.679.836-.096.025-.307.193-.469.375-.362.405-.527.414-1.541.08-.418-.139-.91-.279-1.095-.312-.477-.087-.835-.56-.835-1.103 0-.525.424-1.18.79-1.222.135-.015.245-.005.245.024 0 .028-.121.274-.27.546-.302.553-.337.864-.13 1.154.216.3.296.233.188-.16-.067-.247-.068-.401-.003-.506.361-.58.59-1.085.545-1.201-.032-.082-.163-.137-.326-.137-.216 0-.329-.076-.543-.365-.149-.2-.27-.456-.27-.567 0-.11-.047-.23-.104-.264-.149-.09-.048.559.15.967.086.178.13.35.097.382-.032.032-.24.01-.463-.047a3.663 3.663 0 00-.764-.106h-.361l.147.286c.082.157.239.385.35.506.304.332.35.527.124.527-.178 0-.18.01-.042.217.184.275.186.61.004.789-.179.175-.406.175-.829 0-.184-.077-.638-.16-1.01-.185-.457-.031-.753-.1-.918-.213-.319-.219-.37-.213-.72.078-.37.306-.723.458-1.066.458-.363 0-.328-.086.16-.396.328-.208.439-.343.526-.64.061-.207.161-.436.223-.508.061-.073.09-.152.066-.176-.04-.04-.293.22-.847.87-.208.244-.575.374-.81.286-.115-.043-.069-.11.22-.313.2-.143.432-.398.514-.566.082-.17.242-.406.356-.526.246-.26.644-1.449.758-2.262a2.95 2.95 0 01.757-1.645c.16-.179.447-.516.638-.75.375-.459 2.07-1.82 2.538-2.037.506-.235 1.032-.172 1.78.213.37.19.962.43 1.318.534.47.137.752.284 1.035.54.325.291.48.363.924.424.627.087.956.239 1.315.608.271.279.794.482 1.49.579.535.074 1.11.331 1.664.743.634.473.986.631 1.528.686.829.083 1.31-.36 1.19-1.097-.052-.326-.304-.606-1.25-1.395-.764-.636-.455-1.438.616-1.603.251-.039.647-.175.88-.302l.423-.231.097.208c.077.165.062.278-.071.54-.224.44-.551.66-1.066.717-.629.07-.615.22.078.831.949.837 1.136 1.358.752 2.092-.357.682-.893.906-1.865.78-.271-.036-.507-.05-.525-.033-.018.018-.068.306-.111.642-.043.335-.13.72-.192.853-.103.222-.093.261.125.444.144.12.422.225.697.262.438.06.47.082.68.488.14.27.37.526.627.7.224.15.406.306.406.348 0 .04.138.154.306.251.208.12.327.267.37.46.075.334-.035.433-.484.435-.24.001-.371-.072-.632-.35zm-14.277-1.756c.03-.046-.051-.15-.18-.233-.182-.116-.255-.125-.34-.042-.084.084-.069.135.067.233.202.146.377.162.453.042zm-1.123-1.887c0-.13.11-.302.282-.443.255-.21.295-.22.434-.096.256.226.288.154.094-.216-.1-.194-.234-.352-.297-.352-.21 0-.693.715-.693 1.027 0 .16.041.292.09.292.05 0 .09-.095.09-.212zm3.756-3.712c-.106-.103-.329.148-.42.473-.141.498-.006.515.248.031.128-.244.205-.47.172-.504zm-27.132 7.546c-.09-.055-.088-.149.004-.46.096-.326.152-.391.337-.391.182 0 .217.039.198.22-.035.326-.21.704-.326.702a.503.503 0 01-.213-.07zm40.218-.17a2.03 2.03 0 01-.123-.461c-.02-.181.015-.22.197-.22.184 0 .24.065.337.391.092.311.093.405.004.46-.2.124-.313.077-.415-.17zm-.771-1.084c-.323-.277-.348-.435-.068-.43.204.004.557.3.557.468 0 .25-.168.238-.49-.038zm-38.734 0c.037-.23.449-.48.662-.4.144.054.135.087-.096.322-.304.31-.61.353-.566.079zm10.272-.235c-.085-.181-.17-.362-.19-.4-.02-.04.157-.06.394-.045.391.025.437.051.5.286.085.31-.038.49-.337.49-.159 0-.252-.085-.367-.33zm17.986.215c-.06-.07-.071-.215-.028-.374.064-.235.11-.261.501-.286.237-.015.414.005.394.044l-.19.401c-.115.246-.208.33-.367.33-.117 0-.257-.052-.31-.115zm11.19-14.129c-1.758-.28-3.07-1.094-3.665-2.276l-.295-.585-.025-3.366-.026-3.367H54.9v2.838c0 2.818.002 2.841.214 3.233.568 1.048 1.988 1.29 2.913.496.631-.542.649-.644.651-3.774l.002-2.793h3.066l-.025 3.365-.026 3.364-.248.495c-.74 1.473-2.286 2.35-4.252 2.413-.495.016-1.102-.004-1.35-.043zm-40.23-.325c-1.95-.297-3.607-1.84-4.232-3.944-.178-.599-.14-1.673.09-2.506.482-1.756 1.84-3.022 3.738-3.489.812-.2 2.427-.131 3.24.138 1.216.402 2.133 1.198 2.65 2.299.313.67.513 1.694.481 2.466l-.026.649-3.488.023-3.487.023.002.24c.008 1.014 1.387 1.938 2.533 1.698.653-.137 1.014-.324 1.376-.716l.316-.342 1.257.542 1.258.54-.154.265c-.488.839-1.633 1.643-2.769 1.945-.532.142-2.27.247-2.784.169zm2.836-6.414c0-.588-.689-1.342-1.405-1.538-1.082-.296-2.263.403-2.436 1.442l-.053.32h3.894v-.224zm8.37 6.309c-.888-.291-1.473-.645-2.123-1.282-.746-.731-1.131-1.436-1.338-2.447-.389-1.894.02-3.392 1.254-4.604 1.115-1.095 2.103-1.492 3.546-1.427 1.013.046 1.655.245 2.438.756.293.192.555.326.583.3.027-.027.05-1.438.05-3.135 0-1.698.027-3.354.058-3.68L31.347 0h2.943v16.009h-3.149v-.484c0-.525-.061-.582-.324-.298-.729.787-2.858 1.26-3.996.886zm3.04-2.705c1.772-.864 1.79-3.467.03-4.366-1.799-.919-3.807.866-3.215 2.857.425 1.43 1.906 2.131 3.185 1.509zm33.701-5.205L63.585.22l1.508-.024L66.6.172v16.013h-3.06l.022-7.982zm5.378-.022V.176H72v16.009h-3.06V8.181zm-26.752 7.851l-3.308-.025V.865l3.488.036c3.04.03 3.55.055 3.982.193 1.546.49 2.296 1.217 2.76 2.67.19.595.226.847.191 1.373a3.526 3.526 0 01-.958 2.161c-.205.211-.372.407-.37.435 0 .028.21.17.466.316.753.427 1.559 1.255 1.893 1.946.266.547.293.68.288 1.396-.007.981-.15 1.587-.557 2.354-.565 1.063-1.648 1.848-2.935 2.127-.796.173-1.262.188-4.94.16zm3.918-2.78c.39-.161.846-.633.981-1.018.155-.438.134-1.315-.038-1.634-.176-.327-.561-.683-.941-.87-.339-.167-1.958-.356-2.518-.295l-.39.043V6.887l.653-.054c.872-.073 1.416-.267 1.783-.637.273-.276.307-.366.338-.906.043-.737-.169-1.211-.678-1.52-.314-.191-.454-.21-1.803-.239l-1.463-.03v9.869h1.893c1.388 0 1.97-.031 2.183-.119zm-38.767 2.34c-.147-.23-.906-1.403-1.687-2.606L4.23 10.798V7.314l.517-.053c.66-.067 1.426-.282 1.801-.505.953-.566 1.001-2.16.09-2.943-.514-.44-1.118-.593-2.363-.598l-1.08-.004-.023 6.311-.023 6.311H0l.023-7.542L.046.748 3.241.72c2.176-.019 3.353.005 3.69.074 1.333.275 2.48 1.172 3.137 2.456 1.095 2.138.54 4.168-1.5 5.489a8.513 8.513 0 01-1.139.61c-.295.12-.548.253-.56.295-.014.041.987 1.46 2.224 3.154 1.236 1.693 2.248 3.108 2.248 3.144 0 .037-.84.066-1.868.066H7.606l-.267-.418z" fill="#BA2132"/></g><defs><clipPath id="clip0"><path fill="#fff" d="M0 0h72v34H0z"/></clipPath></defs></svg>