<svg width="93" height="33" fill="none" xmlns="http://www.w3.org/2000/svg"><path fill-rule="evenodd" clip-rule="evenodd" d="M51.073 7.928c-.127-.182-.256-.363-.384-.544l-.339-.404-.389-.572-.462-.562-.338-.494-.462-.537a85.048 85.048 0 00-.202-.32c-.073-.104-.202-.252-.196-.39l.003-.025c.058-.2.248-.358.367-.526.417-.594.851-1.173 1.29-1.755.086-.13.17-.262.256-.393.212-.255.396-.51.594-.773l.3-.409a.306.306 0 00.023-.193c-.139 0-.304-.061-.438 0-.164 0-.489-.059-.62 0-.191 0-.54-.07-.695 0l-.594-.02-.283.03c-.116-.008-.275-.06-.387-.01-.176 0-.6-.055-.722 0-.234 0-.557-.08-.748.025-.162 0-.368-.091-.515-.025l-.233.013c-.182.002-.371-.08-.541.012-.226 0-.49-.112-.696 0l-.44-.046-.334.032c-.165-.013-.364-.062-.516.014-.213 0-.478-.105-.67 0-.213 0-.45-.107-.645 0-.22 0-.447-.09-.645 0l-.464-.05c-.017.025-.035.05-.051.077-.042 0-.024.014-.014.047.04.132.142.214.236.321.154.175.3.365.423.558.168.265.397.497.58.759l.283.444.437.536c.084.13.139.265.234.392l.337.381.25.373c.053.078.128.157.125.262-.007.209-.504.763-.65.952l-.241.354c-.44.584-.88 1.147-1.316 1.728l-.645.872c-.01.043-.005.085.034.106.094.05.438.012.573.012h7.272c.641 0 1.29.02 1.934-.013l.282.019c.049-.005.103-.021.118-.069.019-.073-.033-.139-.076-.19zm-2.956-6.325c0 .124-.247.39-.324.499l-.846 1.273c-.143.191-.495.552-.507.782-.01.186.226.388.324.524l.31.497.264.297.261.462c.189.273.439.455.493.798h-.026c0 .039-.443.022-.516.052-.19 0-.444-.07-.619 0-.146 0-.33-.077-.464-.026-.06.01-.12.017-.18.026-.201 0-.463-.073-.645 0-.217 0-.495-.081-.696 0-.188 0-.443-.08-.619 0a.754.754 0 01-.31-.052c0-.174.21-.363.302-.495l.177-.321c.285-.472.615-.928.905-1.392.076-.123.213-.218.223-.372.014-.207-.2-.347-.3-.5-.057-.108-.116-.215-.173-.324l-.268-.37-.157-.292c-.067-.111-.154-.197-.23-.303a68.325 68.325 0 00-.19-.327c-.06-.092-.244-.296-.255-.389-.011-.09.063-.111.121-.15 1.057.066 2.162.025 3.224.025.17 0 .617-.04.722.053.025 0 .017.007 0 .025zm-28.83 9.774c.185.011.39.026.593.026.118-.048.259-.004.387-.002l.98.002c1.719 0 3.438-.002 5.156-.003l1.239.003c.133 0 .312-.024.42.031a.164.164 0 01.068.081c.033.1.002.239.004.352l.026.28c-.006.088-.038.19-.12.235-.158.083-.372.038-.554.03-.341-.016-.675.005-1.03-.006-.377-.012-.805.006-1.187.018l-1.084-.03c-.275-.019-.586.007-.851.025l-.309-.033-.567.022h-.902c-.158 0-.348-.021-.483.023l-.054.033c-.036.035-.04.074-.045.126-.022.264.003.545.02.8l-.03.334c-.001.135.032.264.037.387.002.082-.023.182.028.245.065.08.474.09.604.09.186-.075.445 0 .645 0 .103-.042.264-.026.386-.026.343 0 .684.026 1.006.026.163-.066.39 0 .567 0 .204-.082.48 0 .696 0 .15-.06.402-.026.568-.012l.334-.012.465.024c.08-.036.215-.026.309-.023.093.002.248.009.31.073.077.08.07.7.026.816-.021.055-.076.087-.132.095l-4.639-.007c-.24 0-.944-.048-1.1.042-.058.034-.089.101-.1.166-.025.155.007.309.01.462.003.24.007.473 0 .721-.006.174-.071.466.043.608.064.08.452.09.58.09.168-.085.528 0 .721 0 .118-.06.33-.02.465-.016l.437-.01c.129.01.259.017.387.026.193-.077.462 0 .67 0 .182-.1.416 0 .62 0 .193-.078.46 0 .67 0 .195-.078.463 0 .671 0 .189-.086.43 0 .645 0 .153-.077.51 0 .696 0 .06-.028.154-.024.231-.023.105.002.198.01.262.09.094.12.102.835-.045.907-.168.08-.637.027-.835.02l-.36.019-1.573-.016-6.395.008-.645-.002-.207-.024c-.046-.14-.03-.28-.026-.438v-.928L18 13.13c-.008-.255-.05-1.542.042-1.66.112-.148 1.013-.028 1.246-.093zm42.059 0c.218.006.436.026.67.026l1.054.005 1.06-.005c.15 0 .323-.018.456.022.169.05.29.192.43.299.178.132.356.265.533.399l.486.442c.187.16.395.273.574.431.117.103.691.616.798.623.157.009.775-.582.936-.706.405-.328.811-.654 1.217-.981.18-.153.36-.305.538-.458.198-.125.554-.07.814-.07h1.573c.156-.064.369 0 .541 0 .103-.048.464-.06.464.103-.468.327-.901.691-1.346 1.048-.637.508-1.3.982-1.937 1.492l-.956.75a.178.178 0 00-.06.137.796.796 0 01.021.064c.043.075.133.124.196.18.235.207.47.367.72.547.173.124.31.286.475.421l.352.218c.548.44 1.086.871 1.648 1.293.076.068.152.137.229.204.151.114.666.372.666.582 0 .035.008.052-.032.052-.095.02-.196-.01-.285-.018l-.515-.008c-.782 0-1.563-.003-2.346-.005a.389.389 0 01-.222-.084l-.43-.39c-.276-.235-.584-.427-.861-.664-.291-.25-1.108-1.198-1.427-1.181-.18.008-.337.246-.475.35-.597.448-1.113 1.012-1.707 1.47l-.46.384c-.242.163-.56.126-.865.12-.31-.005-.598-.001-.903-.001-.37 0-.757-.019-1.11-.019-.155 0-.365.107-.51.037-.037-.018-.081-.05-.081-.094.807-.607 1.592-1.254 2.412-1.846.304-.22.564-.492.87-.697.159-.108 1.102-.79 1.102-.939-.146-.109-.257-.266-.397-.375l-.418-.258c-.193-.144-.344-.32-.536-.464l-.857-.62-.328-.31c-.207-.171-.442-.264-.64-.444l-.548-.482c-.173-.126-.546-.279-.642-.461l-.018-.041h.025l.052-.078zm-18.064 2.249c-.062-.128-.159-.233-.227-.353-.284-.502-.582-.755-1.047-1.077l-.392-.274c-.468-.235-.98-.38-1.518-.477-.156-.028-.606-.114-.748-.042-.2 0-.456-.077-.645 0-.137 0-.313-.057-.439 0-.234 0-.623-.081-.825 0-.177 0-.407-.065-.567 0-.17 0-.516-.058-.645 0-.18 0-.498-.059-.644 0-.408 0-.827-.002-1.212-.026-.193.051-.456.026-.67.026h-1.29c-.17 0-.484-.039-.6.07-.136.126-.049 1.193-.06 1.45-.033.634.021 1.325 0 1.986-.011.297-.035.62-.03.928l.03.31-.024.336c0 .19.032.362.003.546.008.187.014.376.02.563-.007.086-.016.17-.025.257.01.094.018.188.026.282-.004.069-.01.137-.015.205.005.042.02.079.053.109.13.113.565.018.751.026.466.023.982.023 1.47.023.474 0 .948-.015 1.42-.023.417-.008.813.028 1.237.022l.36-.021c.205 0 .398.041.593.035.121-.012.241-.023.361-.036l.464.019c.25-.012.5-.027.749-.039.389 0 .763.008 1.13-.076 1.569-.362 3.016-1.427 3.208-3.156a3.043 3.043 0 00-.252-1.593zm-3.658 3.102c-.333.239-.702.471-1.103.569l-.307.078c-.139.02-.3.015-.411.087-.135 0-.33-.03-.439.026-.159 0-.343-.06-.49 0-.183 0-.34-.025-.516-.02l-.283.034c-.155-.003-.373-.078-.516-.013-.134 0-.84-.01-.882-.07l-.01-.014c-.005-.01-.01-.019-.013-.028-.064-.185-.03-.417-.026-.611l-.017-.335.018-.335c0-.732.01-1.418 0-2.14-.004-.23.005-.455.001-.697-.003-.228-.024-.47.014-.694l.023-.074.01-.016c.086-.117 1.185-.022 1.424-.093.16.06.405.022.593.026.502.007 1.1-.03 1.567.094.174.046.338.113.5.177l.268.084.304.198c.162.093.33.171.474.305.24.225.33.386.475.66l.179.311c.356.907-.128 1.979-.837 2.491zm19.308-3.073c-.486-.802-1.325-1.433-2.158-1.775-.14-.057-.28-.086-.426-.134a7.798 7.798 0 00-2.172-.424c-.122-.007-.3-.053-.412.003-.193 0-.598-.076-.748 0-.18 0-.426-.075-.593 0-.217 0-.5-.078-.697 0l-.36-.025c-.068.025-.138.05-.207.077-.098 0-.23-.014-.309.026l-.155.025a.915.915 0 00-.387.078c-.417 0-.912.23-1.269.375-1.417.582-2.932 1.85-2.559 3.65.035.165.104.461.184.606l.256.353c.11.145.185.317.32.455.243.25.514.421.788.61l.227.177c.114.053.228.106.34.16.337.2.702.336 1.076.454l.401.084c.063.026.125.05.188.074.101.01.204.016.304.026.466.07 1.078.175 1.574.16l.361-.03c1.205.037 2.444-.009 3.502-.314l.648-.245c1.06-.404 2.24-1.32 2.545-2.472.054-.212.06-.426.063-.668.008-.469-.1-.933-.325-1.306zm-2.837 2.38c-.38.655-.858 1.028-1.533 1.322-.174.075-.406.084-.566.182-.154 0-.318.008-.438.078-.132 0-.302-.02-.413.026-.878 0-1.742-.069-2.442-.428l-.276-.204c-.185-.134-.391-.28-.547-.46-.46-.536-.774-1.368-.532-2.134.139-.437.414-.827.75-1.162.433-.434 1.171-.731 1.785-.811.205-.027.433.006.618-.061l.618.004.31.043.335.014a3.8 3.8 0 011.1.345c.093.066.185.13.277.197.212.137.445.255.623.463.088.103.138.227.206.344.16.276.284.516.328.858.06.477.023.993-.203 1.384zm-17.958 4.986c.334.01.728.13.84.467.015.05.025.13-.017.171-.05.045-.12.008-.154-.037-.082-.109-.132-.236-.265-.298-.296-.14-.919-.062-.82.388.093.43 1.169.193 1.341.78a.635.635 0 01-.029.407c-.261.579-1.39.487-1.58-.103-.054-.171.04-.18.04-.28h.077c.055.095.09.208.148.296.164.254.476.246.78.246.084-.057.168-.07.246-.142a.362.362 0 00.121-.27c-.019-.356-.672-.394-.933-.469a.766.766 0 01-.224-.113c-.297-.206-.29-.66.003-.872.13-.095.277-.114.426-.17zm7.143 0c.355.023.77.13.88.497.01.033.046.173-.003.173v.027l-.121-.037c-.13-.09-.154-.252-.3-.338-.274-.162-.961-.096-.846.366.099.398 1.022.226 1.297.7.06.105.086.252.054.383-.186.762-1.708.566-1.632-.12.008-.074.076-.142.144-.09.09.069.105.2.172.289.161.217.628.247.868.13a.425.425 0 00.22-.232c.161-.516-.908-.514-1.184-.733a.52.52 0 01-.042-.734c.125-.143.296-.255.494-.255v-.026zm-1.985.026c.4 0 .721.034.929.36.041.064.077.162.038.238-.026.048-.099.041-.136.012-.141-.11-.178-.28-.352-.357-.298-.134-.858.004-.768.412.09.42 1.138.186 1.35.803a.507.507 0 01-.046.404c-.294.505-1.243.49-1.53-.017-.04-.068-.081-.182-.046-.27.02-.052.084-.065.128-.035.073.047.087.15.135.22.14.209.397.267.66.267.09-.031.183-.063.273-.096.205-.102.305-.395.097-.556-.317-.245-.801-.15-1.107-.419-.336-.296-.056-.94.375-.94v-.026zm-2.76.026c.077.037.134.08.175.156.17.328.277.862.372 1.235l.099.337h.052v-.026c.082-.125.097-.318.134-.463.076-.284.153-.567.228-.852.03-.104.035-.237.12-.313.028-.025.136-.074.136-.023h.026c-.023.338-.13.617-.217.925-.098.344-.178.7-.313 1.029-.022.051-.06.098-.119.106-.075.01-.123-.026-.154-.086-.164-.32-.212-.695-.322-1.04a65.199 65.199 0 00-.165-.572h-.077c-.106.38-.196.768-.32 1.14-.054.162-.08.38-.194.514-.037.041-.089.052-.144.036-.14-.039-.561-1.631-.607-1.87-.01-.045-.008-.11.02-.141l.06-.029c.068-.003.105.063.13.116.126.466.25.93.374 1.396.01.038.01.126.062.126.02.02.02.026.052.026.088-.329.164-.658.266-.977.066-.21.099-.45.21-.64.028-.051.07-.075.117-.11zm13.487 0l.207.025c.128-.051.858-.047 1-.006.057.015.134.067.134.135-.25.12-.615.046-.928.052-.103.01-.206.018-.31.026-.032.115-.027.255-.025.386.001.1-.011.22.047.291.063.079.473.045.598.045.12.003.24.008.36.01l.156.042c-.015.061-.026.112-.082.144-.153.083-.554.01-.744.01-.102.01-.206.018-.309.026-.033.119-.061.64.016.733.05.059.139.066.216.066.091-.04.596 0 .748 0 .093-.035.306.061.19.163-.108.094-1.178.052-1.313-.008a.18.18 0 01-.094-.11c-.05-.163-.021-.404-.021-.587v-.825c0-.151-.019-.324.02-.458.019-.076.075-.116.134-.16zm-11.81.025c.063.02.111.041.132.11.048.157.019.359.022.535v.877c0 .156.02.345-.023.482-.014.042-.047.088-.1.088-.034 0-.058-.034-.074-.06-.07-.118-.034-.358-.034-.51l.01-1.366a.314.314 0 01.067-.156zm5.286 0c.086.009.165.018.227.082l.12.22c.242.437.355.938.566 1.394.01.021.004.033.04.033v.025h.027v-.025c.096-.104.128-.238.18-.361.13-.326.263-.65.394-.976.043-.1.072-.21.142-.297a.192.192 0 01.203-.063c.047.013.076.057.088.103l.009.2c.043.375.016.795.016 1.188 0 .16.036.394-.027.528a.08.08 0 01-.075.047c-.064-.002-.091-.07-.102-.119 0-.135-.002-.27-.003-.404 0-.358-.006-.672 0-1.032 0-.036.007-.026-.026-.026v-.025h-.052v.025c-.152.213-.532 1.599-.747 1.599l-.088-.043c-.077-.067-.106-.179-.146-.264-.165-.352-.28-.705-.429-1.063a29.76 29.76 0 00-.11-.254h-.052v.026h-.026l.023.335-.014.386c.007.217.058.587-.01.79-.019.052-.063.114-.128.114a.511.511 0 01-.069-.183l-.009-.772c0-.361-.064-.905.078-1.188zm5.635.144c-.322-.21-.77-.17-1.2-.17-.058.054-.101.104-.116.183-.039.208-.043 1.784.033 1.892.142.206 1.028.073 1.211-.025.622-.335.672-1.491.072-1.88zm.072 1.471c-.089.151-.24.193-.37.294a.66.66 0 00-.283.051c-.15 0-.334 0-.464-.05-.04 0-.034-.022-.04-.055-.059-.32-.1-1.427.04-1.674.295 0 .607-.024.843.092.432.21.507.939.274 1.342zm-1.69.219c-.196-.412-.346-.865-.507-1.294-.056-.149-.113-.358-.227-.472-.052-.051-.117-.061-.189-.068-.28.409-.4.889-.586 1.345-.07.167-.28.498-.24.687.004.022.018.056.044.063.068.019.121-.034.15-.09.071-.145.091-.333.2-.452.083-.094.718-.096.868-.067.3.057.18.664.544.629v-.052c.047 0-.037-.188-.057-.229zm-.562-.57h-.644v-.026c-.043 0-.022-.04-.014-.075l.324-.827c.034.008.068.016.103.026l.089.263c.077.197.173.39.194.613h-.026c0 .034.01.026-.026.026zm-4.357 7.685c.418.012.85.204.85.67a1.64 1.64 0 01-.028.003 1.417 1.417 0 00-.07-.005c-.114-.025-.157-.188-.229-.267-.17-.187-.587-.235-.8-.08-.098.07-.174.186-.16.318.042.456 1.086.264 1.34.801.043.09.055.225.028.33-.179.657-1.312.646-1.588.077-.037-.076-.071-.173-.035-.263.02-.052.084-.065.128-.034.073.049.091.175.133.249.119.21.422.263.662.263l.252-.088c.204-.091.328-.367.147-.543-.285-.275-.79-.159-1.096-.402-.32-.254-.202-.7.101-.904.112-.074.237-.084.365-.125zm-6.859.026l.258.025c.13-.066.363 0 .515 0 .097-.04.525-.024.499.12a.08.08 0 01-.048.057c-.228.096-1.003-.07-1.133.091-.05.061-.04.161-.04.248l.02.329c.07.252 1.137-.038 1.094.225-.024.136-.864.09-1.037.09-.036 0-.051-.013-.051.026h-.026c0 .176-.04.588.047.707.142.193 1.216-.098 1.216.222-.182.074-1.344.106-1.44-.045-.13-.204-.032-.71-.032-.96 0-.315-.071-.675.014-.977.022-.08.078-.118.144-.158zm5.028.025c.064.03.112.065.132.135.03.105 0 .217 0 .33 0 .456.091 1.058-.15 1.43-.154.239-.486.342-.78.314a.807.807 0 01-.737-.69l-.017-.642c-.013-.217-.074-.532.007-.736.017-.045.179-.165.179-.09.054.111.026.277.026.413 0 .657-.154 1.64.745 1.531.666-.08.518-.941.518-1.504 0-.182-.013-.356.077-.49zm.618.026c.078.021.124.048.145.131l.01.54v.876c0 .148.017.326-.022.458-.012.037-.04.068-.082.07-.066.002-.1-.065-.112-.12-.046-.198-.016-.451-.016-.666 0-.344-.064-1.041.078-1.289zm4.023.051c.053.021.094.05.11.108l.02.432c.021.442.025.901.012 1.342l-.038.181c-.064-.014-.114-.024-.147-.082-.052-.089-.034-.244-.034-.356l-.007-.902c-.007-.091-.096-.168-.096-.207-.051.008-.36.057-.36 0h-.026v-.102a.556.556 0 01.231-.053c.055-.032.11-.062.164-.095.08-.073.11-.18.171-.266zm-10.631.038c-.308-.17-.758-.115-1.153-.115a.315.315 0 00-.09.157c-.043.23-.05 1.782.036 1.917.136.213 1.06.054 1.23-.053.605-.375.622-1.549-.023-1.906zm.07 1.6c-.106.127-.244.143-.372.22-.077.008-.154.015-.232.025-.127 0-.353.03-.439-.051-.062-.06-.076-1.395-.057-1.572.006-.055.03-.09.058-.131.316 0 .626-.02.874.106.44.226.459 1.05.167 1.403zm4.055-1.326c-.212-.52-.907-.389-1.436-.389a.267.267 0 00-.087.132c-.066.286-.013.759-.018 1.08-.003.19-.006.379-.003.568 0 .075.002.15.003.224a.26.26 0 00.13.162c0-.063.086-.155.086-.256 0-.17-.045-.406.022-.555.093-.213 1.031.095 1.274-.431a.69.69 0 00.03-.535zm-.456.643l-.155.025c-.147 0-.336-.051-.465 0-.072 0-.154-.008-.202-.056-.114-.115-.062-.678.022-.795.387 0 1.016-.1 1.07.363.027.241-.113.338-.27.462zm12.322.449c-.052-.02-.102-.03-.137-.074-.049-.063-.037-.188-.038-.273-.006-.276.056-.935-.13-1.083-.232.183-.405.477-.57.722-.132.197-.35.427-.42.65a.307.307 0 00.01.2c.07.01.138.016.207.024.179.005.48-.047.624.037.142.083-.001.384.175.427.126.03.108-.363.128-.435.09 0 .183-.046.259-.078 0-.059-.06-.101-.108-.117zm-.447-.052c-.074.057-.245.04-.349.039-.118-.002-.222-.006-.283-.1.04 0 .551-.799.645-.904.03.04.053.078.06.131.02.124.003.774-.073.834zm-2.868-.179c-.045-.07-.153-.131-.158-.22-.007-.125.119-.242.153-.358.132-.443-.377-.646-.725-.646-.095.036-.193.058-.28.11-.332.193-.312.601-.055.844 0 .108-.109.165-.164.244a.596.596 0 00-.11.425c.057.59.844.701 1.241.373.215-.178.25-.541.098-.772zm-1.007-.834c.054-.082.15-.128.226-.184.147 0 .288.004.404.068.226.124.217.45-.005.58-.312.18-.87-.099-.625-.464zm.553 1.573c-.515.153-.943-.42-.496-.763.064-.051.146-.06.22-.091.157.005.293 0 .41.08.32.216.218.67-.134.774zm2.166-.671c-.042-.094-.205-.189-.213-.29-.008-.09.136-.232.165-.334.132-.448-.347-.668-.717-.668-.328.113-.667.302-.498.74.032.085.145.183.128.285-.017.097-.193.218-.23.373-.125.512.358.844.83.783.417-.056.723-.485.535-.889zm-1.006-.963c.067-.063.136-.084.214-.123l.275.024c.245.082.346.372.167.577-.062.07-.14.07-.21.122-.262 0-.535-.091-.53-.387a.288.288 0 01.084-.213zm.788 1.437c-.074.113-.19.148-.29.22-.135 0-.27.002-.38-.043a.426.426 0 01-.071-.762l.193-.072c.122.003.26.005.36.053.215.1.322.395.188.604zM39.602 8.35H0v-.29h39.602v.29zm52.53 0H52.53v-.29h39.602v.29z" fill="#000"/></svg>