<svg width="94" height="31" fill="none" xmlns="http://www.w3.org/2000/svg"><path d="M40.75 29.987h-7.67L37.874.527h7.67l-4.794 29.46zM26.627.527L19.315 20.79l-.866-4.364.001.002-2.58-13.249S15.556.526 12.23.526H.143l-.142.5s3.697.768 8.023 3.367l6.664 25.595h7.992L34.882.526h-8.255zm60.33 29.46H94L87.86.526h-6.166c-2.848 0-3.541 2.195-3.541 2.195l-11.44 27.266h7.996l1.599-4.376h9.75l.9 4.376zm-8.44-10.421l4.03-11.025 2.267 11.025h-6.297zM67.313 7.611l1.095-6.326S65.03 0 61.509 0c-3.806 0-12.845 1.664-12.845 9.753 0 7.611 10.608 7.706 10.608 11.704 0 3.997-9.515 3.281-12.656.76l-1.14 6.615s3.425 1.664 8.657 1.664c5.235 0 13.131-2.71 13.131-10.087 0-7.66-10.704-8.373-10.704-11.703 0-3.331 7.47-2.903 10.753-1.095z" fill="#2566AF"/><path d="M18.45 16.427L15.87 3.178S15.556.526 12.23.526H.143L0 1.024S5.81 2.23 11.384 6.74c5.328 4.313 7.066 9.687 7.066 9.687z" fill="#E6A540"/></svg>