<svg width="90" height="25" fill="none" xmlns="http://www.w3.org/2000/svg"><path fill-rule="evenodd" clip-rule="evenodd" d="M1.664 1.667h86.672v21.666H1.664V1.667zM90 0H0v25h90V0zM61.607 16.915h-.067c-.697 0-1.264.584-1.264 1.305 0 .722.567 1.306 1.264 1.306h.067c.697 0 1.264-.584 1.264-1.306 0-.721-.567-1.305-1.264-1.305zm1.894-9.426v7.136c0 1.348.483 2.496 1.448 3.431.963.935 2.144 1.403 3.532 1.403 1.38 0 2.54-.463 3.508-1.403.977-.947 1.472-2.1 1.472-3.431V7.489h-2.128v7.136c0 .757-.284 1.425-.83 1.956a2.827 2.827 0 01-2.022.807 2.827 2.827 0 01-2.022-.807 2.652 2.652 0 01-.83-1.956V7.489H63.5zm-48.333 9.88H7.643v-.656l7.809-5.43V7.459l-9.917-.005-.001 2.064 7.878.004.013.682-7.892 5.434.03 3.795h9.605v-2.064zm43.927.017H51.57v-.655l7.809-5.43V7.477l-9.918-.005v2.064l7.878.004.013.682-7.892 5.434.03 3.795h9.605v-2.064zm-39.143 2.037a3.2 3.2 0 001.586-.413l2.844-1.599v2.034h2.054V7.453h-9.114v2.071h7.002v.76h-.001l-5.982 3.338a3.078 3.078 0 00-1.613 2.694c0 .886.324 1.627.971 2.231.67.581 1.43.876 2.253.876zm.522-2.112c-.187.103-.37.15-.596.15-.617 0-1.168-.518-1.168-1.132 0-.422.204-.754.596-.982l5.063-2.823v2.594l-.05.028-3.845 2.165zm21.222 2.112a3.2 3.2 0 001.586-.413l2.844-1.599v2.034h2.054V7.453h-9.114v2.071h7v.76l-5.982 3.338a3.078 3.078 0 00-1.612 2.694c0 .886.323 1.627.97 2.231.671.581 1.43.876 2.254.876zm.521-2.112c-.186.103-.37.15-.595.15-.617 0-1.169-.518-1.169-1.132 0-.422.205-.754.596-.982l5.064-2.823v2.594l-.05.028-3.846 2.165zm35.745 2.112c.564 0 1.085-.136 1.586-.413l2.844-1.599v2.034h2.054V7.453H75.33v2.071h7.002v.76h-.001l-5.982 3.338a3.079 3.079 0 00-1.612 2.694c0 .886.323 1.627.97 2.231.671.581 1.43.876 2.254.876zm.522-2.112c-.187.103-.371.15-.597.15-.617 0-1.167-.518-1.167-1.132 0-.422.203-.754.595-.982l5.064-2.823v2.594l-.05.028-3.845 2.165zm-44.69-5.305l4.01-4.534h-2.579L30.2 13.184V3.532h-2.066v15.897H30.2v-3.422l2.105-2.408 3.217 5.83h2.283l-4.01-7.423z" fill="#1EB763"/></svg>