<svg width="60" height="54" fill="none" xmlns="http://www.w3.org/2000/svg"><g clip-path="url(#clip0)"><path d="M44.077 14.665c.028-.35.043-.7.043-1.053C44.118 6.106 37.774 0 29.977 0c-7.803 0-14.151 6.106-14.151 13.611 0 .43.021.857.063 1.28-4.918 2.135-8.35 6.897-8.35 12.415 0 7.505 6.349 13.61 14.152 13.61 3.216 0 6.185-1.04 8.564-2.787a14.523 14.523 0 008.576 2.787c7.797 0 14.141-6.105 14.141-13.61 0-5.722-3.688-10.632-8.896-12.64l.001-.001z" fill="#fff"/><path d="M60 46.731C60 50.745 56.793 54 52.836 54H7.165C3.208 54 .001 50.746.001 46.732v-5.45c0-4.015 3.207-7.269 7.164-7.269h45.67c3.958 0 7.165 3.254 7.165 7.268v5.452z" fill="#fff"/><path d="M55.53 41.434c-.71 0-1.286-.585-1.286-1.305 0-.718.576-1.303 1.286-1.303.71 0 1.285.585 1.285 1.303 0 .722-.576 1.306-1.285 1.306zm0-2.294a.984.984 0 00-.977.99c0 .545.438.991.977.991.54 0 .978-.446.978-.991a.985.985 0 00-.979-.99z" fill="#E1261C"/><path d="M56.049 40.717c0 .013-.007.02-.023.02h-.245c-.01 0-.015-.003-.02-.011l-.013-.021-.212-.41-.017.002-.057-.001-.056-.002v.41a.031.031 0 01-.009.022.03.03 0 01-.023.01h-.208a.027.027 0 01-.022-.01.026.026 0 01-.01-.021V39.62c0-.029.006-.048.017-.056a.128.128 0 01.054-.021.677.677 0 01.065-.01 5.823 5.823 0 00.172-.01l.089-.002c.068 0 .13.007.19.02a.413.413 0 01.151.062c.043.03.077.068.1.118a.39.39 0 01.036.178v.023a.332.332 0 01-.057.206.342.342 0 01-.148.116l.242.455c-.004.006-.004.013-.004.017h.008zm-.311-.817c0-.048-.017-.084-.053-.108a.29.29 0 00-.154-.034h-.026l-.038.002-.036.001h-.025v.311h.023c.01.002.022.002.034.002l.035.002h.021a.545.545 0 00.105-.01.176.176 0 00.066-.027.086.086 0 00.037-.046.178.178 0 00.011-.07V39.9z" fill="#E1261C"/><path fill-rule="evenodd" clip-rule="evenodd" d="M41.316 41.676c-1.32-1.743-3.275-2.633-5.734-2.705l-2.743-.004h-1.28c-.391 0-.712.267-.712.594v8.843c0 .327.32.595.712.595h4.323a9.497 9.497 0 002.282-.334c4.058-1.17 4.848-4.75 3.152-6.99v.001zm-3.372 3.926c-.824 1.143-1.927 1.284-3.616 1.284v-5.998c1.354.016 2.487.28 3.215 1.107 1.014 1.157 1.173 2.534.4 3.606h.002zm-16.212-6.268c-.062-.211-.291-.37-.563-.37h-1.04l-.507-.003h-1.04c-.238 0-.45.12-.531.296-.08.168.01.34.01.34.689 2.201 1.86 4.151 3.715 5.81-.826.612-1.805.918-2.842 1.033l-.32.022c-.317 0-.577.219-.577.484v1.651c0 .266.26.483.578.483h.09c3.115-.054 8.684-1.78 10.176-9.285l.038-.189v-.189c0-.265-.259-.484-.578-.484h-2.304c-.317 0-.578.219-.578.484l-.004.056c-.107.768-.445 2.231-1.522 3.568-1.114-1.088-1.805-2.595-2.134-3.45l-.068-.263v.005zm-12.407 7.63l.074.012c1.856.307 3.638.17 5.277-.67 2.726-1.398 2.912-4.463.394-6.115-1.174-.772-2.545-1.084-3.986-1.143a61.882 61.882 0 00-1.382-.04c-.39-.006-.71-.012-.71-.013H6.384c-.391 0-.711.268-.711.596v8.813c0 .328.32.596.71.596H8.28c.391 0 .711-.268.711-.596v-1.508l.334.07v-.002zm3.874-3.831c-.098.768-.724 1.364-1.65 1.56-.82.175-1.764.054-2.573-.062 0 0-.005-2.352-.005-3.484 1.06-.043 2.072-.053 3.02.345.816.343 1.29.993 1.208 1.64v.001zm39.406-1.445c-1.639-.838-3.421-.976-5.275-.67l-.074.013c-.186.015-.336-.24-.336-.569v-.87c0-.33-.32-.597-.711-.597h-1.895c-.392 0-.71.268-.71.596v8.813c0 .328.318.596.71.596h1.895c.392 0 .711-.002.711-.002l.711-.012s.685-.01 1.381-.04c1.442-.06 2.814-.372 3.987-1.143 2.518-1.656 2.333-4.722-.394-6.119v.004zM49.92 46.5c-.945.399-1.961.389-3.02.346 0-1.132.006-3.485.006-3.485.81-.115 1.753-.238 2.573-.063.925.197 1.553.793 1.65 1.561.08.647-.39 1.298-1.209 1.641z" fill="#E1261C"/><path d="M30.258 20.7c2.028-1.933 4.944-3.197 8.218-3.347a8.292 8.292 0 00.904-3.742c0-4.854-4.217-8.804-9.403-8.804-5.191 0-9.412 3.95-9.412 8.804 0 1.33.324 2.587.89 3.717 3.512.014 6.656 1.32 8.803 3.372zm8.575-2.199c-3.09 0-5.828 1.405-7.545 3.564 1.003 1.444 1.587 3.115 1.587 4.9 0 1.935-.683 3.735-1.848 5.256 1.693 2.346 4.56 3.888 7.806 3.888 5.185 0 9.403-3.947 9.403-8.802-.002-4.856-4.22-8.807-9.403-8.807v.001z" fill="#001689"/><path d="M21.692 18.501c-5.19 0-9.412 3.951-9.412 8.806 0 4.855 4.223 8.802 9.412 8.802 5.186 0 9.403-3.947 9.403-8.802 0-4.854-4.216-8.805-9.403-8.805z" fill="#001689"/></g><defs><clipPath id="clip0"><path fill="#fff" d="M0 0h60v54H0z"/></clipPath></defs></svg>