<svg width="73" height="45" fill="none" xmlns="http://www.w3.org/2000/svg"><path fill-rule="evenodd" clip-rule="evenodd" d="M33.33 37.343c0 .588.359.908.817.908.458 0 .816-.32.816-.908 0-.478-.266-.913-.816-.913-.551 0-.816.435-.816.913zm.183 0c0-.534.32-.768.633-.768.314 0 .633.234.633.768s-.32.763-.633.763c-.314 0-.633-.229-.633-.763zm1.848-.892v1.78h.17v-.822h.227c.167 0 .214.079.252.163l.297.659h.187l-.311-.692c-.036-.08-.072-.176-.196-.191v-.005a.42.42 0 00.389-.415c0-.19-.088-.478-.551-.478h-.464zm.17.144h.306c.27 0 .355.176.355.337 0 .18-.17.333-.411.333h-.25v-.67zm1.375-.144v1.78h.17v-1.78h-.17zm.556 1.722c.136.053.272.078.42.078.522 0 .596-.333.596-.447 0-.318-.206-.43-.445-.56-.209-.112-.376-.183-.376-.37 0-.108.04-.299.373-.299a.93.93 0 01.368.076l.023-.157a1.205 1.205 0 00-.391-.064c-.447 0-.555.247-.555.443 0 .282.229.392.413.488.263.137.407.213.407.435 0 .241-.258.31-.414.31-.118 0-.279-.04-.402-.1l-.017.167z" fill="#000"/><path d="M40.659 32.065H31.23v.67h4.65v.37h-4.65v.851h4.65v.37h-4.65v.853h4.65v.37h-4.65v4.904l4.713 3.153.351-.234h-.348v-.37h.9l1.275-.852h-2.175v-.37h2.728l1.274-.853h-4.003v-.37h4.556l.156-.104v-.749h-4.712v-.369h4.712v-7.27zm.523-.524v9.19l-5.238 3.503-5.238-3.504v-9.189h10.476z" fill="#000"/><path fill-rule="evenodd" clip-rule="evenodd" d="M9.494 8.71c0 8.596 6.761 8.714 7.841 8.714 1.01 0 7.841-.118 7.841-8.714 0-6.69-4.179-8.71-7.84-8.71-4.579 0-7.842 2.959-7.842 8.71zm2.348 0c0-1.807.47-6.855 5.493-6.855 3.78 0 5.494 2.982 5.494 6.855 0 6.62-4.343 6.856-5.494 6.856-4.695 0-5.493-4.203-5.493-6.856zm16.386 8.217h2.207V9.954h4.695c2.959 0 3.076 1.808 3.1 3.498.023 2.136.023 2.747.61 3.475h2.324c-.68-.94-.587-1.643-.657-3.92-.048-1.69-.164-3.17-2.372-3.968v-.07c1.784-.353 2.818-2.208 2.818-4.062C40.953.75 37.29.493 35.506.493h-7.278v16.434zm2.207-14.579h4.601c2.066 0 3.569.634 3.569 2.794 0 2.559-2.184 2.958-3.24 2.958h-4.93V2.348zM44.215.493v16.434h2.207V.493h-2.206zm5.26 11.222c.235 5.188 4.46 5.708 6.784 5.708 1.362 0 6.503-.046 6.503-4.957 0-3.944-3.333-4.554-6.268-5.118-2.16-.422-4.108-.774-4.108-2.747 0-1.666 1.526-2.746 3.803-2.746 1.032 0 3.662.211 3.944 2.91h2.207C62.152 2.23 60.32 0 56.26 0c-3.71 0-6.222 1.62-6.222 4.719 0 3.78 3.334 4.108 7.066 4.906 1.526.329 3.31.869 3.31 2.888 0 1.573-1.103 3.052-4.038 3.052-3.004 0-4.765-1.667-4.695-3.85h-2.207zM0 25.705c.075 1.662 1.43 1.829 2.174 1.829.436 0 2.083-.016 2.083-1.589 0-1.264-1.068-1.459-2.008-1.64-.692-.134-1.317-.247-1.317-.88 0-.534.49-.88 1.219-.88.33 0 1.173.068 1.264.933h.706c-.06-.812-.647-1.527-1.948-1.527-1.188 0-1.993.52-1.993 1.512 0 1.211 1.069 1.316 2.264 1.572.49.105 1.06.279 1.06.925 0 .504-.353.978-1.293.978-.963 0-1.527-.534-1.504-1.233H0zm7.303-1.392l.797 3.061h.707l1.233-3.82h-.684l-.933 3.06-.797-3.06H6.98l-.797 3.06-.933-3.06h-.685l1.234 3.82h.707l.798-3.061zm3.234-.76v3.822h.662v-3.821h-.662zm0-.752h.662v-.692h-.662v.692zm1.459 3.437c.022.7.556 1.288 1.692 1.288.173 0 1.572-.03 1.572-1.235 0-.782-.58-.94-1.362-1.112-.549-.12-1.052-.166-1.052-.707 0-.61.706-.603.79-.603.759 0 .88.467.894.685h.632c-.03-.413-.248-1.15-1.55-1.15-.691 0-1.45.248-1.45 1.098 0 .797.556.97 1.203 1.113l.406.09c.752.173.805.384.805.632 0 .158.007.722-.88.722-.497 0-1.023-.21-1.038-.82h-.662v-.001zm3.805 0c.023.7.557 1.288 1.692 1.288.173 0 1.572-.03 1.572-1.235 0-.782-.58-.94-1.361-1.112-.55-.12-1.053-.166-1.053-.707 0-.61.707-.603.79-.603.76 0 .88.467.895.685h.632c-.03-.413-.248-1.15-1.55-1.15-.692 0-1.451.248-1.451 1.098 0 .797.556.97 1.203 1.113l.406.09c.752.173.805.384.805.632 0 .158.008.722-.88.722-.496 0-1.023-.21-1.038-.82h-.662v-.001zm8.348 1.136h.572l1.707-4.422h.023l-.015.202v4.22h.707v-5.265h-1.06l-1.648 4.333-1.647-4.333h-1.06v5.265h.706v-4.22l-.014-.202h.014l1.715 4.422zm4.678-2.693c-.022-.797.753-.812.993-.812.843 0 .858.594.858.767 0 .497-.188.482-.745.527-1.534.135-1.873.556-1.873 1.211 0 .805.55 1.152 1.347 1.152.518 0 1.046-.197 1.308-.678.076.496.316.557.685.557.143 0 .21-.008.3-.03v-.467c-.398.014-.406-.15-.398-.451l.038-1.768c.022-1.12-.903-1.286-1.52-1.286-1.346 0-1.631.775-1.624 1.278h.631zm1.836 1.06c-.053 1.069-.662 1.317-1.181 1.317-.429 0-.737-.263-.737-.707 0-.61.504-.654 1.09-.745.421-.06.64-.03.843-.188l-.015.324zm4.58-3.632v1.94c-.308-.518-.745-.646-1.256-.646-1.474 0-1.722 1.248-1.722 2.053 0 1.218.624 2.07 1.737 2.07.813 0 1.136-.43 1.264-.678h.023v.526h.616v-5.265h-.662zm-2.279 3.347c0-1.12.504-1.587 1.143-1.587.632 0 1.181.467 1.181 1.573 0 1.188-.564 1.617-1.143 1.617-.377 0-1.181-.159-1.181-1.603zm6.776.812c-.074.413-.428.79-1.06.79-.888 0-1.203-.79-1.212-1.444h2.941c0-.06-.007-.128-.007-.188-.038-.828-.24-2.023-1.767-2.023-1.768 0-1.866 1.557-1.866 2.076 0 .346.038 2.047 1.933 2.047 1.189 0 1.564-.716 1.67-1.258h-.632zm-2.272-1.12c-.007-.474.211-1.279 1.181-1.279.866 0 1.047.768 1.061 1.28h-2.242zm8.379-2.203l1.09 4.429h.904l1.398-5.265h-.797l-1.098 4.423-1.09-4.423h-.813l-1.09 4.423-1.098-4.423h-.8l1.401 5.265h.904l1.089-4.43zm4.407 1.736c-.022-.797.753-.812.994-.812.841 0 .857.594.857.767 0 .497-.188.482-.745.527-1.534.135-1.872.556-1.872 1.211 0 .805.549 1.152 1.346 1.152.518 0 1.045-.197 1.308-.678.076.496.316.557.685.557.142 0 .21-.008.3-.03v-.467c-.399.014-.405-.15-.399-.451l.038-1.768c.023-1.12-.902-1.286-1.519-1.286-1.347 0-1.632.775-1.625 1.278h.632zm1.836 1.06c-.052 1.069-.662 1.317-1.181 1.317-.428 0-.737-.263-.737-.707 0-.61.504-.654 1.09-.745.422-.06.64-.03.843-.188l-.015.324zm1.376-2.187v.466h.684v2.565c0 .398-.008.941.782.941.226 0 .482-.06.693-.151v-.467a1.62 1.62 0 01-.414.067c-.422 0-.4-.247-.4-.526v-2.43h.814v-.466h-.813V22.41h-.662v1.143h-.684zm5.527 2.459c-.022.421-.263 1.046-1.014 1.046-.843 0-1.181-.768-1.181-1.625 0-.865.307-1.565 1.135-1.565.226 0 .895.03 1.03.88h.632c-.083-.714-.602-1.345-1.677-1.345-1.482 0-1.82 1.143-1.82 2.03 0 2.04 1.481 2.092 1.865 2.092 1.37 0 1.617-1.061 1.663-1.513h-.633zm1.445-3.904v5.265h.661v-2.083c0-1.271.737-1.422 1.099-1.422.82 0 .797.723.797 1.166v2.34h.662v-2.543c0-.316.023-1.428-1.248-1.428-.542 0-.956.203-1.31.684V22.11h-.661zm7.054 4.159c-.075.413-.428.79-1.06.79-.888 0-1.204-.79-1.212-1.444h2.941c0-.06-.008-.128-.008-.188-.037-.828-.24-2.023-1.767-2.023-1.767 0-1.865 1.557-1.865 2.076 0 .346.038 2.047 1.933 2.047 1.189 0 1.564-.716 1.669-1.258h-.63zm-2.271-1.12c-.008-.474.21-1.279 1.18-1.279.866 0 1.046.768 1.062 1.28H65.22zm3.535 1.09c.022.7.556 1.288 1.691 1.288.174 0 1.573-.03 1.573-1.235 0-.782-.58-.94-1.362-1.112-.549-.12-1.052-.166-1.052-.707 0-.61.707-.603.79-.603.758 0 .88.467.895.685h.631c-.03-.413-.247-1.15-1.549-1.15-.692 0-1.452.248-1.452 1.098 0 .797.557.97 1.204 1.113l.406.09c.752.173.804.384.804.632 0 .158.009.722-.88.722-.496 0-1.022-.21-1.038-.82h-.661v-.001zM8.649 37.694c.075 1.662 1.43 1.829 2.173 1.829.437 0 2.084-.015 2.084-1.588 0-1.264-1.068-1.459-2.008-1.64-.693-.135-1.317-.248-1.317-.88 0-.534.49-.88 1.219-.88.33 0 1.172.067 1.263.933h.707c-.06-.813-.647-1.527-1.948-1.527-1.188 0-1.993.519-1.993 1.511 0 1.212 1.069 1.317 2.264 1.573.49.104 1.061.277 1.061.924 0 .504-.354.978-1.294.978-.962 0-1.526-.534-1.504-1.233H8.65zm5.122-2.151v3.82h.662v-3.82h-.662zm0-.752h.662v-.693h-.662v.693zm1.73.752v3.82h.662v-2.082c0-1.272.737-1.422 1.098-1.422.827 0 .805.76.805 1.166v2.339h.662v-2.541c0-.76-.257-1.43-1.257-1.43a1.582 1.582 0 00-1.308.685v-.534h-.662v-.001zm6.987 2.46c-.023.42-.263 1.045-1.016 1.045-.842 0-1.18-.767-1.18-1.625 0-.864.308-1.565 1.135-1.565.226 0 .895.03 1.03.881h.632c-.083-.715-.601-1.347-1.677-1.347-1.481 0-1.82 1.143-1.82 2.03 0 2.04 1.482 2.093 1.865 2.093 1.37 0 1.617-1.062 1.663-1.513h-.632zm4.196.255c-.075.414-.428.79-1.06.79-.888 0-1.204-.79-1.211-1.444h2.94c0-.06-.007-.127-.007-.188-.038-.827-.24-2.023-1.768-2.023-1.767 0-1.865 1.556-1.865 2.076 0 .346.038 2.046 1.933 2.046 1.188 0 1.564-.715 1.67-1.256h-.632zm-2.271-1.12c-.008-.474.21-1.28 1.18-1.28.866 0 1.047.768 1.061 1.28h-2.241zm20.134-1.73h1.203v3.955h.707v-5.265h-.496c-.076.572-.625.94-1.257.94h-.157v.37zm3.79 2.797c.225 1.28 1.338 1.317 1.632 1.317.82 0 1.986-.354 1.986-2.859 0-2.399-.986-2.722-1.888-2.722-1.144 0-1.806.767-1.806 1.857 0 1.12.73 1.767 1.693 1.767.481 0 .978-.15 1.286-.556h.015c.007.827-.18 1.948-1.279 1.948-.21 0-.835-.008-1.008-.752h-.63zm2.873-2.422c0 .723-.422 1.22-1.158 1.22-.745 0-1.114-.55-1.114-1.197 0-.662.323-1.3 1.099-1.3.805 0 1.173.623 1.173 1.277zm3.264 3.74c.391 0 1.842-.09 1.842-2.791 0-2.7-1.45-2.79-1.842-2.79-.391 0-1.842.09-1.842 2.79s1.45 2.79 1.842 2.79zm0-.596c-.85 0-1.143-1-1.143-2.196 0-1.196.293-2.196 1.143-2.196.85 0 1.143 1 1.143 2.196 0 1.196-.293 2.196-1.143 2.196zm4.836-.782v1.218h.706v-1.218h.828v-.594h-.828v-3.452h-.714l-2.474 3.452v.594h2.482zm-1.805-.594l1.805-2.527v2.527h-1.805z" fill="#000"/></svg>