<svg width="111" height="25" fill="none" xmlns="http://www.w3.org/2000/svg"><path d="M.357 12.578V.468h110.438v24.219H.357v-12.11zm110.131.026V.78H.639l.013 11.823.013 11.823h109.823V12.604zm-48.623 4.709l-.435-.078a5.158 5.158 0 01-1.281-.414c-.324-.158-1.07-.698-1.07-.774 0-.023.248-.255.553-.516l.553-.475.28.232c.472.393.874.554 1.628.653.502.067 1.239.032 1.643-.077.585-.157.839-.409.839-.833 0-.217-.024-.297-.116-.385-.23-.22-.485-.278-1.669-.38-.633-.056-1.301-.138-1.485-.184-1.216-.303-1.858-1.162-1.686-2.256.102-.654.548-1.21 1.237-1.543.558-.27 1.01-.355 1.878-.354.849 0 1.431.098 2.07.346.412.16 1.151.583 1.151.66 0 .033-.615.584-.984.88-.077.062-.143.044-.51-.141-.572-.288-1.01-.386-1.727-.39-.745-.004-1.112.097-1.39.38-.172.176-.195.228-.195.453 0 .533.278.66 1.702.773.54.043 1.142.105 1.338.137 1.306.215 1.932.853 1.936 1.973.003.594-.13.938-.527 1.37-.587.64-1.395.917-2.762.947-.463.01-.9.009-.971-.004zm9.684-.042c-.533-.089-1.087-.261-1.476-.46-.327-.166-1.05-.691-1.05-.763 0-.023.178-.195.396-.38l.554-.475.158-.136.25.211c.6.505 1.194.688 2.247.69 1.306.001 1.916-.3 1.917-.95 0-.178-.03-.256-.145-.372-.226-.231-.409-.266-2.2-.42-1.388-.12-2.105-.476-2.466-1.223-.426-.882-.138-1.917.695-2.497 1.223-.851 3.68-.76 5.153.193.19.122.343.234.343.249 0 .041-1.065.936-1.114.936a1.92 1.92 0 01-.328-.157c-.891-.491-2.169-.595-2.935-.237-.33.154-.454.335-.454.662 0 .509.297.637 1.738.75 1.154.09 1.59.156 1.969.299.567.214.893.498 1.117.975.12.254.135.35.135.835 0 .514-.01.57-.168.895-.293.607-.925 1.056-1.826 1.296-.525.14-1.888.183-2.51.079zm-63.846-.015c-.019-.019-.034-1.66-.034-3.645V10h1.585v7.291h-.759c-.417 0-.773-.015-.792-.035zm5.999-3.61V10h1.585v.366l.217-.113c.717-.374 2.063-.452 2.895-.167.74.253 1.388.792 1.66 1.381.255.554.264.673.264 3.324v2.474l-.78.014-.78.015v-2.358c0-2.582-.017-2.753-.293-3.109a1.595 1.595 0 00-.448-.342c-.266-.136-.37-.158-.835-.176-.895-.033-1.43.185-1.73.707l-.145.25-.025 2.5-.026 2.5-.78.014-.779.014v-3.647zm12.943 3.59c-.395-.053-.894-.284-1.177-.544-.267-.246-.51-.745-.57-1.176-.027-.184-.048-1.219-.049-2.3l-.001-1.966h-1.023V10h1.023V7.916h1.585V10h1.738v1.249h-1.738v2.086c0 2.32.002 2.334.334 2.476.118.05.373.074.79.074h.617l-.014.69-.014.69-.588.007a8.122 8.122 0 01-.913-.036zm5.31-3.59V10h1.586l-.014 3.632-.013 3.633-.78.014-.78.015v-3.647zm6.033 0V10h1.534v.359l.268-.12c.881-.396 2.056-.435 2.97-.1.388.143.813.396.975.582.128.147.155.143.405-.064.303-.25.761-.477 1.236-.613.524-.15 1.546-.163 2.091-.027 1.035.26 1.753.902 2.038 1.825.112.363.115.426.115 2.897v2.526l-.75.014-.751.015-.02-2.436c-.02-2.722-.023-2.738-.382-3.114-.329-.345-.556-.415-1.344-.416-.612 0-.719.013-.946.12a1.538 1.538 0 00-.707.66c-.109.205-.111.26-.126 2.696l-.014 2.487h-1.523l-.02-2.435c-.02-2.745-.02-2.743-.407-3.136-.309-.315-.744-.437-1.461-.408-.638.025-.958.14-1.254.449-.374.391-.366.323-.383 3.07l-.015 2.46h-1.529v-3.646zm16.003 0V10h1.534v7.291h-1.534v-3.646zm25.922 0V10h1.534v7.291h-1.534v-3.646zm5.982 0V10h1.585v.366l.201-.104c.68-.354 1.923-.453 2.74-.218.447.129.852.339 1.188.616l.216.179.337-.245c.372-.27.872-.496 1.331-.6.494-.113 1.506-.088 1.979.048 1.075.31 1.76.963 2.002 1.913.066.254.079.73.079 2.821v2.515h-1.534v-2.386c0-2.665-.01-2.765-.336-3.131-.277-.313-.613-.437-1.256-.462-.86-.034-1.423.196-1.714.702l-.145.251-.026 2.5-.026 2.5-.78.014-.779.015v-2.388c0-2.666-.01-2.766-.335-3.133-.278-.312-.614-.436-1.256-.461-.954-.038-1.506.23-1.8.875-.042.09-.068.883-.086 2.604l-.025 2.474-.78.014-.78.015v-3.647zm16.055 0V10h1.534v7.291h-1.534v-3.646z" fill="#000"/></svg>