<svg width="50" height="50" fill="none" xmlns="http://www.w3.org/2000/svg"><path fill="#1E252C" d="M0 0h50v50H0z"/><path d="M26.187 23.587h-1.248V16.16h1.248v3.109h1.832V16.16h1.248v7.426h-1.248v-3.222h-1.832v3.222zm6.168-7.426h-1.256v7.426h1.256V16.16zm8.696 4.148v1.707c0 .298.096.636.872.636s.872-.338.872-.636v-.813h1.256v.813c0 .548-.184.983-.552 1.28-.352.29-.88.443-1.56.443s-1.208-.145-1.568-.442c-.376-.307-.568-.741-.568-1.29v-4.284c0-.547.184-.982.553-1.28.352-.298.88-.443 1.56-.443s1.208.145 1.568.443c.375.306.567.74.567 1.288v2.586h-3v-.008zm1.744-1.088v-1.498c0-.297-.096-.636-.872-.636s-.872.338-.872.636v1.49h1.744v.008zm-8.048 4.083c.36.29.888.443 1.568.443s1.208-.153 1.56-.443c.368-.306.552-.733.552-1.28v-.814H37.17v.814c0 .298-.096.636-.872.636s-.872-.338-.872-.636v-4.768h2.376v-1.095H34.17v5.863c.008.547.192.974.576 1.28zM21.858 16.16v5.864c0 .314-.104.636-.84.636-.744 0-.84-.322-.84-.636V16.16h-1.255v5.863c0 .314-.104.636-.84.636-.744 0-.84-.322-.84-.636v-4.808c0-.669-.536-1.208-1.2-1.208H0v1.095h15.747c.128 0 .224.105.224.226v4.695c0 .54.192.974.568 1.28.36.298.896.451 1.592.451.6 0 1.08-.169 1.416-.507.351.338.823.507 1.424.507.68 0 1.215-.153 1.576-.45.375-.307.567-.741.567-1.281V16.16h-1.256zm4.521 10.052h-1.256v7.425h1.256v-7.425zm4.216-.161c-.592 0-1.088.218-1.48.636l-.2-.475h-.72v7.426h1.256v-5.646c0-.161.12-.338.352-.54.248-.209.504-.314.792-.314.264 0 .448.049.528.145.088.105.136.274.136.492v5.863h1.256v-5.863c0-.79-.328-1.724-1.92-1.724zm7.775 1.723v2.586h-3v1.707c0 .298.096.636.872.636s.872-.338.872-.636v-.814h1.256v.814c0 .548-.184.983-.552 1.28-.352.298-.88.443-1.56.443s-1.208-.145-1.568-.443c-.376-.306-.568-.74-.568-1.288v-4.293c0-.547.184-.982.552-1.28.352-.29.88-.443 1.56-.443s1.208.145 1.568.443c.376.306.568.74.568 1.288zm-1.248 1.49v-1.49c0-.298-.096-.636-.872-.636s-.872.338-.872.636v1.49h1.744zM43.5 30.44l-2.072-1.852c-.192-.161-.264-.282-.296-.363a1.627 1.627 0 01-.064-.507c0-.185.056-.314.184-.41.136-.113.367-.17.671-.17.313 0 .536.056.672.17.128.104.184.233.184.426v1.184h1.256v-1.136c0-.789-.36-1.723-2.08-1.723-.695 0-1.231.145-1.591.443-.377.306-.56.74-.56 1.289 0 .354.047.652.151.885.105.242.28.484.544.733l2.032 1.845c.153.144.248.273.297.386.047.12.072.29.072.507a.457.457 0 01-.2.403c-.153.113-.393.17-.72.17-.328 0-.569-.057-.72-.17-.136-.096-.2-.233-.2-.419v-1.183h-1.24v1.135c0 .79.376 1.724 2.175 1.724 1.792 0 2.177-.943 2.177-1.724 0-.346-.049-.644-.145-.886-.104-.25-.272-.5-.528-.757zm-19.841 2.102h-1.896a.216.216 0 01-.216-.217v-5.066c0-.668-.537-1.208-1.2-1.208H0v1.095h20.067c.128 0 .224.105.224.226v5.05c0 .668.535 1.208 1.2 1.208h2.271v-1.096h-.104v.008z" fill="#fff"/></svg>