<svg width="134" height="17" fill="none" xmlns="http://www.w3.org/2000/svg"><g clip-path="url(#clip0)"><path d="M39.901 2.705c-.036.125-1.355 4.499-1.355 4.499h-4.22l1.359-4.499h-4.829s-3.65 12.08-3.717 12.309h4.828c.035-.125 1.558-5.16 1.558-5.16h4.218l-1.556 5.16h4.827l3.717-12.309H39.9zm25.39 1.337l-.222.168.456-1.505h-4.827s-3.647 12.079-3.72 12.31h4.828c.041-.128 2.247-7.433 2.247-7.433.31-1.032 1.11-1.729 1.983-1.729h1.237c.392 0 .697.135.884.39.136.188.205.433.205.718 0 .205-.035.431-.109.67l-2.227 7.383h4.826c.041-.127 2.624-8.675 2.624-8.675a4.31 4.31 0 00.18-1.189c0-.51-.11-1.085-.477-1.585-.537-.738-1.485-1.108-2.825-1.108-2.578 0-4.28.995-5.063 1.585zM46.173 3.59c.045.152.697 2.437.749 2.616.427-.18 2.234-.898 3.8-.898 1.491 0 2.336.203 2.657.642.162.221.19.502.083.858L53.16 7.81l-.088-.028c-2.033-.68-3.58-.659-3.595-.657-1.614 0-3.067.407-4.2 1.178a5.634 5.634 0 00-2.236 3.046c-.333 1.105-.25 2.048.243 2.721.574.782 1.7 1.196 3.261 1.196 1.481 0 3.088-.385 4.531-1.088l.187-.09s-.225.75-.28.926h4.83c.034-.126 2.571-8.509 2.571-8.509.1-.326.152-.665.156-1.006a2.37 2.37 0 00-.444-1.42c-.776-1.062-2.565-1.624-5.176-1.624-3.197 0-6.223.96-6.747 1.135zm3.825 6.055c.367 0 1.63.028 2.405.399l.071.034-.542 1.79-.037.017a6.91 6.91 0 01-2.7.609c-.813 0-1.381-.192-1.646-.554a.87.87 0 01-.163-.524c0-.118.016-.244.056-.372.264-.877 1.22-1.399 2.556-1.399zm34.11-7.003c-.045.038-4.627 3.693-4.627 3.693l1.124-3.693h-4.822l-3.775 12.496h4.823c.04-.125 1.531-5.077 1.531-5.077s3.466 5 3.518 5.077h5.152l-4.425-6.399s6.93-5.79 7.3-6.097h-5.8z" fill="#231F20"/><path d="M86.116 8.887c-.524 1.736-.328 3.365.563 4.58 1.001 1.372 2.803 2.13 5.068 2.13 5.333 0 8.342-2.087 9.756-6.764.525-1.737.324-3.363-.562-4.579-1-1.373-2.805-2.13-5.07-2.13-4.903 0-8.46 2.468-9.755 6.763zm4.72 2.74c-.421-.575-.433-1.488-.04-2.792.476-1.58 1.565-3.466 4.04-3.466.95 0 1.584.237 1.944.729.42.574.434 1.49.04 2.791-.478 1.583-1.566 3.469-4.04 3.469-.948 0-1.585-.24-1.944-.732zm11.371-2.74c-.523 1.736-.324 3.365.564 4.58 1 1.372 2.803 2.13 5.072 2.13 5.333 0 8.342-2.087 9.755-6.764.524-1.737.323-3.363-.565-4.579-.999-1.373-2.8-2.13-5.072-2.13-4.9 0-8.455 2.468-9.753 6.763h-.001zm8.722-3.518c.949 0 1.586.237 1.945.729.419.576.435 1.49.039 2.791-.477 1.583-1.565 3.469-4.041 3.469-.949 0-1.583-.24-1.942-.732-.42-.574-.434-1.488-.041-2.79.477-1.58 1.566-3.467 4.04-3.467zm17.563-2.836l-4.694 4.016 1.207-4.016h-4.823s-3.764 12.463-3.833 12.695h4.82l1.557-5.156s3.731 5.087 3.786 5.155h5.293c-.208-.278-4.743-6.454-4.743-6.454s6.544-5.931 6.914-6.24h-5.484z" fill="#231F20"/><path d="M28.58.599L28.514 0h-4.091c.47 4.894-2.863 10.354-7.608 11.655-.003 0-.007 0-.01.003-.026.006-.086.01-.092-.062a.065.065 0 01.028-.065h-.004C20.696 8.854 22.783 4.54 22.424 0h-4.006c.173 3.99-2.467 7.62-6.51 9.096-.025.004-.084.008-.09-.062-.005-.026.012-.047.028-.06h-.001C14.763 6.947 16.522 3.932 16.417 0h-4.004c-.04 4.709-4.215 7.994-12.39 7.994.117.065.231.131.345.196 5.319 2.946 8.092 4.756 12.017 7.997.605.526 1.445.813 2.291.783C25.27 16.22 29.082 6.805 28.58.599z" fill="#F25C19"/></g><defs><clipPath id="clip0"><path fill="#fff" d="M0 0h134v17H0z"/></clipPath></defs></svg>