<svg width="67" height="66" viewBox="0 0 67 66" fill="none" xmlns="http://www.w3.org/2000/svg">
<path d="M59.6299 12.469H42.5928C42.5928 11.3394 42.144 10.256 41.3452 9.45727C40.5465 8.6585 39.4631 8.20975 38.3335 8.20975H35.5756L42.284 1.51204L40.7719 0L33.0094 7.77318L25.2469 0L23.7348 1.51204L30.4432 8.20975H27.6853C26.5557 8.20975 25.4723 8.6585 24.6735 9.45727C23.8748 10.256 23.426 11.3394 23.426 12.469H6.38891C4.69447 12.469 3.06942 13.1421 1.87127 14.3403C0.673116 15.5385 0 17.1635 0 18.8579V50.8025C0.00165596 52.3482 0.563631 53.8409 1.58177 55.0039C2.5999 56.167 4.00515 56.9214 5.53706 57.1275L7.45373 64.9007C7.51203 65.137 7.64949 65.3461 7.84324 65.4934C8.03698 65.6406 8.27531 65.7171 8.51855 65.71H12.7778C13.0211 65.7171 13.2594 65.6406 13.4531 65.4934C13.6469 65.3461 13.7843 65.137 13.8426 64.9007L15.738 57.1914H50.2807L52.1761 64.9007C52.2344 65.137 52.3719 65.3461 52.5656 65.4934C52.7594 65.6406 52.9977 65.7171 53.2409 65.71H57.5002C57.7435 65.7171 57.9818 65.6406 58.1755 65.4934C58.3693 65.3461 58.5067 65.137 58.565 64.9007L60.5137 57.1275C62.0398 56.9144 63.4374 56.1568 64.449 54.9945C65.4607 53.8322 66.0182 52.3434 66.0188 50.8025V18.8579C66.0188 17.1635 65.3457 15.5385 64.1475 14.3403C62.9493 13.1421 61.3243 12.469 59.6299 12.469ZM27.6853 10.3394H38.3335C38.8983 10.3394 39.44 10.5638 39.8394 10.9631C40.2387 11.3625 40.4631 11.9042 40.4631 12.469H25.5557C25.5557 11.9042 25.78 11.3625 26.1794 10.9631C26.5788 10.5638 27.1205 10.3394 27.6853 10.3394ZM11.9473 63.5803H9.34911L7.75188 57.1914H13.5445L11.9473 63.5803ZM56.6697 63.5803H54.0715L52.4743 57.1914H58.2669L56.6697 63.5803ZM63.8891 50.8025C63.8891 51.9321 63.4404 53.0155 62.6416 53.8143C61.8428 54.613 60.7595 55.0618 59.6299 55.0618H6.38891C5.25928 55.0618 4.17592 54.613 3.37715 53.8143C2.57838 53.0155 2.12964 51.9321 2.12964 50.8025V18.8579C2.12964 17.7283 2.57838 16.6449 3.37715 15.8462C4.17592 15.0474 5.25928 14.5987 6.38891 14.5987H59.6299C60.7595 14.5987 61.8428 15.0474 62.6416 15.8462C63.4404 16.6449 63.8891 17.7283 63.8891 18.8579V50.8025Z" fill="#25404F"/>
<path d="M48.9817 16.7283H6.38892C5.8241 16.7283 5.28242 16.9526 4.88303 17.352C4.48365 17.7514 4.25928 18.2931 4.25928 18.8579V50.8025C4.25928 51.3673 4.48365 51.909 4.88303 52.3084C5.28242 52.7077 5.8241 52.9321 6.38892 52.9321H48.9817C49.5465 52.9321 50.0882 52.7077 50.4876 52.3084C50.8869 51.909 51.1113 51.3673 51.1113 50.8025V18.8579C51.1113 18.2931 50.8869 17.7514 50.4876 17.352C50.0882 16.9526 49.5465 16.7283 48.9817 16.7283ZM6.38892 50.8025V18.8579H48.9817V50.8025H6.38892Z" fill="#25404F"/>
<path d="M57.5002 16.7283C56.6578 16.7283 55.8344 16.9781 55.1339 17.4461C54.4335 17.9141 53.8876 18.5793 53.5652 19.3576C53.2428 20.1359 53.1585 20.9923 53.3228 21.8185C53.4872 22.6447 53.8928 23.4036 54.4885 23.9993C55.0842 24.595 55.8431 25.0006 56.6693 25.165C57.4955 25.3293 58.3519 25.245 59.1302 24.9226C59.9085 24.6002 60.5737 24.0543 61.0417 23.3539C61.5097 22.6534 61.7595 21.83 61.7595 20.9875C61.7595 19.8579 61.3108 18.7746 60.512 17.9758C59.7132 17.177 58.6299 16.7283 57.5002 16.7283ZM59.6299 20.9875C59.6275 21.1709 59.6025 21.3533 59.5553 21.5306L56.9572 18.9324C57.1344 18.8853 57.3168 18.8603 57.5002 18.8579C58.0651 18.8579 58.6067 19.0823 59.0061 19.4817C59.4055 19.8811 59.6299 20.4227 59.6299 20.9875ZM55.3706 20.9875C55.373 20.8041 55.398 20.6217 55.4451 20.4445L58.0433 23.0426C57.866 23.0898 57.6836 23.1148 57.5002 23.1172C56.9354 23.1172 56.3937 22.8928 55.9944 22.4934C55.595 22.094 55.3706 21.5524 55.3706 20.9875Z" fill="#25404F"/>
<path d="M57.5002 27.3765C56.6578 27.3765 55.8344 27.6263 55.1339 28.0943C54.4335 28.5623 53.8876 29.2275 53.5652 30.0058C53.2428 30.7841 53.1585 31.6405 53.3228 32.4667C53.4872 33.2929 53.8928 34.0518 54.4885 34.6475C55.0842 35.2432 55.8431 35.6488 56.6693 35.8132C57.4955 35.9775 58.3519 35.8932 59.1302 35.5708C59.9085 35.2484 60.5737 34.7025 61.0417 34.0021C61.5097 33.3016 61.7595 32.4781 61.7595 31.6357C61.7595 30.5061 61.3108 29.4227 60.512 28.624C59.7132 27.8252 58.6299 27.3765 57.5002 27.3765ZM57.5002 29.5061C57.6836 29.5085 57.866 29.5335 58.0433 29.5806L55.4451 32.1788C55.398 32.0015 55.373 31.8191 55.3706 31.6357C55.3706 31.0709 55.595 30.5292 55.9944 30.1299C56.3937 29.7305 56.9354 29.5061 57.5002 29.5061ZM57.5002 33.7654C57.3168 33.763 57.1344 33.738 56.9572 33.6908L59.5553 31.0927C59.6025 31.2699 59.6275 31.4523 59.6299 31.6357C59.6299 32.2006 59.4055 32.7422 59.0061 33.1416C58.6067 33.541 58.0651 33.7654 57.5002 33.7654Z" fill="#25404F"/>
<path d="M60.6947 38.0247H54.3058C54.0234 38.0247 53.7525 38.1368 53.5528 38.3365C53.3532 38.5362 53.241 38.8071 53.241 39.0895V43.3488C53.241 43.6312 53.3532 43.902 53.5528 44.1017C53.7525 44.3014 54.0234 44.4136 54.3058 44.4136H60.6947C60.9771 44.4136 61.2479 44.3014 61.4476 44.1017C61.6473 43.902 61.7595 43.6312 61.7595 43.3488V39.0895C61.7595 38.8071 61.6473 38.5362 61.4476 38.3365C61.2479 38.1368 60.9771 38.0247 60.6947 38.0247ZM59.6299 42.2839H55.3706V40.1543H59.6299V42.2839Z" fill="#25404F"/>
<path d="M60.6947 46.5432H54.3058C54.0234 46.5432 53.7525 46.6554 53.5528 46.8551C53.3532 47.0548 53.241 47.3256 53.241 47.608V51.8673C53.241 52.1497 53.3532 52.4206 53.5528 52.6202C53.7525 52.8199 54.0234 52.9321 54.3058 52.9321H60.6947C60.9771 52.9321 61.2479 52.8199 61.4476 52.6202C61.6473 52.4206 61.7595 52.1497 61.7595 51.8673V47.608C61.7595 47.3256 61.6473 47.0548 61.4476 46.8551C61.2479 46.6554 60.9771 46.5432 60.6947 46.5432ZM59.6299 50.8025H55.3706V48.6729H59.6299V50.8025Z" fill="#25404F"/>
<path d="M23.7407 26.624L8.83252 41.5322L10.3384 43.0381L25.2466 28.1299L23.7407 26.624Z" fill="#25404F"/>
<path d="M34.3904 26.6228L19.4822 41.531L20.9881 43.0369L35.8963 28.1287L34.3904 26.6228Z" fill="#E63739"/>
<path d="M45.0396 26.6217L30.1313 41.5299L31.6372 43.0358L46.5455 28.1276L45.0396 26.6217Z" fill="#E63739"/>
</svg>
