<svg width="70" height="70" viewBox="0 0 70 70" fill="none" xmlns="http://www.w3.org/2000/svg">
<path d="M60.1562 12.4844H9.84375C9.55367 12.4844 9.27547 12.5996 9.07035 12.8047C8.86523 13.0098 8.75 13.288 8.75 13.5781C8.75 13.8682 8.86523 14.1464 9.07035 14.3515C9.27547 14.5566 9.55367 14.6719 9.84375 14.6719H60.1562C60.4463 14.6719 60.7245 14.5566 60.9296 14.3515C61.1348 14.1464 61.25 13.8682 61.25 13.5781C61.25 13.288 61.1348 13.0098 60.9296 12.8047C60.7245 12.5996 60.4463 12.4844 60.1562 12.4844Z" fill="#25404F"/>
<path d="M60.1562 17.8594H9.84375C9.55367 17.8594 9.27547 17.9746 9.07035 18.1797C8.86523 18.3848 8.75 18.663 8.75 18.9531C8.75 19.2432 8.86523 19.5214 9.07035 19.7265C9.27547 19.9316 9.55367 20.0469 9.84375 20.0469H60.1562C60.4463 20.0469 60.7245 19.9316 60.9296 19.7265C61.1348 19.5214 61.25 19.2432 61.25 18.9531C61.25 18.663 61.1348 18.3848 60.9296 18.1797C60.7245 17.9746 60.4463 17.8594 60.1562 17.8594Z" fill="#E63739"/>
<path d="M60.1562 23.2344H9.84375C9.55367 23.2344 9.27547 23.3496 9.07035 23.5547C8.86523 23.7598 8.75 24.038 8.75 24.3281C8.75 24.6182 8.86523 24.8964 9.07035 25.1015C9.27547 25.3066 9.55367 25.4219 9.84375 25.4219H60.1562C60.4463 25.4219 60.7245 25.3066 60.9296 25.1015C61.1348 24.8964 61.25 24.6182 61.25 24.3281C61.25 24.038 61.1348 23.7598 60.9296 23.5547C60.7245 23.3496 60.4463 23.2344 60.1562 23.2344Z" fill="#E63739"/>
<path d="M66.7188 2.1875H61.25V1.09375C61.25 0.803674 61.1347 0.525483 60.9296 0.320368C60.7245 0.115253 60.4463 1.45027e-05 60.1562 0L52.5 0C52.2099 1.45027e-05 51.9317 0.115253 51.7266 0.320368C51.5215 0.525483 51.4063 0.803674 51.4062 1.09375V2.1875H18.5938V1.09375C18.5937 0.803674 18.4785 0.525483 18.2734 0.320368C18.0683 0.115253 17.7901 1.45027e-05 17.5 0L9.84375 0C9.55367 1.45027e-05 9.27548 0.115253 9.07037 0.320368C8.86525 0.525483 8.75001 0.803674 8.75 1.09375V2.1875H3.28125C2.4113 2.18845 1.57725 2.53446 0.962105 3.1496C0.346957 3.76475 0.000949589 4.5988 0 5.46875L0 32.8125C0.000949589 33.6824 0.346957 34.5165 0.962105 35.1316C1.57725 35.7468 2.4113 36.0928 3.28125 36.0938H26.25V37.1875C26.2509 38.0574 26.597 38.8915 27.2121 39.5066C27.8273 40.1218 28.6613 40.4678 29.5312 40.4688H31.1719V63.4375H19.6389C18.7754 63.445 17.9502 63.7946 17.3441 64.4097C16.7381 65.0249 16.4008 65.8553 16.4062 66.7188V68.9062C16.4063 69.1963 16.5215 69.4745 16.7266 69.6796C16.9317 69.8848 17.2099 70 17.5 70H52.5C52.7901 70 53.0683 69.8848 53.2734 69.6796C53.4785 69.4745 53.5937 69.1963 53.5938 68.9062V66.7188C53.5992 65.8553 53.2619 65.0249 52.6559 64.4097C52.0498 63.7946 51.2246 63.445 50.3611 63.4375H38.8281V40.4688H40.4688C41.3387 40.4678 42.1727 40.1218 42.7879 39.5066C43.403 38.8915 43.7491 38.0574 43.75 37.1875V36.0938H66.7188C67.5887 36.0928 68.4227 35.7468 69.0379 35.1316C69.653 34.5165 69.9991 33.6824 70 32.8125V5.46875C69.9991 4.5988 69.653 3.76475 69.0379 3.1496C68.4227 2.53446 67.5887 2.18845 66.7188 2.1875ZM53.5938 2.1875H59.0625V4.375H53.5938V2.1875ZM10.9375 2.1875H16.4062V4.375H10.9375V2.1875ZM51.4062 66.7188V67.8125H18.5938V66.7188C18.5878 66.4352 18.6944 66.1609 18.8903 65.9559C19.0862 65.7509 19.3554 65.6319 19.6389 65.625H50.3611C50.6446 65.6319 50.9138 65.7509 51.1097 65.9559C51.3056 66.1609 51.4122 66.4352 51.4062 66.7188ZM36.6406 63.4375H33.3594V40.4688H36.6406V63.4375ZM41.5625 37.1875C41.5622 37.4775 41.4469 37.7555 41.2418 37.9606C41.0368 38.1656 40.7587 38.281 40.4688 38.2812H29.5312C29.2413 38.281 28.9632 38.1656 28.7582 37.9606C28.5531 37.7555 28.4378 37.4775 28.4375 37.1875V36.0938H41.5625V37.1875ZM67.8125 32.8125C67.8122 33.1025 67.6969 33.3805 67.4918 33.5856C67.2868 33.7906 67.0087 33.906 66.7188 33.9062H3.28125C2.99126 33.906 2.71323 33.7906 2.50817 33.5856C2.30312 33.3805 2.18779 33.1025 2.1875 32.8125V5.46875C2.18779 5.17876 2.30312 4.90073 2.50817 4.69567C2.71323 4.49062 2.99126 4.37529 3.28125 4.375H8.75V5.46875C8.75001 5.75883 8.86525 6.03702 9.07037 6.24213C9.27548 6.44725 9.55367 6.56249 9.84375 6.5625H17.5C17.7901 6.56249 18.0683 6.44725 18.2734 6.24213C18.4785 6.03702 18.5937 5.75883 18.5938 5.46875V4.375H51.4062V5.46875C51.4063 5.75883 51.5215 6.03702 51.7266 6.24213C51.9317 6.44725 52.2099 6.56249 52.5 6.5625H60.1562C60.4463 6.56249 60.7245 6.44725 60.9296 6.24213C61.1347 6.03702 61.25 5.75883 61.25 5.46875V4.375H66.7188C67.0087 4.37529 67.2868 4.49062 67.4918 4.69567C67.6969 4.90073 67.8122 5.17876 67.8125 5.46875V32.8125Z" fill="#25404F"/>
</svg>
