<svg width="88" height="51" viewBox="0 0 88 51" fill="none" xmlns="http://www.w3.org/2000/svg">
<path d="M72.5201 4.71777H15.1868C14.9911 4.71777 14.7954 4.91345 14.7954 5.10913V34.5585C14.7954 34.7542 14.9911 34.9499 15.1868 34.9499H72.6179C72.8136 34.9499 73.0093 34.7542 73.0093 34.5585V5.01129C72.9115 4.81561 72.7158 4.71777 72.5201 4.71777ZM72.2266 34.1671H15.4803V5.40264H72.2266V34.1671Z" fill="#25404F" stroke="#25404F" stroke-width="1.5"/>
<mask id="mask0" mask-type="alpha" maskUnits="userSpaceOnUse" x="0" y="0" width="88" height="51">
<path d="M86.8043 43.0705C86.8043 42.9727 86.8043 42.9727 86.7065 42.9727C86.7065 42.9727 86.7065 42.9727 86.6086 42.9727L76.1399 39.4505V3.93515C76.1399 2.2719 74.868 1 73.2048 1H14.5017C12.8385 1 11.5666 2.2719 11.5666 3.93515V39.3527L1.09784 42.8749C1.09784 42.8749 1.09784 42.8749 1 42.8749C1 42.8749 1 42.8749 1 42.9727C1 42.9727 1 42.9727 1 43.0705V43.1684V44.8316C1 46.5927 2.46758 50.0603 4.22867 50.0603H83.7713C85.5324 50.0603 87 46.5927 87 44.8316V43.1684C86.8043 43.1684 86.8043 43.1684 86.8043 43.0705C86.8043 43.1684 86.8043 43.1684 86.8043 43.0705ZM1.58703 44.9295V43.6576H34.1672V43.9511C34.1672 45.0273 35.4391 46.9078 36.9067 46.9078H50.7019C52.1695 46.9078 53.4414 45.0273 53.4414 43.9511V43.6576H86.0216V44.9295C86.0216 46.2992 84.9454 49.4733 83.4778 49.4733H4.13083C2.76109 49.3754 1.58703 46.2992 1.58703 44.9295ZM12.2514 3.93515C12.2514 2.76109 13.2298 1.68487 14.5017 1.68487H73.2048C74.3788 1.68487 75.4551 2.66325 75.4551 3.93515V39.2548H12.2514V3.93515ZM34.9499 43.5597H52.8544V43.8532C52.8544 44.5381 51.9738 46.1251 50.7998 46.1251H36.9067C35.8305 46.1251 34.8521 44.5381 34.8521 43.8532V43.5597H34.9499ZM53.1479 42.8749H34.5586H3.44596L11.9579 40.0375H75.6507L84.1627 42.8749H53.1479Z" fill="#25404F"/>
<path d="M86.8043 43.0705C86.8043 42.9727 86.8043 42.9727 86.7065 42.9727C86.7065 42.9727 86.7065 42.9727 86.6086 42.9727L76.1399 39.4505V3.93515C76.1399 2.2719 74.868 1 73.2048 1H14.5017C12.8385 1 11.5666 2.2719 11.5666 3.93515V39.3527L1.09784 42.8749C1.09784 42.8749 1.09784 42.8749 1 42.8749C1 42.8749 1 42.8749 1 42.9727C1 42.9727 1 42.9727 1 43.0705V43.1684V44.8316C1 46.5927 2.46758 50.0603 4.22867 50.0603H83.7713C85.5324 50.0603 87 46.5927 87 44.8316V43.1684C86.8043 43.1684 86.8043 43.1684 86.8043 43.0705ZM86.8043 43.0705C86.8043 43.1684 86.8043 43.1684 86.8043 43.0705ZM1.58703 44.9295V43.6576H34.1672V43.9511C34.1672 45.0273 35.4391 46.9078 36.9067 46.9078H50.7019C52.1695 46.9078 53.4414 45.0273 53.4414 43.9511V43.6576H86.0216V44.9295C86.0216 46.2992 84.9454 49.4733 83.4778 49.4733H4.13083C2.76109 49.3754 1.58703 46.2992 1.58703 44.9295ZM12.2514 3.93515C12.2514 2.76109 13.2298 1.68487 14.5017 1.68487H73.2048C74.3788 1.68487 75.4551 2.66325 75.4551 3.93515V39.2548H12.2514V3.93515ZM34.9499 43.5597H52.8544V43.8532C52.8544 44.5381 51.9738 46.1251 50.7998 46.1251H36.9067C35.8305 46.1251 34.8521 44.5381 34.8521 43.8532V43.5597H34.9499ZM53.1479 42.8749H34.5586H3.44596L11.9579 40.0375H75.6507L84.1627 42.8749H53.1479Z" stroke="#25404F" stroke-width="1.5"/>
</mask>
<g mask="url(#mask0)">
<path d="M86.8043 43.0705C86.8043 42.9727 86.8043 42.9727 86.7065 42.9727C86.7065 42.9727 86.7065 42.9727 86.6086 42.9727L76.1399 39.4505V3.93515C76.1399 2.2719 74.868 1 73.2048 1H14.5017C12.8385 1 11.5666 2.2719 11.5666 3.93515V39.3527L1.09784 42.8749C1.09784 42.8749 1.09784 42.8749 1 42.8749C1 42.8749 1 42.8749 1 42.9727C1 42.9727 1 42.9727 1 43.0705V43.1684V44.8316C1 46.5927 2.46758 50.0603 4.22867 50.0603H83.7713C85.5324 50.0603 87 46.5927 87 44.8316V43.1684C86.8043 43.1684 86.8043 43.1684 86.8043 43.0705C86.8043 43.1684 86.8043 43.1684 86.8043 43.0705ZM1.58703 44.9295V43.6576H34.1672V43.9511C34.1672 45.0273 35.4391 46.9078 36.9067 46.9078H50.7019C52.1695 46.9078 53.4414 45.0273 53.4414 43.9511V43.6576H86.0216V44.9295C86.0216 46.2992 84.9454 49.4733 83.4778 49.4733H4.13083C2.76109 49.3754 1.58703 46.2992 1.58703 44.9295ZM12.2514 3.93515C12.2514 2.76109 13.2298 1.68487 14.5017 1.68487H73.2048C74.3788 1.68487 75.4551 2.66325 75.4551 3.93515V39.2548H12.2514V3.93515ZM34.9499 43.5597H52.8544V43.8532C52.8544 44.5381 51.9738 46.1251 50.7998 46.1251H36.9067C35.8305 46.1251 34.8521 44.5381 34.8521 43.8532V43.5597H34.9499ZM53.1479 42.8749H34.5586H3.44596L11.9579 40.0375H75.6507L84.1627 42.8749H53.1479Z" fill="#25404F"/>
<path d="M86.8043 43.0705C86.8043 42.9727 86.8043 42.9727 86.7065 42.9727C86.7065 42.9727 86.7065 42.9727 86.6086 42.9727L76.1399 39.4505V3.93515C76.1399 2.2719 74.868 1 73.2048 1H14.5017C12.8385 1 11.5666 2.2719 11.5666 3.93515V39.3527L1.09784 42.8749C1.09784 42.8749 1.09784 42.8749 1 42.8749C1 42.8749 1 42.8749 1 42.9727C1 42.9727 1 42.9727 1 43.0705V43.1684V44.8316C1 46.5927 2.46758 50.0603 4.22867 50.0603H83.7713C85.5324 50.0603 87 46.5927 87 44.8316V43.1684C86.8043 43.1684 86.8043 43.1684 86.8043 43.0705ZM86.8043 43.0705C86.8043 43.1684 86.8043 43.1684 86.8043 43.0705ZM1.58703 44.9295V43.6576H34.1672V43.9511C34.1672 45.0273 35.4391 46.9078 36.9067 46.9078H50.7019C52.1695 46.9078 53.4414 45.0273 53.4414 43.9511V43.6576H86.0216V44.9295C86.0216 46.2992 84.9454 49.4733 83.4778 49.4733H4.13083C2.76109 49.3754 1.58703 46.2992 1.58703 44.9295ZM12.2514 3.93515C12.2514 2.76109 13.2298 1.68487 14.5017 1.68487H73.2048C74.3788 1.68487 75.4551 2.66325 75.4551 3.93515V39.2548H12.2514V3.93515ZM34.9499 43.5597H52.8544V43.8532C52.8544 44.5381 51.9738 46.1251 50.7998 46.1251H36.9067C35.8305 46.1251 34.8521 44.5381 34.8521 43.8532V43.5597H34.9499ZM53.1479 42.8749H34.5586H3.44596L11.9579 40.0375H75.6507L84.1627 42.8749H53.1479Z" stroke="#25404F" stroke-width="1.5"/>
<path d="M33.5 48V41.5H54V48H33.5Z" fill="#E63739"/>
</g>
</svg>
