<svg width="54" height="51" fill="none" xmlns="http://www.w3.org/2000/svg"><path d="M31.718 35.225l6.757-2.902 2.253-.03 10.075-1.785-10.47-1.179-7.55 3.114-1.065 2.782z" fill="#898D91"/><path d="M38.263 19.956l.943 4.535 11.172-.241-9.65 8.042H14.946l9.893-11.338 13.424-.998z" fill="url(#paint0_linear)"/><path d="M40.728 32.292l10.076-1.784-6.94-.786-3.136 2.57z" fill="#5C5F63"/><path d="M32.692 21.377l-5.175 1.18-2.892-15.784L31.2 3.568l1.492 17.809z" fill="url(#paint1_linear)"/><path d="M28.126 10.885l-.76.302-.336-2.177.792-.362.304 2.237zm.974 1.784l-.7.272-.243-2.026.76-.302.183 2.056zm-.426-4.384l-.852.363-.274-2.087.944-.423.182 2.147z" fill="#FE6A5F"/><path d="M27.061 9.07l-.822.364-.335-2.026.853-.393.304 2.056zm.639 4.173l-.76.303-.335-1.965.79-.333.305 1.995z" fill="#FE6A5F"/><path d="M28.644 14.786l-.67.272-.274-1.815.7-.302.244 1.845zm-.426 1.934l-.7.273-.275-1.633.731-.302.244 1.663z" fill="#FE6A5F"/><path d="M29.07 18.051l-.608.212-.244-1.542.64-.242.212 1.572zm-.396 1.663l-.67.242-.213-1.421.67-.272.213 1.45zm.731-3.477l-.579.212-.213-1.694.64-.242.152 1.724z" fill="#FE6A5F"/><path d="M29.679 19.29l-.457.182-.182-1.451.517-.182.122 1.452zm.974-7.558l-.73.302-.214-2.086.792-.333.152 2.117zm.882 1.693l-.7.302-.152-1.965.761-.303.091 1.966zm-.182-4.173l-.853.363-.152-1.995.944-.424.06 2.056z" fill="#FE6A5F"/><path d="M29.74 9.978l-.822.363-.213-1.935.852-.363.183 1.935zM30.135 14l-.76.302-.214-1.905.792-.303.182 1.905z" fill="#FE6A5F"/><path d="M37.502 20.288l-4.81 1.089-1.491-17.81 5.205 2.117.365 7.257.73 7.347z" fill="url(#paint2_linear)"/><path d="M32.692 4.475l3.227 1.421-.061 5.352-.457-5.08-2.71-1.693z" fill="#52000A"/><path d="M27.213 20.258l-1.43-13.485L31.2 3.568 25.173 6.5l2.04 13.757z" fill="#FFB19E"/><path d="M31.84 18.444v-.211l-.183.06-.305.12-.09-1.239v-.06c.151-.03.273-.06.425-.091h.061v-.181l.03-.303c0-.06.031-.15.031-.211v-.212l-.03-.847v-.12l-.122-.03h-.061l-.06.03-.427.15-.03-.423-.031-.514-.03-.393v-.09l.578-.242.091-.03v-.122l-.03-.997v-.242c0-.091-.03-.152-.061-.242-.03-.151-.091-.333-.122-.484 0 .03-.03.09-.03.121-.03.12-.061.242-.061.393 0 .09-.03.151-.03.242v.242l.03.877-.396.15-.122-1.602c.03 0 .061-.03.092-.06l.182-.121h.03c.122-.09.214-.151.336-.242-.061 0-.122.03-.183.03-.091 0-.152.03-.244.03l-.213.03h-.03l-.152-1.874c.03 0 .06-.03.122-.06l.182-.121c.122-.091.274-.182.396-.272-.03 0-.061 0-.091.03-.03 0-.061 0-.092.03-.091.03-.182.03-.274.06l-.243.061h-.03l-.122-1.663.639-.272.03.786v.242c.03.09.03.181.061.242 0 .03 0 .06.03.09.031.121.061.242.092.394v.03c.03-.151.06-.272.091-.424V8.8c0-.091.03-.182.03-.242v-.242l-.03-1.028v-.212l-.213.091-.913.423-.152-.03v.121l.152 1.875-.487.211-.152-1.693-.03-.212-.183.091-.7.303-.092.03c.03-.151.03-.303.061-.424v-.09c0-.091.03-.182.03-.272 0-.091-.03-.182-.03-.273l-.091-1.058-.061-.211-.183.09-.943.424-.092.06v.121l.244 1.965-.487.212-.274-1.784-.03-.212-.183.091-.883.393-.091.06.03.122.274 1.602.06.423.031.182.183-.09.64-.273c.03.121.03.212.03.333.03.181.091.332.122.514.09.332.152.635.243.967-.03 0-.06.03-.091.03-.03 0-.061.03-.092.06l-.182.122c-.061.06-.152.09-.213.151-.061.03-.092.06-.153.09.03 0 .061 0 .092-.03.122-.03.213-.03.335-.06l.213-.06h.03l.244 1.693-.487.181-.153-.786c0-.09-.03-.151-.03-.242-.03-.09-.06-.151-.091-.242 0-.03-.03-.06-.03-.09a1.846 1.846 0 00-.153-.363v-.03c0 .15-.03.302-.03.423v.331c.03.091.03.152.06.242l.213 1.028.03.182.184-.06.578-.243.243 1.512-.608.242-.122.03v.152l.274 1.663.03.18.183-.06.517-.211.183 1.24-.548.211-.122.06.03.121.123.696.03.09c0 .03 0 .061.03.091l.092.182c.06.12.091.211.152.332v-.09c0-.091.03-.182.03-.272v-.272l-.03-.091-.091-.575.395-.15.183 1.118c-.03 0-.03 0-.06.03l-.184.06s-.03 0-.03.03a.534.534 0 00-.152.122l-.091.09h.364l.183-.03c.061 0 .092-.03.153-.06l.121-.03-.03-.152-.213-1.33.274-.121.152 1.21.03.18.183-.06.396-.15.06-.031.062-.03.03.363c0 .06 0 .12.03.18l.061.152c0 .03 0 .03.03.06.031.091.092.182.123.273v-.121c0-.09.03-.151.03-.242l.03-.182v-.181l-.06-.574.365-.152.03.424.061.635c-.03 0-.03 0-.06.03l-.153.09s-.03 0-.03.03a.535.535 0 00-.153.122c-.03.03-.06.06-.121.09h.364l.184-.03c.06 0 .09-.03.152-.06l.122-.03v-.121l-.092-.877-.03-.363.182-.06c.03-.03.092-.03.122-.061.03.12.03.272.061.393.03.242.091.514.122.756v-.09c0-.243 0-.454.03-.666v-.514l-.06.03h-.061l-.092.03v-.241c-.06.03-.122.03-.213.06l-.091.03-.122-1.179-.122.03h-.06l-.122.06v-.302l-.396.152-.152-1.3.426-.152.122 1.3.09-.03h.031l.061.06.061-.03.091-.03v.332l.335-.12.092 1.21c.03 0 .03 0 .06-.03h.03l.062-.031h.091v.212l.213-.091v.151l.03.363v.09l.031.152.03.363v.06l.03-.03-.03.03v-.03h-.03l-.365.181.487-.12h.03v-.031l.03-.454v-.241l.031-.363c.091-.091.091-.212.091-.333zm-5.48-9.192l-.304-1.693.578-.272.274 1.723-.548.242zm3.44.847l.578-.242.122 1.814-.456.182c0-.091-.03-.212-.03-.303 0-.181-.062-.332-.092-.514 0-.06-.03-.12-.03-.181-.062-.242-.092-.484-.153-.726l.061-.03zm-.974 6.29v-1.15c-.03-.12-.03-.242-.06-.333l.243-.09.09-.03.062.665.03.211c0 .06.03.152.03.212l.061.302v.06c-.03 0-.06.031-.06.031-.061.03-.092.06-.152.06-.031.03-.061.03-.092.061v-.06l-.152.06zm.274-2.964l.091.937v.03h-.03l-.213.091-.244.09-.183-1.48.518-.212v.06c0 .09-.03.151-.03.242.09.06.09.151.09.242zm.182-.575c0-.03-.03-.06-.03-.09v-.06l-.03-.273h.03c.122-.03.213-.03.335-.06l.213-.03.152 1.602-.456.181-.092-.756c0-.09-.03-.15-.03-.242-.03-.09-.03-.15-.061-.241 0 0 0-.03-.03-.03zm.153-4.535l.152 1.693v.09c-.06.031-.152.031-.213.061-.122.03-.244.06-.365.121v-.363c0-.15-.03-.332-.061-.483l-.092-.847.579-.272zm-.73 1.602l.09.484.03.121.092-.06.64-.363v.09h.03l.091-.03v1.421c.03.152.03.303.061.454-.03 0-.06.03-.06.03l-.183.121c-.061.06-.153.09-.213.151-.03.03-.061.03-.092.06v-.03l-.06-.725c0-.09-.031-.181-.031-.272a.56.56 0 00-.061-.242c-.06-.151-.091-.333-.152-.484v-.03c0 .03 0 .09-.03.12-.031.122-.031.273-.061.424 0 .09-.03.182-.03.272 0 .091 0 .182.03.242l.09.907-.425.182-.152-1.694c.03-.03.06-.03.09-.06l.183-.12c.122-.092.244-.152.335-.243-.06 0-.122.03-.182.03-.092 0-.153.03-.244.03l-.213.061c-.03 0-.06 0-.091.03l-.03-.453c0-.182-.031-.363-.062-.544l-.09-.998c.03 0 .06-.03.09-.06l.213-.122c.092-.06.153-.12.244-.15v.03l.122.967c0 .151 0 .302.03.453zm-.336-3.507l.092.847c0 .09.03.181.03.272.03.09.061.181.061.272 0 .03.03.06.03.09.03.122.092.273.122.394l-.06.03-.062.03h-.09c-.092.03-.184.03-.275.06l-.243.061h-.03L27.7 6.682l.67-.272zm-.852 4.717v-.06l-.152.06c0-.333-.03-.635-.061-.968 0-.181 0-.362-.03-.544-.03-.151-.061-.332-.092-.484l.518-.211.121.907c.03.181.03.363.092.544l.122.484s.03 0 .03-.03l-.06.06c-.123.06-.214.121-.336.181a.233.233 0 01-.152.06zm.03.151v-.09c.153-.03.305-.091.457-.152v.03l.244 1.815-.427.181-.274-1.784zm.092 5.564l-.244-1.361.426-.181.213 1.36-.395.182zm.456-1.935l-.243-1.512.396-.182.213 1.542-.366.151zm.03.302l.366-.151c0 .06.03.15.03.211l.092.424c.06.242.122.483.183.725a1.49 1.49 0 00-.335.121l-.152.06-.183-1.39zm.853 2.751l-.03.03-.366.122-.182-1.24.213-.09c.06-.031.091-.031.152-.061l.091.363c.061.272.122.544.183.846l-.06.03zm.365 1.361l-.152-1.21v-.06l.274-.06h.03v1.028c0 .09 0 .181.031.242l-.183.06zm.457-1.512l.517-.181.122 1.179-.548.212-.06.03v-.06l-.061-.364-.122-.725v-.06h-.122l-.091.03-.244.12v-.09h-.03l-.091.03c0-.302 0-.574-.031-.877 0-.181 0-.363-.03-.514v-.09c.09-.03.152-.03.243-.06.061 0 .122-.031.183-.061v.03l.152 1.3.03.181.183-.03zm-.183-1.935l-.121.03h-.03v-.302l-.031-.212-.061-.574-.03-.303v-.06h.03l.578-.212.03.393.062.635.03.424-.457.181zm.64-2.056l-.153-1.663.457-.181.122 1.663-.426.181zm.182 1.754l-.03-.424-.061-.604-.03-.393.121-.06.274-.122V14l.03.393.031.545.03.453-.365.182zm.579 1.451l-.457.181-.122-1.3.335-.12v.18l.091.394c.061.212.122.423.153.665zm.213 0v-.06l-.153.06c.03-.242.03-.453.03-.695l.031-.393v-.363l.335-.121.03.635v.211c0 .06.031.151.031.212l.06.333v.06c-.06.03-.151.06-.212.121-.091-.03-.122 0-.152 0z" fill="#B2292E"/><path d="M28.248 16.872h-.03v.06l.212 1.24.03.09-.151.061-.244.09-.274.122h-.03v.03l.274 1.39.03.092.304-.121.366-.152.06-.03v-.06l-.273-1.24-.03-.12.09-.031.305-.121.06-.03.062-.03v.12l.152 1.089.03.151v.03h.03l.123-.06.274-.09.03-.031-.122-1.421v-.03.03l.122 1.39v.03h-.03l-.274.092-.061.03-.092.03v-.151l-.121-1.089-.03-.15v-.031h-.031l-.122.09-.304.122-.061.03h-.061v-.09l-.183-1.24v-.061l-.03-.03zm.335 2.751v.06l-.061.031-.244.09-.243.091h-.03l-.031-.241-.152-.938-.03-.12.09-.031.396-.12.091-.031h.031v.12l.183 1.09z" fill="url(#paint3_linear)"/><path d="M28.613 14.876v.121l.213 1.391-.06-.393-.122-.998v-.15.03h-.03z" fill="url(#paint4_linear)"/><path d="M31.535 13.516l.031-.03-.091-1.966v-.12l-.396.18-.244.091-.09.03v-.06l-.153-1.844v-.152l.06-.03h.031l.7-.302.092-.03-.03-.394-.092-1.632v-.091l-.091.03-.914.424h-.03v.03l.183 1.844v.09l-.122.061-.487.212-.091.03v-.09l-.153-1.573v-.03l-.03-.12v-.061h-.03l-.122.06h-.03l-.7.333h-.031v.03l.243 1.844v.121l.061-.03h.03l.579-.242h.03-.03l-.578.242h-.122v-.09l-.183-1.815.7-.302.091-.03h.031v.12l.152 1.724v.06h.061l.609-.241.091-.03v.09l.122 1.814v.09H30.5l-.427.182h-.03l-.06.03v-.09l-.092-.998-.061-.786v-.09l-.091.03-.092.03v.09l.061.696.122 1.119v.15h-.061l-.517.273.517-.212h.03l.03-.03v.03h.031l.061-.03v.12l.122 1.603v.091l-.091.03-.457.212-.091.03v-.09l-.122-1.33-.03-.394v-.03h-.03l-.062.03h-.03l-.183-1.572-.03-.212v-.09l-.396.18-.304.122v-.06l-.274-1.966-.03-.121.06-.03h.03l.548-.272.153-.06.091-.031v-.03l-.06-.424-.184-1.663v-.09l-.09.03-.914.454-.03.03v.03l.273 1.935v.09l-.121.061-.487.212h-.03l-.062.03v-.09l-.274-1.815v-.06l-.06.03-.853.393-.03.03v.03l.335 1.875.03.151v.03l.03-.03.122-.06.518-.242h.06l.061-.03v.12l.305 1.875.03.091v.06l-.091.03h-.03l-.64.273-.091.03.06.393.305 1.542v.091l.092-.03.608-.272.092-.03.03.09.244 1.512v.06l-.122.06-.609.243-.06.03v.06l.304 1.664v.06l.06-.03.548-.212.061-.03v-.121l-.06.03-.427.151-.091.03-.03-.09-.214-1.36v-.091l.061-.03h.03l.457-.182.092-.03v.09l.213 1.36v.122l.06-.03h.061v.12l.092-.03.365-.12h.03v.06l.031.393.122.877v.12l.091-.03.091-.03v-.09l-.121-.847-.061-.514.03-.03.244-.091.182-.06.061-.03v-.212l-.03-.182-.122-1.088-.03-.333v-.06h-.091l-.214.09-.243.091h-.03l-.062.03v-.09l-.213-1.482v-.09l.092-.03.547-.243.03.09v.031l.184 1.482v.09h.03l.03-.03.274-.12.305-.122.091-.03v.09l.03.394.061.484h.061l-.03-.514-.03-.393v-.121l.09-.03.396-.152.092-.03v.151l.03.393.03.544v.152h.122l-.03-.212-.03-.514-.03-.393v-.151l.09-.03.7-.363zm-.974-3.931h-.03v-.09L30.44 7.71l.091-.03.64-.272.09-.03v.09l.031 1.421v.454l-.609.242-.06.03-.062-.03zm-3.652-.423l-.548.211-.061.03-.06.03v-.12l-.275-1.724v-.12l.091-.03.579-.243.091-.03.03.09L27 9.01v.121l-.091.03zm.73-2.42v-.09l.092-.03.639-.272.091-.03v.09l.122 1.512.03.453v.06l-.06.031-.549.242-.06.03h-.03v-.06l-.031.03v-.09l-.244-1.875zm-.274 4.385l-.121-.726-.153-1.149v-.15h.03l.092-.061.487-.212.061-.03v.09l.244 1.966-.488.211-.152.06zm.183 2.147l-.487.181-.091.03v-.09l-.213-1.391-.061-.423v-.03l.548-.212.06-.03.061-.03v.15l.213 1.694v.09l-.03.06zm.183-.182l-.274-1.663v-.12l.121-.061.457-.212.06-.03.275 1.814v.09l-.122.092-.426.181-.091.03v-.12zm.821 1.633v.151l.061-.06v.03h.03l.122-.03.244-.09.091-.031.061-.03v.09l.122 1.452v.03h-.06l-.397.151v.06l-.456.182-.061.03v-.06l-.213-1.36-.03-.122.06-.03.366-.151h.06l.061-.03v-.03l-.091.03h-.03l-.366.15-.06.03h-.031v-.06h-.06v-.09l-.214-1.512v-.09l.091-.031.427-.151.09-.03v.09l.183 1.512zm.366-1.995l-.366.15-.09.03v-.09l-.183-1.723v-.091h.03l.03-.03.274-.121.335-.121h.03l.153 1.935-.213.06zm1.765 1.027l-.395.182-.092.03v-.12l-.182-1.603v-.121l.121-.06.457-.182.06-.03v.09l.153 1.663v.091l-.122.06zm.213-.06v-.09l-.091-1.633v-.06h.091l.274-.122.305-.12h.03l.03 1.844-.273.09-.244.091h-.122z" fill="url(#paint5_linear)"/><path d="M44.959 24.4l1.309.091-5.54 7.801-2.253.03 6.484-7.921z" fill="#2A3114"/><path d="M21.338 17.083l1.583 4.324.761 1.875-.609.151-2.009-6.198.274-.152z" fill="#1D252C"/><path d="M7.366 35.618c13.303-14.24 18.72-14.574 18.72-14.574l.792-1.783s-7.092 1.39-19.725 16.357h.213z" fill="#6E7C7C"/><path d="M26.878 19.26l-.456.998c-1.583.454-5.145 1.905-11.263 6.834 7.58-7.015 11.72-7.831 11.72-7.831z" fill="#D9D8D6"/><path d="M41.154 20.258l-1.583.121-3.652.333-5.875 1.512-1.066-7.771 6.819-1.784 3.44.968.334 4.112 1.583 2.51z" fill="url(#paint6_linear)"/><path opacity=".195" d="M39.572 17.749l-3.075 1.693-.7-6.773 3.44.968.335 3.537v.575z" fill="url(#paint7_linear)"/><path d="M35.797 15.904l-1.005-2.872 1.005-.272.7 6.773-.7-3.629z" fill="#B2E2F4"/><path d="M44.107 16.146l-2.953 4.112-5.357-.393 5.936-3.537 2.374-.182z" fill="url(#paint8_linear)"/><path d="M37.684 19.593l2.649.121-3.927.121 4.11-2.782-2.831 2.54z" fill="#685559"/><path d="M27.517 22.466l-2.83.604-1.036-4.263h3.197l.67 3.659z" fill="url(#paint9_linear)"/><path d="M24.626 19.442v2.026l-.548-2.238 2.77-.423-2.222.635z" fill="#EDD3CC"/><path d="M26.848 18.807H23.65l2.923-1.512.273 1.512z" fill="url(#paint10_linear)"/><path d="M26.756 18.444h-1.491l1.309-1.149.182 1.15z" fill="#9F7353"/><path d="M42.585 28.331l-2.648.242-2.922.242-1.096-8.103-.122-.847 5.358.393 1.43 8.073z" fill="url(#paint11_linear)"/><path d="M38.263 19.956l-17.747 3.87L6.453 35.618c.274 0 25.235-.393 25.235-.393l6.575-15.27z" fill="url(#paint12_linear)"/><path d="M36.07 24.098l.914-3.023-6.331.846 7-1.542-1.582 3.72zm-2.343 4.566l-2.983 5.473-3.866.756 4.414-.06 2.435-6.17z" fill="#E0F2B0"/><path d="M9.862 34.318l10.654-10.492L6.453 35.618c.274 0 6.94-1.149 6.94-1.149l-3.53-.15z" fill="#93D500"/><path d="M38.08 20.137l2.648 12.155-7.945.151 5.297-12.306z" fill="url(#paint13_linear)"/><path d="M36.77 23.07l-1.917 7.862 4.049.816-6.119.695 3.988-9.373z" fill="#2A3114"/><path d="M39.937 28.573l2.648-.242-2.618.393-.03-.15z" fill="#65CDF0"/><path d="M45.02 24.884l-2.435 3.447-1.43-8.073 2.952-4.112.913 8.738z" fill="url(#paint14_linear)"/><path d="M38.598 22.556h3.47l-2.222 2.812-.64-.03-.608-2.782z" fill="#91777C"/><path d="M38.598 22.556h2.13l-1.156.393-.366 2.389-.608-2.782z" fill="#685559"/><path d="M42.067 22.556l.213 7.257-1.552 2.48-.883-6.925 2.222-2.812z" fill="#CCAE9E"/><path d="M39.237 17.083l-.913-2.056-1.918-1.693 2.648.877.183 2.872z" fill="#406D9E"/><path d="M44.594 24.824l-.944-6.712-2.191 2.6 2.404-3.659.73 7.771z" fill="#FFDC9B"/><path d="M41.276 24.25l-.822 1.39.457 4.96-.7-5.11 1.065-1.24zm-2.07 1.088l.64.03.882 6.924-1.522-6.954z" fill="#13141B"/><path d="M29.404 29.813c-1.187 2.842-8.98 5.533-8.98 5.533l-11.17.182s14.336-4.233 16.01-6.38c1.462-1.845-3.896-3.417-3.713-4.566.122-.695 1.065-1.149 1.765-1.36l1.31-.273c-.184.06-3.775 1.27-1.553 2.208 2.496 1.058 7.305 2.298 6.331 4.656z" fill="url(#paint15_linear)"/><path opacity=".49" d="M22.738 23.372l2.04-.453 1.674-.363v.06c-1.948.636-5.936 2.299-12.389 6.653l4.14-3.478a43.463 43.463 0 014.535-2.419z" fill="#101820"/><path d="M38.08 18.716l-.61 1.573-5.752 14.936L38.11 20.47l2.618 11.822-2.648-13.576z" fill="#212322"/><path opacity=".49" d="M33.027 22.707c.06-.181-.487-.272-1.218-.15-.73.09-1.37.332-1.46.513-.062.182.365.242.973.182l-.274.332h.396l.213-.363c.761-.12 1.31-.332 1.37-.514zm-4.231 1.875c.243-.212-.244-.242-1.066-.09-.822.15-1.674.453-1.917.665-.213.18.152.241.822.12l-.548.363.395-.03.548-.423c.792-.151 1.553-.424 1.766-.605zm5.54 3.81c.426-.363-.03-.665-.974-.635-.974 0-2.161.06-2.527.423-.335.303-.03.847.73.877l-.882.605.518.03.821-.605c.914-.09 1.918-.363 2.314-.695z" fill="#101820"/><path d="M31.2 27.787h-.487v1.845h.487v-1.845z" fill="#B97727"/><path d="M31.018 28.06a1.79 1.79 0 001.796-1.785 1.79 1.79 0 00-1.796-1.784 1.79 1.79 0 00-1.796 1.784 1.79 1.79 0 001.796 1.784z" fill="#76BC21"/><path opacity=".53" d="M32.783 26.275c0 .998-.791 1.784-1.796 1.784a1.77 1.77 0 01-1.704-1.27c.304.514 1.217-.725 1.704-.302.883.786 1.614.363 1.614-.635 0-.181-.03-.363-.092-.514.183.272.274.605.274.937z" fill="#564F24"/><path d="M21.794 24.582l-.456-7.499-.366.212.274 7.77s.366-.21.548-.483z" fill="#A2A9AD"/><path d="M21.49 19.442c-.365-.272-.274 1.542-.395 1.633l-.153-3.78.366-.212.182 2.359z" fill="#D9D8D6"/><path d="M29.465 16.146c0-.09-.182-1.27-.182-1.27l5.966-1.935-5.358 2.389-.426.816z" fill="#B2E2F4"/><path opacity=".49" d="M27.03 22.405s.487-.333.761-.514 1.979-1.512 1.979-1.512l.152 1.21 5.327-1.21.183-.726 1.065-.211-.73.423 1.765.272-10.502 2.268z" fill="#101820"/><path d="M31.505 22.012h-.396v1.542h.396v-1.542z" fill="#212322"/><path d="M32.875 20.742a1.49 1.49 0 01-1.492 1.482 1.489 1.489 0 01-1.491-1.482c0-.816.67-1.481 1.491-1.481a1.49 1.49 0 011.492 1.481z" fill="#61A60E"/><path opacity=".53" d="M32.875 20.742a1.49 1.49 0 01-1.491 1.482c-.7 0-1.279-.454-1.462-1.089.274.423 1.4.605 1.614-.06.243-.786 1.156.06 1.156-.756 0-.151-.03-.272-.06-.393.152.242.243.514.243.816z" fill="#564F24"/><path d="M26.482 24.128h-.396v1.543h.396v-1.543z" fill="#8B5E3C"/><path d="M27.822 22.828a1.49 1.49 0 01-1.492 1.482 1.489 1.489 0 01-1.491-1.482c0-.816.67-1.481 1.491-1.481a1.49 1.49 0 011.492 1.481z" fill="#3DAE2B"/><path opacity=".53" d="M27.822 22.828a1.49 1.49 0 01-1.492 1.482c-.7 0-1.278-.454-1.461-1.089.274.424 1.522.212 1.887-.423.73-1.088.852.423.852-.393 0-.151-.03-.272-.06-.393.213.242.274.544.274.816z" fill="#564F24"/><path d="M46.48 25.066l2.436-.182-5.327 4.96 4.414-4.536-1.522-.242z" fill="#fff"/><path d="M41.702 31.476l7.975-6.985-4.718-.09 5.845-.303-9.102 7.378zm-9.984 3.749s-24.96.393-25.234.393l14.063-11.792L7.7 35.074c.244.03 24.017.151 24.017.151z" fill="#212322"/><path d="M24.625 31.93l-1.552.997-1.705.514-2.526.847 1.46-.544.214-.484.7-.272.578-.363 2.831-.696z" fill="#009ABF"/><path d="M20.273 33.29l.852.151 2.74-1.27.122-.393-2.862 1.452-.852.06z" fill="#E3E3E1"/><path d="M23.987 31.778l-3.714 1.512.852.151 2.862-1.663z" fill="#E6D6CB"/><path d="M22.343 32.625l.974-.514-1.157-2.117.183 2.63z" fill="#E4E4E3"/><path d="M21.003 33.23l1.37-.575-.457-3.538-.913 4.113z" fill="#F2F2F1"/><path d="M16.407 13.697a3.6 3.6 0 01-3.622 3.598 3.6 3.6 0 01-3.623-3.598c0-1.844 1.4-3.356 3.196-3.568.153-.03.274-.03.427-.03 2.009-.03 3.622 1.602 3.622 3.598z" fill="url(#paint16_linear)"/><path d="M16.407 13.697a3.6 3.6 0 01-3.622 3.598c-2.01 0 2.435-3.296 2.435-5.291 0-1.452-2.375-1.814-2.862-1.905.153-.03.274-.03.427-.03a3.625 3.625 0 013.622 3.628z" fill="#FFCA66"/><path d="M3.257 44.538v-.998c.183.151.426.303.761.424.335.12.64.181.944.181.487 0 .882-.181.882-.514a.471.471 0 00-.243-.393c-.091-.06-.122-.06-.274-.121l-.152-.06-.365-.122-.335-.12c-.061-.03-.183-.06-.305-.121-.152-.06-.243-.091-.304-.152-.122-.09-.335-.241-.426-.393a1.306 1.306 0 01-.152-.635c0-.393.152-.725.456-.967.305-.242.73-.363 1.279-.363.517 0 1.035.121 1.491.393v.907c-.456-.302-.974-.423-1.491-.423-.518 0-.792.151-.792.453 0 .152.091.242.244.303.091.06.243.09.365.151.122.03.365.09.487.151.426.151.7.272 1.004.484.305.212.457.544.457.968 0 .423-.183.786-.517 1.028-.335.241-.792.393-1.31.393a2.942 2.942 0 01-1.704-.454zm6.423.423l-1.918-4.596h1.035l1.34 3.296 1.339-3.296h1.035l-1.918 4.596H9.68zm4.14-.03v-4.566h.943v4.566h-.944zm2.343-4.566h3.866v.847h-1.461v3.72h-.944v-3.72h-1.46v-.847zm5.205 4.566v-4.566h.944v3.72h2.344v.846h-3.288zm4.841-3.991a2.351 2.351 0 011.704-.695c.67 0 1.248.241 1.705.695.456.454.67 1.028.67 1.693s-.244 1.21-.67 1.693c-.457.454-1.005.696-1.705.696-.67 0-1.248-.242-1.704-.696-.457-.453-.67-1.028-.67-1.693s.213-1.21.67-1.693zm1.704 3.205c.396 0 .73-.151 1.005-.423.274-.272.395-.635.395-1.059 0-.423-.152-.786-.395-1.058a1.384 1.384 0 00-1.005-.423c-.396 0-.76.151-1.004.423-.274.272-.396.635-.396 1.058 0 .424.122.787.396 1.059.274.272.608.423 1.004.423zm6.24.786v-4.566h2.01c.486 0 .882.121 1.156.393.304.242.426.575.426.998 0 .424-.152.756-.426.998s-.67.393-1.157.393h-1.065v1.814h-.944v-.03zm.944-2.63H36.1c.457 0 .73-.212.73-.575s-.273-.575-.73-.575h-1.004v1.15zm3.196 2.63l1.979-4.596h.913l1.978 4.596H42.16l-.457-1.058h-1.948l-.456 1.058h-1.005zm1.735-1.844h1.34l-.67-1.573-.67 1.573zm4.383 1.844v-4.566h2.13c.488 0 .884.121 1.158.393.274.242.426.575.426.968 0 .605-.365 1.089-.944 1.27l1.43 1.965h-1.125l-1.34-1.844h-.791v1.844h-.944v-.03zm.944-2.63h1.126c.426 0 .67-.182.67-.545 0-.332-.244-.544-.67-.544h-1.126V42.3zm4.505 2.63v-4.566h.944v1.815l1.704-1.815h1.157l-1.948 2.087L54 44.932h-1.218l-1.978-2.117v2.116h-.944zM12.785 48.56h-.366c-.152 0-.243-.091-.243-.242a.24.24 0 01.243-.242h1.279c.121 0 .243.06.243.242a.24.24 0 01-.243.241h-.366v1.21c0 .181-.121.302-.274.302-.152 0-.273-.12-.273-.302v-1.21zm1.309-.212c0-.121.122-.242.243-.242h.7c.274 0 .518.181.518.484 0 .181-.091.302-.244.393.244.03.427.212.427.453 0 .393-.274.575-.64.575h-.73c-.122 0-.244-.121-.244-.242v-1.421h-.03zm.517.514h.213c.122 0 .213-.09.213-.212 0-.12-.09-.181-.213-.181h-.213v.393zm0 .816h.335c.152 0 .244-.09.244-.242 0-.12-.092-.211-.274-.211h-.305v.453zm3.196-.605c0 .545-.365.998-.944.998-.578 0-.943-.453-.943-.998 0-.544.396-.997.943-.997.549 0 .944.453.944.997zm-1.37 0c0 .242.122.514.426.514.274 0 .427-.272.427-.514s-.122-.544-.427-.544c-.273 0-.426.302-.426.544zm2.435.998c-.578 0-.944-.453-.944-.998 0-.544.396-.997.944-.997.213 0 .64.09.64.332 0 .121-.092.242-.214.242-.121 0-.243-.09-.426-.09a.403.403 0 00-.396.271h.396c.122 0 .213.061.213.212s-.091.212-.213.212h-.396c.061.181.183.363.427.363.121 0 .334-.121.395-.121.122 0 .213.09.213.242 0 .242-.426.332-.639.332zm2.375-2.479a.304.304 0 01-.304.302c-.153 0-.305-.15-.305-.302 0-.151.152-.272.305-.272.182-.03.304.12.304.272zm-.548.786c0-.181.122-.302.274-.302.152 0 .274.12.274.302v1.39c0 .182-.122.303-.274.303-.152 0-.274-.12-.274-.302v-1.391zm2.587 2.207c-.152 0-.274-.12-.274-.302v-.272h-1.126v.272c0 .181-.122.302-.274.302-.152 0-.274-.12-.274-.302v-.424c0-.18.122-.302.274-.302h.03c.092-.332.122-.726.122-1.179 0-.181.122-.302.274-.302h.944c.152 0 .274.12.274.302v1.18h.03c.152 0 .274.12.274.301v.424c0 .181-.121.302-.274.302zm-.517-2.056h-.457c0 .393-.06.786-.122 1.089h.579v-1.089zm1.339.726c.03.272.244.363.487.363.274 0 .457-.212.609-.212.122 0 .213.12.213.212 0 .211-.457.453-.852.453-.579 0-.974-.423-.974-.998 0-.544.395-.997.943-.997.579 0 .944.514.944.937 0 .151-.061.242-.244.242h-1.126zm.822-.363c-.03-.242-.183-.393-.426-.393-.244 0-.396.181-.426.393h.852zm1.4 1.179c-.426 0-.73-.211-.73-.635 0-.604.7-.665 1.187-.665v-.151c0-.09-.091-.151-.243-.151-.305 0-.366.181-.488.181-.152 0-.243-.12-.243-.212 0-.211.426-.393.73-.393.488 0 .762.212.762.575v1.119c0 .15-.092.272-.244.272-.122 0-.213-.03-.244-.182-.09.182-.334.242-.487.242zm.092-.423c.274 0 .395-.151.395-.393v-.09c-.304 0-.73-.031-.73.271 0 .151.183.212.335.212zm1.674-1.542h.974c.152 0 .274.12.274.302v1.36c0 .182-.122.303-.274.303-.152 0-.274-.12-.274-.302v-1.21h-.456v.545c0 .635-.274.967-.67.967a.24.24 0 01-.244-.242c0-.09.061-.181.152-.211.092-.03.213-.151.213-.454v-.756c.031-.181.153-.302.305-.302zm1.522 1.633v-1.361c0-.181.122-.302.274-.302.152 0 .274.12.274.302v.423h.365c.396 0 .7.182.7.605 0 .393-.274.635-.639.635h-.7c-.152 0-.274-.121-.274-.302zm.548-.152h.335c.121 0 .213-.09.213-.181 0-.09-.092-.181-.213-.181h-.335v.362zm2.739.454c-.152 0-.274-.121-.274-.302v-.514h-.67v.514c0 .181-.121.302-.274.302-.152 0-.274-.121-.274-.302v-1.361c0-.181.122-.302.274-.302.152 0 .274.12.274.302v.423h.67v-.423c0-.181.122-.302.274-.302.152 0 .274.12.274.302v1.39c0 .182-.092.273-.274.273zm1.005-.786c.03.272.243.363.487.363.274 0 .456-.212.608-.212.122 0 .213.12.213.212 0 .211-.456.453-.852.453-.578 0-.974-.423-.974-.998 0-.544.396-.997.944-.997.578 0 .943.514.943.937 0 .151-.06.242-.243.242H33.91zm.821-.363c-.03-.242-.182-.393-.426-.393-.243 0-.395.181-.426.393h.852zm3.836 1.149c-.183 0-.244-.09-.274-.242l-.122-.967-.304.997c-.03.091-.091.182-.274.182-.183 0-.244-.09-.274-.182l-.305-.997-.121.967c-.03.121-.092.242-.274.242a.24.24 0 01-.244-.242v-.06l.274-1.452c.03-.09.152-.242.335-.242.183 0 .304.121.335.212l.304.968.305-.968c.03-.09.152-.212.335-.212.182 0 .304.121.334.242l.274 1.452v.06c-.06.151-.152.242-.304.242zm1.035-2.449a.304.304 0 01-.304.302c-.152 0-.305-.15-.305-.302 0-.151.153-.272.305-.272.182-.03.304.12.304.272zm-.548.786c0-.181.122-.302.274-.302.152 0 .274.12.274.302v1.39c0 .182-.122.303-.274.303-.152 0-.274-.12-.274-.302v-1.391zm2.13.272c-.121 0-.243-.09-.426-.09-.304 0-.456.272-.456.544s.152.514.456.514c.122 0 .335-.121.396-.121.122 0 .213.09.213.242 0 .272-.457.363-.64.363-.577 0-.943-.454-.943-.998s.396-.998.944-.998c.213 0 .639.09.639.333 0 .06-.06.211-.183.211zm.823-.09h-.365c-.153 0-.244-.091-.244-.242a.24.24 0 01.243-.242h1.248c.122 0 .244.06.244.242a.24.24 0 01-.244.241h-.365v1.21c0 .181-.121.302-.274.302-.152 0-.274-.12-.274-.302v-1.21h.03zm3.043.513c0 .545-.365.998-.943.998s-.944-.453-.944-.998c0-.544.396-.997.944-.997.578 0 .944.453.944.997zm-1.339 0c0 .242.122.514.426.514.274 0 .426-.272.426-.514s-.121-.544-.426-.544c-.304 0-.426.302-.426.544z" fill="#101820"/><defs><linearGradient id="paint0_linear" x1="14.95" y1="26.126" x2="50.383" y2="26.126" gradientUnits="userSpaceOnUse"><stop stop-color="#7EC67F"/><stop offset="1" stop-color="#50C4CD"/></linearGradient><linearGradient id="paint1_linear" x1="24.64" y1="13.063" x2="32.69" y2="13.063" gradientUnits="userSpaceOnUse"><stop stop-color="#F26D63"/><stop offset=".272" stop-color="#F26966"/><stop offset=".702" stop-color="#F15F6E"/><stop offset="1" stop-color="#F05674"/></linearGradient><linearGradient id="paint2_linear" x1="31.191" y1="12.471" x2="37.499" y2="12.471" gradientUnits="userSpaceOnUse"><stop stop-color="#CD1543"/><stop offset=".151" stop-color="#C32953"/><stop offset=".441" stop-color="#AF3F71"/><stop offset=".69" stop-color="#9D4B89"/><stop offset=".884" stop-color="#91529A"/><stop offset="1" stop-color="#8D54A2"/></linearGradient><linearGradient id="paint3_linear" x1="27.739" y1="18.465" x2="29.7" y2="18.465" gradientUnits="userSpaceOnUse"><stop stop-color="#CD1543"/><stop offset=".151" stop-color="#C32953"/><stop offset=".441" stop-color="#AF3F71"/><stop offset=".69" stop-color="#9D4B89"/><stop offset=".884" stop-color="#91529A"/><stop offset="1" stop-color="#8D54A2"/></linearGradient><linearGradient id="paint4_linear" x1="28.607" y1="15.626" x2="28.823" y2="15.626" gradientUnits="userSpaceOnUse"><stop stop-color="#CD1543"/><stop offset=".151" stop-color="#C32953"/><stop offset=".441" stop-color="#AF3F71"/><stop offset=".69" stop-color="#9D4B89"/><stop offset=".884" stop-color="#91529A"/><stop offset="1" stop-color="#8D54A2"/></linearGradient><linearGradient id="paint5_linear" x1="25.843" y1="12.091" x2="31.566" y2="12.091" gradientUnits="userSpaceOnUse"><stop stop-color="#CD1543"/><stop offset=".151" stop-color="#C32953"/><stop offset=".441" stop-color="#AF3F71"/><stop offset=".69" stop-color="#9D4B89"/><stop offset=".884" stop-color="#91529A"/><stop offset="1" stop-color="#8D54A2"/></linearGradient><linearGradient id="paint6_linear" x1="28.992" y1="17.457" x2="41.14" y2="17.457" gradientUnits="userSpaceOnUse"><stop stop-color="#50C4CD"/><stop offset="1" stop-color="#1AA2B8"/></linearGradient><linearGradient id="paint7_linear" x1="35.795" y1="16.06" x2="39.565" y2="16.06" gradientUnits="userSpaceOnUse"><stop offset=".03" stop-color="#006FBA"/><stop offset=".053" stop-color="#0070BA"/><stop offset=".154" stop-color="#3A73B9"/><stop offset=".262" stop-color="#6477B9"/><stop offset=".375" stop-color="#7D79B9"/><stop offset=".496" stop-color="#907CB9"/><stop offset=".629" stop-color="#9C7EB9"/><stop offset=".782" stop-color="#A47FB9"/><stop offset="1" stop-color="#A67FB9"/></linearGradient><linearGradient id="paint8_linear" x1="35.795" y1="18.199" x2="44.122" y2="18.199" gradientUnits="userSpaceOnUse"><stop stop-color="#F26D63"/><stop offset="1" stop-color="#F79351"/></linearGradient><linearGradient id="paint9_linear" x1="23.652" y1="20.941" x2="27.52" y2="20.941" gradientUnits="userSpaceOnUse"><stop stop-color="#F26D63"/><stop offset="1" stop-color="#F79351"/></linearGradient><linearGradient id="paint10_linear" x1="23.652" y1="18.047" x2="26.856" y2="18.047" gradientUnits="userSpaceOnUse"><stop stop-color="#F26D63"/><stop offset="1" stop-color="#F79351"/></linearGradient><linearGradient id="paint11_linear" x1="35.795" y1="24.336" x2="42.59" y2="24.336" gradientUnits="userSpaceOnUse"><stop stop-color="#F26B65"/><stop offset=".158" stop-color="#F26868"/><stop offset=".664" stop-color="#F15F6F"/><stop offset="1" stop-color="#F05C71"/></linearGradient><linearGradient id="paint12_linear" x1="23.737" y1="30.635" x2="52.468" y2="17.101" gradientUnits="userSpaceOnUse"><stop stop-color="#7EC67F"/><stop offset="1" stop-color="#50C4CD"/></linearGradient><linearGradient id="paint13_linear" x1="32.796" y1="26.303" x2="40.742" y2="26.303" gradientUnits="userSpaceOnUse"><stop stop-color="#7EC67F"/><stop offset="1" stop-color="#50C4CD"/></linearGradient><linearGradient id="paint14_linear" x1="41.14" y1="22.239" x2="45.023" y2="22.239" gradientUnits="userSpaceOnUse"><stop stop-color="#F26D63"/><stop offset="1" stop-color="#F79351"/></linearGradient><linearGradient id="paint15_linear" x1="9.247" y1="29.234" x2="29.527" y2="29.234" gradientUnits="userSpaceOnUse"><stop stop-color="#50C4CD"/><stop offset="1" stop-color="#1AA2B8"/></linearGradient><linearGradient id="paint16_linear" x1="8.994" y1="16.205" x2="12.695" y2="13.719" gradientUnits="userSpaceOnUse"><stop stop-color="#F26D63"/><stop offset="1" stop-color="#F79351"/></linearGradient></defs></svg>