<svg width="76" height="46" fill="none" xmlns="http://www.w3.org/2000/svg"><path d="M50.558 25.737h-25.77V0h25.737l.033 25.737zM25.115.294V25.41h25.116V.294H25.115z" fill="#0B0A0A"/><path d="M30.773 8.699h13.735V6.017H30.773V8.7zm7.75 11.021h2.91v-6.443h3.108V10.4h-6.018v9.32zm-4.643 0h2.91V10.4h-6.017v2.877h3.107v6.443zM13.637 45.031l.72-2.028h.392l.72 2.028h-.393l-.164-.523h-.72l-.163.523h-.392zm.621-.818h.524l-.197-.556-.065-.294c-.033.131-.033.23-.066.294l-.196.556zm1.897.818v-2.028h.785c.196 0 .36.066.49.197.131.13.197.294.197.49s-.066.36-.197.49a.665.665 0 01-.49.197h-.393v.687l-.392-.033zm.36-1.014h.36a.371.371 0 00.261-.098c.066-.065.098-.13.098-.261a.371.371 0 00-.098-.262.297.297 0 00-.229-.098h-.36l-.032.72zm1.471 1.014l.72-2.028h.392l.72 2.028h-.393l-.163-.523h-.752l-.164.523h-.36zm.622-.818h.523l-.196-.556-.066-.294c-.032.131-.032.23-.065.294l-.196.556zm1.896.818v-2.028h.654c.164 0 .295.033.393.033a.58.58 0 01.262.23.66.66 0 01.098.359.55.55 0 01-.099.327.764.764 0 01-.228.229c.032.032.032.032.065.098l.425.752h-.392l-.393-.752h-.36v.752h-.425zm.36-1.08h.327a.297.297 0 00.23-.097.374.374 0 00.097-.23c0-.13-.033-.228-.163-.294-.033-.032-.131-.032-.23-.032h-.26v.654zm2.322 1.08v-1.7h-.654v-.295h1.7v.294h-.654v1.701h-.392zm1.668 0l.163-2.028h.393l.392 1.014.098.294a1.52 1.52 0 01.098-.294l.393-1.014h.392l.164 2.028h-.393l-.065-1.145v-.294c-.033.13-.066.229-.13.294l-.328.785h-.327l-.327-.785-.13-.294v.294l-.066 1.145h-.327zm2.943 0v-2.028h1.21v.295h-.85v.523h.686v.294h-.686v.556h.915v.295l-1.275.065zm2.06 0v-2.028h.393l.752 1.178c.033.032.033.065.065.13.033.033.033.099.066.131l.032.033c-.032-.13-.032-.229-.032-.294v-1.178h.36v2.028h-.36l-.752-1.177c-.033-.033-.033-.066-.066-.131-.033-.033-.033-.098-.065-.13l-.033-.034c.033.131.033.23.033.295v1.177h-.393zm3.042 0v-1.7h-.654v-.295h1.7v.294h-.654v1.701h-.392zm1.602-.229l.196-.294c.066.032.131.13.23.13a.987.987 0 00.26.066.472.472 0 00.23-.066.25.25 0 00.065-.163c0-.065-.033-.13-.098-.196-.066-.033-.13-.098-.229-.131-.098-.033-.196-.065-.294-.13-.098-.066-.164-.132-.23-.197a.527.527 0 01-.097-.294c0-.164.065-.295.196-.425.13-.131.294-.164.49-.164.23 0 .426.065.59.229l-.164.294a.702.702 0 00-.23-.13c-.065-.033-.163-.033-.228-.033a.476.476 0 00-.23.065c-.032.033-.097.098-.097.164 0 .065.032.13.098.163.065.033.13.098.229.131.098.033.196.065.294.13.098.033.164.132.229.197a.527.527 0 01.098.294c0 .164-.065.295-.196.425-.13.131-.294.164-.49.164-.131 0-.262-.033-.393-.065-.098-.066-.164-.066-.229-.164zm3.172-.785c0-.294.098-.556.294-.752.197-.196.458-.294.753-.294.294 0 .556.098.752.294.196.196.294.458.294.752s-.098.556-.294.752c-.197.23-.458.295-.752.295-.295 0-.556-.098-.753-.295-.196-.229-.294-.457-.294-.752zm.36 0c0 .23.065.393.196.523.13.131.294.23.49.23.197 0 .36-.066.491-.23.13-.13.196-.294.196-.523a.665.665 0 00-.196-.49.665.665 0 00-.49-.197.666.666 0 00-.491.197c-.098.13-.196.294-.196.49zm2.518 1.014v-2.028h.392l.753 1.178c.032.032.032.065.065.13.033.033.033.099.065.131l.033.033c-.033-.13-.033-.229-.033-.294v-1.178h.36v2.028h-.36l-.752-1.177c-.033-.033-.033-.066-.065-.131-.033-.033-.033-.098-.066-.13l-.032-.034c.032.131.032.23.032.295v1.177h-.392zm3.76 0v-2.028h.687c.295 0 .556.099.753.262.196.196.294.425.294.752s-.098.556-.294.752c-.197.197-.426.262-.753.262h-.686zm.328-.294h.294c.229 0 .392-.066.49-.197.131-.13.197-.294.197-.523 0-.229-.066-.392-.197-.523a.665.665 0 00-.49-.196h-.294v1.439zm2.19.294v-2.028h.393v2.028h-.392zm1.276 0v-2.028h.393v1.734h.883v.294h-1.276zm1.766-1.014c0-.294.098-.556.294-.752.197-.196.458-.294.752-.294.295 0 .556.098.753.294.196.196.294.458.294.752s-.098.556-.294.752c-.197.23-.458.295-.753.295-.294 0-.555-.098-.752-.295-.196-.229-.294-.457-.294-.752zm.392 0c0 .23.066.393.197.523.13.131.294.23.49.23s.36-.066.49-.23c.132-.13.197-.294.197-.523a.665.665 0 00-.196-.49.666.666 0 00-.49-.197.665.665 0 00-.491.197.665.665 0 00-.197.49zm2.976 1.014l-.752-2.028h.393l.457 1.341.066.294c.033-.13.033-.228.065-.294l.458-1.34h.393l-.753 2.027h-.327zm1.472 0l.72-2.028h.392l.72 2.028h-.426l-.163-.523h-.72l-.163.523h-.36zm.621-.818h.524l-.197-.556-.065-.294c-.033.131-.033.23-.066.294l-.196.556zm2.78.59l.196-.295c.066.032.131.13.23.13a.987.987 0 00.26.066.472.472 0 00.23-.066.25.25 0 00.065-.163c0-.065-.033-.13-.098-.196-.065-.033-.13-.098-.229-.131a1.16 1.16 0 01-.294-.13c-.098-.034-.164-.132-.23-.197a.527.527 0 01-.097-.294c0-.164.065-.295.196-.425.13-.131.294-.164.49-.164.23 0 .426.065.59.229l-.164.294a.702.702 0 00-.23-.13c-.065-.033-.163-.033-.228-.033a.473.473 0 00-.23.065c-.032.033-.097.098-.097.164 0 .065.032.13.098.163.065.033.13.098.229.131.098.033.196.065.294.13.098.033.164.132.229.197a.527.527 0 01.098.294c0 .164-.065.295-.196.425-.13.131-.294.164-.49.164-.132 0-.262-.033-.393-.065-.066 0-.164-.066-.229-.164zm2.158-.295v-.622h-.196v-.294h.196v-.425h.36v.425h.327v.294h-.327v.556c0 .098.033.164.098.23a.424.424 0 00.196.032h.066v.294h-.261c-.033 0-.099-.032-.164-.032-.033-.033-.131-.033-.131-.099-.033-.032-.066-.098-.13-.163-.034-.033-.034-.098-.034-.196zm1.407.556v-1.44h.36v.36a.712.712 0 01.163-.261c.098-.066.196-.13.294-.13h.066v.359h-.099c-.13 0-.228.032-.294.13a.701.701 0 00-.13.393v.589h-.36zm.948 0v-.36h.36v.36h-.36zM0 31.656h5.952v1.864H4.055v5.232H1.897V33.52H0v-1.864zm7.783 7.096h5.396v-1.864H9.941v-.785h3.173V34.24H9.94v-.72h3.238v-1.863H7.783v7.096zm7.064-5.232h1.897v5.232h2.158V33.52h1.897v-1.864h-5.952v1.864zm12.852 2.714l1.275 2.518h-2.453l-.98-2.224h-.785v2.224H22.63v-7.096h3.793c1.668 0 2.551 1.112 2.551 2.452 0 1.21-.72 1.864-1.275 2.126zm-.916-2.158c0-.393-.327-.556-.72-.556h-1.307v1.112h1.308c.392.032.72-.164.72-.556zm4.153 4.676h2.159v-7.096h-2.159v7.096zm6.246-5.069c0-.196.131-.294.556-.294.654 0 1.472.229 2.093.72l1.145-1.505c-.818-.654-1.864-1.014-3.009-1.014-1.962 0-2.943 1.145-2.943 2.355 0 2.812 3.957 2.126 3.957 2.78 0 .294-.392.392-.785.392-.948 0-1.766-.392-2.289-.916l-1.112 1.603c.752.686 1.766 1.144 3.303 1.144 1.897 0 3.074-.915 3.074-2.485-.065-2.682-3.99-2.126-3.99-2.78zm14.193.458h-2.55v-2.518h-2.159v7.096h2.158v-2.714h2.551v2.714h2.159v-7.096h-2.159v2.518zm8.928-2.485l2.616 7.096h-2.453l-.261-.817h-2.551l-.262.817H54.94l2.616-7.096h2.747zm-.621 4.382l-.72-2.29-.72 2.29h1.44zm6.834-4.382h-2.158v7.096h4.84v-1.864h-2.714l.032-5.232zm6.802 5.232v-5.232H71.16v7.096H76v-1.864h-2.682z" fill="#0B0A0A"/></svg>