<svg width="60" height="41" fill="none" xmlns="http://www.w3.org/2000/svg"><path d="M23.55 21.687c-1.335 0-2.447.526-3.198 1.301-.139.166-.417.056-.417-.166V8.835c0-.138.111-.249.25-.249h1.835c.14 0 .25.11.25.25V14.9c0 2.936 1.446 4.32 4.533 4.32h1.946c.139 0 .25-.11.25-.249V16.59a.249.249 0 00-.25-.249h-1.613c-1.056 0-1.557-.61-1.557-1.773V8.835c0-.138.111-.249.25-.249h3.087c.139 0 .25.11.25.25v5.206c0 3.407 1.696 5.512 4.699 5.512 1.529 0 2.78-.692 3.475-1.662.028-.055.111-.028.111.028v1.052c0 .139.111.25.25.25h2.837c.139 0 .25-.111.25-.25V5.955a.249.249 0 00-.25-.25h-2.836c-.14 0-.25.111-.25.25V14.9c0 .028 0 .083-.029.11-.472 1.025-1.473 1.69-2.502 1.69-1.751 0-2.447-1.08-2.447-3.13V5.983a.249.249 0 00-.25-.25h-6.422c-.14 0-.25-.11-.25-.249V2.133a.249.249 0 00-.25-.25H22.52c-.14 0-.25.111-.25.25v3.351a.25.25 0 01-.25.25h-5.2c-.139 0-.25.11-.25.248v8.947c0 .027 0 .083-.028.11-.473 1.025-1.473 1.69-2.502 1.69-1.752 0-2.447-1.08-2.447-3.13V5.982a.249.249 0 00-.25-.249H5.477a.249.249 0 01-.25-.249v-.139c0-1.634.306-2.492 2.252-2.492h.64c.139 0 .25-.111.25-.25V.25a.249.249 0 00-.25-.25h-.807C3.31 0 1.891 1.496 1.891 5.345v.139a.25.25 0 01-.25.25H.25c-.14 0-.251.11-.251.248v2.382c0 .139.111.25.25.25h1.39c.14 0 .25.11.25.249v10.11a.25.25 0 00.25.249h2.837c.139 0 .25-.111.25-.25V8.835c0-.138.111-.249.25-.249H8.09c.139 0 .25.11.25.25v5.206c0 3.407 1.696 5.512 4.699 5.512 1.334 0 2.447-.526 3.197-1.302.14-.166.417-.055.417.166v16.868c0 .138.111.249.25.249h2.837c.139 0 .25-.11.25-.25V26.34c0-.028 0-.084.027-.111.473-1.025 1.474-1.69 2.503-1.69 1.752 0 2.447 1.08 2.447 3.13v7.589c0 .139.11.25.25.25h2.836c.139 0 .25-.111.25-.25V27.17c-.056-3.379-1.78-5.483-4.754-5.483z" fill="#070707"/><path d="M34.699 21.687c-2.558 0-4.504 1.329-5.505 3.35-.056.14 0 .306.167.333l2.558.665a.265.265 0 00.277-.11c.445-.887 1.307-1.358 2.364-1.358 1.418 0 2.28.803 2.28 2.52v.139a.25.25 0 01-.25.25h-2.058c-4.254 0-5.894 1.966-5.894 4.154v.36c0 2.243 1.807 3.877 4.532 3.877 1.557 0 2.78-.581 3.53-1.55.028-.056.112-.028.112.055v.941c0 .139.111.25.25.25h2.836c.14 0 .25-.111.25-.25V26.95c0-3.074-1.974-5.262-5.45-5.262zm2.113 9.804c0 .056 0 .083-.028.111-.5.886-1.668 1.468-2.891 1.468-1.363 0-1.919-.61-1.919-1.413v-.166c0-.914.779-1.468 1.974-1.468h2.642a.25.25 0 01.25.25l-.028 1.218z" fill="#070707"/><path d="M54.523 21.687c-2.558 0-4.505 1.329-5.505 3.35-.056.14 0 .306.166.333l2.558.665a.265.265 0 00.278-.11c.445-.887 1.307-1.358 2.364-1.358 1.418 0 2.28.803 2.28 2.52v.139a.25.25 0 01-.25.25h-2.058c-4.254 0-5.895 1.966-5.895 4.154v.36c0 .138 0 .277.028.443.028.138-.083.277-.25.277h-1.418c-1.056 0-1.557-.61-1.557-1.773v-5.816a.25.25 0 01.25-.25h2.697c.14 0 .25-.11.25-.249v-2.381a.249.249 0 00-.25-.25h-2.697a.249.249 0 01-.25-.249V10.165a.25.25 0 01.083-.194c2.503-2.133 4.7-.886 5.394-.388.112.083.278.055.362-.083.472-.83 1.307-1.274 2.307-1.274 1.419 0 2.28.803 2.28 2.52v.139c0 .138-.11.25-.25.25h-2.057c-4.254 0-5.895 1.966-5.895 4.154v.36c0 2.243 1.808 3.877 4.532 3.877 1.557 0 2.78-.581 3.531-1.55.028-.056.112-.028.112.055v.941c0 .139.11.25.25.25h2.836c.139 0 .25-.111.25-.25v-8.364c0-3.02-1.974-5.207-5.45-5.207-.89 0-1.696.166-2.446.443a.178.178 0 01-.167 0c-.5-.194-3.28-1.025-5.505 1.136-.084.083-.222.027-.222-.084v-.941a.249.249 0 00-.25-.25h-2.837a.249.249 0 00-.25.25V21.77a.249.249 0 01-.25.249h-1.39c-.14 0-.25.11-.25.25v2.381c0 .139.11.25.25.25h1.39c.139 0 .25.11.25.249v6.065c0 2.936 1.446 4.321 4.532 4.321h1.946c.14 0 .25-.11.25-.25v-1.744c0-.083.112-.083.14-.028.639 1.413 2.168 2.327 4.198 2.327 1.557 0 2.78-.582 3.53-1.551.029-.056.112-.028.112.055v.942c0 .138.111.249.25.249h2.892c.139 0 .25-.11.25-.25v-8.364c0-3.046-1.974-5.234-5.45-5.234zm1.167-6.482c0 .056 0 .084-.027.111-.5.887-1.669 1.468-2.892 1.468-1.362 0-1.918-.61-1.918-1.412v-.166c0-.915.778-1.468 1.974-1.468h2.641c.139 0 .25.11.25.249v1.219h-.028zm.946 16.286c0 .056 0 .083-.028.111-.5.886-1.668 1.468-2.892 1.468-1.362 0-1.918-.61-1.918-1.413v-.166c0-.914.778-1.468 1.974-1.468h2.641c.14 0 .25.111.25.25v1.218h-.027z" fill="#070707"/><path d="M16.599 37.502c.25-.028.556-.055.89-.055.583 0 1.028.138 1.306.387.278.25.445.637.445 1.136 0 .526-.167.942-.473 1.246-.305.305-.806.471-1.418.471-.305 0-.528-.028-.75-.028v-3.157zm.417 2.825c.11.028.25.028.417.028.89 0 1.362-.499 1.362-1.357 0-.748-.417-1.219-1.307-1.219-.222 0-.389.028-.472.055v2.493zm5.784-1.191h-1.252v1.163h1.39v.332h-1.807v-3.185h1.724v.332h-1.307v.998h1.251v.36zm2.807 1.495l-1.056-3.185h.444l.5 1.579c.14.443.251.83.334 1.19.084-.36.223-.775.362-1.19l.556-1.579h.445l-1.14 3.185h-.445zm4.977-1.495h-1.251v1.163h1.39v.332h-1.807v-3.185h1.723v.332h-1.306v.998h1.25v.36zm2.057-1.69h.417v2.853h1.362v.332h-1.779v-3.185zm6.173 1.579c0 1.108-.668 1.69-1.502 1.69s-1.445-.666-1.445-1.607c0-1.025.639-1.69 1.5-1.69.89-.027 1.447.637 1.447 1.607zm-2.475.028c0 .692.362 1.301 1.029 1.301.667 0 1.029-.61 1.029-1.33 0-.636-.334-1.301-1.03-1.301-.694 0-1.028.637-1.028 1.33zm4.393-1.579a5.77 5.77 0 01.806-.056c.418 0 .696.084.89.277.167.139.278.388.278.665s-.083.526-.25.693c-.222.221-.584.36-.973.36-.111 0-.25 0-.334-.028v1.274h-.417v-3.185zm.417 1.55c.084.029.195.029.334.029.5 0 .806-.25.806-.693 0-.415-.306-.637-.75-.637-.167 0-.306.028-.39.028v1.274zm6.145.222c-.028-.443-.056-.97-.056-1.385h-.028c-.111.388-.25.776-.417 1.22l-.556 1.55h-.306l-.528-1.523c-.14-.443-.278-.859-.362-1.246 0 .387-.027.941-.055 1.412l-.084 1.357h-.389l.223-3.185h.528l.556 1.551c.139.388.25.748.334 1.08h.027c.084-.332.195-.664.334-1.08l.584-1.551h.528l.195 3.185h-.417l-.111-1.385zm4.143-.11h-1.252v1.163h1.39v.332h-1.807v-3.185h1.724v.332h-1.307v.998h1.252v.36zm2.057 1.495v-3.185h.445l1.029 1.607c.25.387.416.72.583 1.024-.027-.415-.055-.803-.055-1.301v-1.33h.389v3.185h-.417l-1.029-1.606c-.222-.36-.445-.72-.611-1.053H53.8c.028.416.028.776.028 1.33v1.357l-.334-.028zm5.116-2.825h-.973v-.36H60v.36h-.973v2.853h-.417v-2.853z" fill="#1D1E21"/></svg>