<svg width="111" height="20" fill="none" xmlns="http://www.w3.org/2000/svg"><g clip-path="url(#clip0)"><path d="M41.045 13.06c.02.402-.065.802-.247 1.162-.181.36-.453.67-.79.898-.688.48-1.684.72-2.99.72-.971 0-1.742-.16-2.313-.483a2.608 2.608 0 01-1.2-1.516l1.23-.462c.15.44.454.814.858 1.053a3.146 3.146 0 001.558.33c.798 0 1.4-.134 1.807-.399a1.294 1.294 0 00.619-1.165 1.041 1.041 0 00-.427-.851c-.284-.223-.885-.483-1.807-.76a7.76 7.76 0 01-1.606-.668 2.504 2.504 0 01-.817-.769 1.841 1.841 0 01-.276-1.034 2.064 2.064 0 01.237-1.046c.17-.322.422-.595.732-.793.646-.43 1.557-.644 2.733-.644 1.973 0 3.082.7 3.327 2.099l-1.355.204a1.482 1.482 0 00-.693-.938 2.802 2.802 0 00-1.371-.287c-.55-.032-1.1.08-1.593.325-.17.086-.312.218-.41.38a1.002 1.002 0 00-.145.536.967.967 0 00.174.584c.136.176.308.32.505.425.494.226 1.004.411 1.527.556.56.156 1.097.38 1.6.667.335.203.622.475.84.798.202.324.304.699.293 1.079zm59.423 3.276c0 .954-.358 1.678-1.073 2.17s-1.759.74-3.13.742c-1.121 0-2.004-.195-2.65-.584a2.935 2.935 0 01-1.313-1.81l2.099-.296a1.397 1.397 0 00.644.89c.43.206.908.3 1.386.27.479.03.957-.07 1.383-.286a.927.927 0 00.354-.351.909.909 0 00.118-.48.728.728 0 00-.346-.654c-.226-.152-.74-.31-1.527-.474-1.106-.249-1.888-.59-2.344-1.02a2.224 2.224 0 01-.678-1.69 2.26 2.26 0 01.253-1.145c.184-.354.458-.654.795-.872.7-.467 1.7-.7 2.998-.698 1.147 0 2.002.193 2.565.578.564.385.912.982 1.046 1.79l-2.098.24a1.274 1.274 0 00-.551-.823 2.105 2.105 0 00-1.13-.255c-1.143 0-1.714.329-1.714.987a.643.643 0 00.167.444c.134.138.297.245.477.314.486.167.983.302 1.488.402 1.015.227 1.731.548 2.148.963a2.231 2.231 0 01.633 1.648zm8.998 0c0 .954-.358 1.678-1.075 2.17-.716.492-1.761.74-3.135.742-1.12 0-2.003-.195-2.649-.584a2.938 2.938 0 01-1.313-1.81l2.099-.296a1.426 1.426 0 00.644.89c.43.206.908.3 1.386.27.48.03.958-.07 1.385-.286a.933.933 0 00.359-.35.91.91 0 00.122-.484.735.735 0 00-.348-.654c-.23-.148-.738-.306-1.524-.473-1.11-.248-1.892-.59-2.345-1.025a2.255 2.255 0 01-.678-1.69 2.27 2.27 0 011.051-2.017c.698-.467 1.698-.698 2.995-.698 1.15 0 2.006.193 2.566.578.56.386.908.982 1.045 1.79l-2.098.24a1.272 1.272 0 00-.551-.823 2.097 2.097 0 00-1.129-.255c-1.143 0-1.715.329-1.715.987a.647.647 0 00.167.445c.135.136.297.243.477.313.486.167.984.302 1.489.403 1.013.226 1.729.547 2.148.963a2.237 2.237 0 01.627 1.654zm-62.279-.667l-2.239-4.132-1.405 1.021-.6 3.113h-1.498L43.853 3.46h1.504l-1.495 7.546 1.705-1.556 3.016-2.668h1.856l-4.43 3.81 2.809 5.077h-1.631zm2.997 3.497a5.012 5.012 0 01-1.104-.115l.26-1.112c.212.04.427.061.643.064a2.08 2.08 0 001.4-.524 6.03 6.03 0 001.19-1.532l.227-.387-1.807-8.803h1.529l.937 4.92c.085.445.16.913.226 1.404.075.495.113.818.118.967a6.78 6.78 0 01.225-.445c.098-.175 1.356-2.459 3.788-6.846h1.663l-5.231 8.894a15.15 15.15 0 01-1.493 2.223 4.086 4.086 0 01-1.18.954c-.428.224-.906.34-1.39.338zm11.759-7.422l-1.454 7.338h-2.34l1.454-7.338h-1.328l.31-1.556h1.32l.184-.93c.167-.849.514-1.457 1.04-1.825.528-.368 1.27-.551 2.228-.551.436.003.87.05 1.296.14l-.3 1.49a8.146 8.146 0 00-.361-.052 4.02 4.02 0 00-.452-.03 1.084 1.084 0 00-.81.261 1.604 1.604 0 00-.36.799l-.133.698h1.78l-.31 1.556h-1.764zm1.19 7.34l1.755-8.905h2.35l-1.762 8.905h-2.343z" fill="#29282D"/><path d="M65.198 8.576l.343-1.703h2.35l-.344 1.703h-2.35z" fill="#E41D24"/><path d="M70.646 19.215c-.691 0-1.227-.16-1.606-.482a1.686 1.686 0 01-.567-1.37c.005-.434.05-.866.133-1.292l.852-4.327h-1.245l.31-1.556h1.355L71.023 8.1h1.482l-.4 2.088h1.687l-.291 1.556h-1.72l-.857 4.4a3.985 3.985 0 00-.09.734.732.732 0 00.196.563.732.732 0 00.53.187c.304-.014.606-.05.904-.11l-.266 1.5a5.514 5.514 0 01-1.552.197zm8.554-.131l.987-4.892c.112-.446.188-.9.226-1.358 0-.707-.425-1.06-1.27-1.06a2.25 2.25 0 00-1.565.666 2.953 2.953 0 00-.904 1.655l-.987 4.987h-2.362l1.387-7.004c.088-.431.195-1.065.318-1.901h2.238c0 .05-.027.28-.079.691-.052.412-.092.69-.122.832h.028c.36-.517.832-.95 1.382-1.268a3.579 3.579 0 011.734-.41c.848 0 1.486.2 1.914.6.429.4.643.98.643 1.736a5.325 5.325 0 01-.058.654c-.039.3-.077.531-.115.696l-1.055 5.376H79.2zm6.796-3.918a4.086 4.086 0 00-.059.732c-.03.475.107.946.389 1.334a1.408 1.408 0 001.15.465c.82 0 1.413-.464 1.78-1.392l2.048.609c-.419.873-.937 1.48-1.554 1.819-.617.34-1.428.51-2.433.511-1.188 0-2.115-.317-2.782-.952-.667-.634-1.002-1.518-1.005-2.652a6.933 6.933 0 01.603-2.984 4.468 4.468 0 011.71-1.961 4.777 4.777 0 012.56-.69c1.166 0 2.065.297 2.695.89.631.593.948 1.425.95 2.497a8.649 8.649 0 01-.2 1.779l-5.852-.005zm3.878-1.538l.025-.46c0-.588-.138-1.017-.413-1.284a1.478 1.478 0 00-1.082-.404 1.85 1.85 0 00-1.355.547 3.195 3.195 0 00-.782 1.6h3.607zm-13.981-4.91a.943.943 0 01-.314-.74 1.497 1.497 0 01.19-.754 1.37 1.37 0 01.53-.527c.234-.128.498-.194.766-.189a1.43 1.43 0 01.596.113.878.878 0 01.387.347l-.204.116a.862.862 0 00-.792-.365 1.24 1.24 0 00-.63.16 1.17 1.17 0 00-.437.445 1.271 1.271 0 00-.16.638.765.765 0 00.244.607c.195.157.442.236.693.223.166 0 .33-.031.484-.094.144-.059.272-.15.375-.264l.174.13a1.09 1.09 0 01-.452.323 1.542 1.542 0 01-.603.116 1.24 1.24 0 01-.847-.285zm4.705-2.192h.248l-.237 1.112h1.76l.237-1.112h.248l-.52 2.446h-.248l.242-1.125h-1.76l-.237 1.125h-.248l.515-2.446zm5.866 0l-.515 2.446h-.226l.1-.478a1.331 1.331 0 01-.47.366 1.458 1.458 0 01-.622.132 1.157 1.157 0 01-.81-.276.956.956 0 01-.306-.743c-.005-.263.06-.522.188-.753.121-.22.303-.403.524-.527.228-.128.487-.194.75-.19.233-.01.463.048.664.165a.82.82 0 01.359.465l.129-.612.235.005zM85.39 8.625c.183-.106.333-.26.433-.445a1.28 1.28 0 00.159-.64.764.764 0 00-.24-.605.977.977 0 00-.677-.222 1.17 1.17 0 00-1.055.605 1.28 1.28 0 00-.16.635.772.772 0 00.241.607.99.99 0 00.678.223 1.21 1.21 0 00.62-.158zm5.166-2.099l-.521 2.446h-.226l.438-2.08-1.48 1.78h-.12l-.76-1.78-.452 2.08h-.226l.515-2.446h.244l.772 1.854 1.582-1.854h.234zm1.27 0h.246l-.452 2.103 2.26-2.103h.243l-.522 2.446h-.253l.452-2.108-2.277 2.108h-.226l.529-2.446zm7.09 0l-.522 2.446h-.246l.47-2.244h-1.356l-.174.667c-.079.315-.18.624-.3.925a1.58 1.58 0 01-.318.516.547.547 0 01-.398.169.806.806 0 01-.226-.033l.059-.203c.04.01.08.016.12.02a.426.426 0 00.316-.15c.114-.137.202-.292.26-.459.101-.267.186-.54.255-.818l.226-.836h1.834zm.996 1.276v.156a.773.773 0 00.242.613c.202.16.457.239.716.223a1.41 1.41 0 00.501-.087c.143-.059.272-.147.377-.258l.113.165a1.156 1.156 0 01-.445.28 1.663 1.663 0 01-.578.1 1.273 1.273 0 01-.865-.274.953.953 0 01-.316-.756 1.52 1.52 0 01.183-.744c.117-.22.295-.404.512-.53a1.37 1.37 0 01.719-.184 1.14 1.14 0 01.797.273.974.974 0 01.296.752 1.454 1.454 0 01-.029.271h-2.223zm.429-.845a1.167 1.167 0 00-.4.667h1.995v-.122a.728.728 0 00-.237-.58.938.938 0 00-.635-.21 1.12 1.12 0 00-.723.245zm4.856-.22h-1.522l-.474 2.24h-.249l.515-2.447h1.775l-.045.207zm1.588.996l.868 1.243h-.283l-.783-1.136h-.64l-.239 1.136h-.246l.519-2.446h.249l-.24 1.112h.621l1.216-1.112h.291l-1.333 1.203zm1.898.985a.948.948 0 01-.312-.74 1.48 1.48 0 01.192-.752c.125-.22.309-.403.533-.527.232-.13.496-.196.763-.19.304-.017.602.081.836.273a.957.957 0 01.309.744c.004.264-.061.523-.189.754-.125.219-.308.4-.529.525a1.536 1.536 0 01-.763.191 1.203 1.203 0 01-.84-.278zm1.477-.093c.183-.106.333-.26.433-.445a1.27 1.27 0 00.158-.64.767.767 0 00-.239-.605.977.977 0 00-.678-.222 1.213 1.213 0 00-.621.16 1.15 1.15 0 00-.433.444 1.288 1.288 0 00-.161.636.786.786 0 00.251.616.985.985 0 00.678.223c.215 0 .427-.058.612-.167z" fill="#29282D"/><path d="M21.665 4.378l-1.617-.21a8.957 8.957 0 00-.092-1.545c0-.06-.037-.117-.098-.124l-1.535-.2v-.236a.22.22 0 00-.045-.158.226.226 0 00-.143-.084l-.474-.062a.228.228 0 00-.161.045.222.222 0 00-.085.141 26.519 26.519 0 00-.366 1.835l-5.688-.738-.192-.243-.508-.222-.14-.02-.583.2-.022.096-5.26-.683c.06-.525.114-1.399.128-1.866a.22.22 0 00-.046-.158.227.227 0 00-.144-.084L4.122 0a.228.228 0 00-.16.044.222.222 0 00-.086.14 6.4 6.4 0 01-.057.223L2.283.222c-.06 0-.097.04-.124.096-.207.472-.374.96-.497 1.46L.275 1.604a.245.245 0 00-.244.116.235.235 0 00-.025.183.239.239 0 00.115.147.244.244 0 00.091.03l1.387.178c-.01.483.026.966.106 1.443 0 .057.034.115.097.122l1.609.209v.113c.013.118.067.223.187.243l.431.055a.23.23 0 00.232-.104.22.22 0 00.03-.082c.095-.392.226-1.09.303-1.61l5.195.667-.013.062-.032.222-.117.296-.787 1.265-.207.967-.188.917.12.48.056.845.43 1.205.262.291.225.222.55.988.196.295.226 1.668.25 1.272.07.444a.67.67 0 010 .178l-.128.963-.027.202-.341.903a.609.609 0 01-.136.21l-.138.137-.043.445 4.88 1.01v-.668a1.093 1.093 0 01-.028-.342l.045-.667.048-.599c.004-.06.004-.121 0-.182l-.03-.418.086-.258.115-.547.389-.838.289-.7.034-.096.264-.87.047-.113.152.35c.02.048.047.093.081.133l.271.356a.8.8 0 00.066.064l.262.222-.326 1.183a.874.874 0 00-.029.187l-.063 1.058-.452 1.134-.465.263a.192.192 0 00-.09.118l-.204.72.246.165 1.078.033.203-.463a.47.47 0 00.038-.146l.05-.392.718-1.445a.765.765 0 00.05-.125l.312-1.111c.034-.12.05-.245.047-.37v-.528a.68.68 0 01.014-.136l.059-.28a.238.238 0 000-.131l-.195-.823a1.233 1.233 0 00-.142-.414l-.389-.785a.55.55 0 00-.088-.164l-.614-.794a.736.736 0 00-.452-.26l-.14-.024-.366-.06a.594.594 0 00-.354.05l-.17.08a.23.23 0 01-.137.018l-.26-.055-.362-.038v-.487c0-.02.039-.118.041-.138a1.38 1.38 0 01.077-.2c.079-.071.117-.082.167-.169.018-.033.142-.307.142-.307.073-.03.14-.07.201-.12.07-.138.107-.29.109-.444a.637.637 0 00-.08-.138 3.59 3.59 0 00.104-.445.914.914 0 00-.02-.247 1.139 1.139 0 00-.081-.164.483.483 0 00.02-.154c-.038-.11-.339-.333-.339-.333a.839.839 0 00-.435-.223l-.484-.088a.688.688 0 00-.574.155l-.31.27a.515.515 0 00-.168.255l-.043.191a.3.3 0 000 .045l-.055.43a.733.733 0 00-.137.134c-.05.15-.065.31-.043.467 0 .04.113.12.113.12a1.177 1.177 0 000 .327c.02.05.043.1.07.147v.287a.333.333 0 01-.034.16l-.188.409-.998-.149a.264.264 0 01-.19-.127l-.045-.082a1.013 1.013 0 00-.483-.436l-.276-.118a.247.247 0 01-.158-.249 1.58 1.58 0 00-.282-1.158l-.274-.376a.341.341 0 01-.043-.327l.152-.393a.835.835 0 00.052-.223l.076-.767c.017-.167.06-.33.127-.484l.522-1.197.452-.017.225-.192 5.58.725c-.057.523-.118 1.23-.132 1.632a.22.22 0 00.046.159.227.227 0 00.144.084l.43.055c.119.016.2-.073.245-.184.014-.032.025-.072.039-.107l1.61.209c.061 0 .098-.04.125-.096.203-.439.365-.895.483-1.363l1.617.21a.247.247 0 00.175-.052.24.24 0 00-.112-.425v-.006z" fill="#E41D24"/><path d="M7.905 18.29c-2.484-1.198-4.065-3.57-3.84-5.72.226-2.08.988-4.621 4.204-6.789a8.439 8.439 0 00-2.423 2.98 8.304 8.304 0 00-.836 3.728c-.005 1.741 1.249 3.297 3.377 4.41 2.229 1.14 5.165 1.622 8.262 1.353 3.76-.324 7.275-1.454 9.111-3.528 7.398-8.352-3.001-9.935-3.001-9.935 4.023.545 5.976 2.044 6.08 5.635.061 2.15-3.031 8.671-12.256 9.527a17.36 17.36 0 01-8.678-1.66z" fill="#29282D"/></g><defs><clipPath id="clip0"><path fill="#fff" d="M0 0h111v20H0z"/></clipPath></defs></svg>