<svg width="75" height="51" fill="none" xmlns="http://www.w3.org/2000/svg"><path d="M36.059 16.57l-2.92 2.616 3.489-2.239-.57-.377zm1.265 0l-.696-.367.872-13.587-.176 13.954zm1.048.416L49.71 24.42l-10.648-7.85-.689.417z" fill="#211D1E"/><path d="M34.884 15.178l.76.532 1.292-14.535c.007-.05.043-.09.093-.082.035.008.063.041.063.09l.086 15.387 2.066-1.36-1.981-14.1-.22-.238-.227.246-1.932 14.06zm.091.52l.92.493-11.892 7.824c-.05.015-.057.082-.025.112.033.03.082.03.106 0L37.5 17.275l-.024 2.503-13.392 4.566-.537.075.358-.486 11.07-8.235zm5.153 0l-.953.524 12.022 8.754c.033.016.05.048.033.08-.017.04-.092.057-.116.025L37.5 17.377l.017 2.69 13.538 5.224.398-.081-.099-.34-11.226-9.172z" fill="#211D1E"/><path fill-rule="evenodd" clip-rule="evenodd" d="M37.5.342c-8.967 0-16.237 7.46-16.237 16.664 0 9.203 7.27 16.664 16.237 16.664 8.967 0 16.237-7.461 16.237-16.664C53.737 7.803 46.467.342 37.5.342zM20.93 17.006C20.93 7.614 28.35 0 37.5 0s16.57 7.614 16.57 17.006-7.42 17.006-16.57 17.006c-9.151 0-16.57-7.614-16.57-17.006zM37.5 1.619c-8.278 0-14.992 6.89-14.992 15.387 0 8.496 6.714 15.378 14.992 15.378s14.992-6.882 14.992-15.378S45.778 1.619 37.5 1.619zM22.175 17.006c0-8.685 6.863-15.728 15.325-15.728S52.825 8.32 52.825 17.006c0 8.684-6.863 15.72-15.325 15.72s-15.325-7.035-15.325-15.72z" fill="#211D1E"/><path fill-rule="evenodd" clip-rule="evenodd" d="M37.202.968c-9.056 0-16.326 7.054-16.173 16.384.21 9.085 6.91 16.5 16.14 16.564 9.057 0 16.804-7.37 16.804-16.44C53.642 9.204 46.553.991 37.202.967zm-16.27 16.386C20.779 7.968 28.095.872 37.203.872c9.41.024 16.535 8.285 16.868 16.6v.002c0 9.128-7.794 16.538-16.9 16.538h-.001c-9.289-.065-16.025-7.527-16.236-16.658zM37.21 1.404c-8.965 0-15.662 7.004-15.662 15.917v.004c-.79 8.32 6.437 16.074 15.711 16.074 8.958 0 16.221-7.223 16.222-16.126-.113-9.006-7.47-15.434-16.271-15.87zM21.45 17.319c0-8.963 6.739-16.011 15.759-16.011h.002c8.844.436 16.25 6.9 16.364 15.964 0 8.958-7.307 16.223-16.318 16.223-9.325 0-16.602-7.797-15.807-16.176z" fill="#211D1E"/><path d="M4.57 50.296h.171l2.788-7.698.12 6.885v.126c0 .511-.247.679-1.083.712v.26c.81-.075 1.091-.1 1.518-.1.418 0 .707.025 1.509.1v-.26c-.904-.058-1.066-.176-1.074-.838l-.145-6.507v-.118c0-.52.204-.662 1.074-.72v-.252c-.443.025-.64.042-.92.042-.316 0-.538-.017-1.144-.067L4.87 48.736 2.396 41.86c-.443.05-.7.068-1.125.068-.29 0-.495-.017-.938-.042v.251c.878.059 1.083.193 1.083.738v.1l-.333 6.508c-.043.646-.196.78-1.083.839v.26c.7-.05.964-.076 1.296-.076.324 0 .58.025 1.288.075v-.26c-.896-.058-1.083-.192-1.083-.737v-.101l.315-6.885 2.755 7.698z" fill="#211D1E"/><path fill-rule="evenodd" clip-rule="evenodd" d="M12.843 50.196c-1.108 0-1.627-.914-1.627-2.855h3.602v-.105c0-1.756-.752-2.76-2.091-2.76-1.402 0-2.262 1.18-2.262 3.113 0 1.925.852 2.992 2.355 2.992 1.146 0 1.897-.754 2.006-2.045h-.465c-.14 1.09-.659 1.66-1.518 1.66zm-1.603-3.305c.162-1.363.673-2.101 1.471-2.101.837 0 1.301.706 1.379 2.101h-2.85z" fill="#211D1E"/><path d="M15.857 44.935c.54.024.595.073.609.595v4.207c0 .498-.132.595-.768.635v.21a7.962 7.962 0 011.093-.073c.333 0 .547.008 1.1.072v-.209c-.636-.04-.767-.136-.767-.635v-2.494c0-1.327.373-2.211.955-2.211.2 0 .339.136.339.313v.073l-.035.129c0 .032-.007.056-.007.096 0 .233.166.418.395.418.256 0 .415-.233.415-.579 0-.547-.374-.933-.886-.933-.567 0-1.038.434-1.218 1.142l-.007-.137c-.014-.386-.028-.498-.055-.892l-.021-.185a5.69 5.69 0 01-1.28.281v.177h.138zm8.188-.458l-.316.606c-.382-.362-.706-.496-1.229-.496-1.453 0-2.442 1.229-2.442 3.056 0 1.757.964 2.938 2.417 2.938 1.096 0 1.794-.716 1.944-1.992h-.515c-.166 1.102-.598 1.614-1.396 1.614-1.021 0-1.536-.866-1.536-2.56 0-1.733.59-2.749 1.578-2.749.739 0 1.229.489 1.462 1.481h.257v-1.898h-.224z" fill="#211D1E"/><path fill-rule="evenodd" clip-rule="evenodd" d="M28.059 50.196c-.886 0-1.295-.914-1.295-2.855h2.875v-.105c0-1.756-.601-2.76-1.673-2.76-1.115 0-1.803 1.18-1.803 3.113 0 1.925.675 2.992 1.877 2.992.924 0 1.524-.754 1.611-2.045h-.378c-.111 1.09-.52 1.66-1.214 1.66zm-1.277-3.305c.124-1.363.533-2.101 1.178-2.101.669 0 1.04.706 1.096 2.101h-2.274zm9.744 3.219l-.164-.017c-.523-.008-.601-.14-.601-.869v-7.363a9.44 9.44 0 01-1.609.297v.174c.773.017.86.075.86.687v2.465c-.391-.81-.805-1.15-1.492-1.15-1.258 0-2.125 1.283-2.125 3.145 0 1.837.883 3.102 2.148 3.102.687 0 1.18-.355 1.515-1.108.023.455.063.695.133 1.108.414-.14.593-.182 1.226-.273l.21-.025v-.173h-.1zm-2.897.124c-.906 0-1.43-.993-1.43-2.755 0-1.829.477-2.78 1.39-2.78.93 0 1.43 1.017 1.43 2.87 0 1.722-.492 2.665-1.39 2.665zm6.249-.038c-1.116 0-1.627-.914-1.627-2.855h3.594v-.105c0-1.756-.751-2.76-2.091-2.76-1.394 0-2.254 1.18-2.254 3.113 0 1.925.844 2.992 2.347 2.992 1.154 0 1.905-.754 2.014-2.045h-.465c-.147 1.09-.659 1.66-1.518 1.66zm-1.603-3.305c.154-1.363.666-2.101 1.471-2.101.837 0 1.301.706 1.37 2.101h-2.841z" fill="#211D1E"/><path d="M42.92 50.581l.258-.492c.395.318.818.469 1.306.469 1.005 0 1.737-.724 1.737-1.733 0-.732-.28-1.105-1.134-1.479l-.495-.222c-.998-.445-1.199-.636-1.199-1.169 0-.612.48-1.089 1.091-1.089.696 0 1.07.477 1.17 1.463h.208v-1.852h-.187l-.143.437c-.388-.247-.696-.358-1.098-.358-.94 0-1.594.676-1.594 1.63 0 .731.244 1.057 1.077 1.438l.531.247c1.04.477 1.199.636 1.199 1.176 0 .66-.524 1.177-1.22 1.177-.812 0-1.25-.501-1.472-1.63h-.222l.007 1.987h.18zm4.173-3.488h3.488v-.872h-3.488v.872z" fill="#211D1E"/><path fill-rule="evenodd" clip-rule="evenodd" d="M56.336 43.977c0-.652-.222-1.236-.608-1.617-.364-.356-.793-.5-1.494-.5h-2.78v.263c.8.085.907.186.907.855v6.486c0 .686-.107.77-.908.863v.254h2.71c.843 0 1.265-.135 1.708-.516.493-.44.815-1.21.815-1.981 0-.695-.257-1.338-.686-1.728-.243-.22-.408-.296-.837-.415.758-.372 1.173-1.05 1.173-1.964zm-3.239-1.744h1.03c.972 0 1.408.542 1.408 1.77 0 .592-.129 1.05-.393 1.388-.265.339-.565.44-1.223.44h-.822v-3.598zm1.151 3.971c.594 0 .951.127 1.216.44.264.314.428.872.428 1.49 0 1.304-.621 2.075-1.644 2.075h-.407c-.643 0-.744-.085-.744-.72v-3.285h1.151zm6.56 3.992c-1.115 0-1.627-.914-1.627-2.855h3.594v-.105c0-1.756-.751-2.76-2.091-2.76-1.394 0-2.254 1.18-2.254 3.113 0 1.925.844 2.992 2.355 2.992 1.146 0 1.897-.754 2.006-2.045h-.465c-.147 1.09-.658 1.66-1.518 1.66zm-1.603-3.305c.155-1.363.674-2.101 1.471-2.101.837 0 1.301.706 1.371 2.101h-2.842zm4.657-1.871c.432.016.532.04.623.112.067.048.091.16.1.447v4.163c0 .496-.15.592-.922.632v.207a11.55 11.55 0 011.32-.072c.4 0 .657.008 1.321.072v-.207c-.764-.04-.922-.136-.922-.632V46.81c0-1.087.515-1.662 1.445-1.662.872 0 1.221.455 1.221 1.598v2.996c0 .496-.158.608-.938.632v.207c.656-.064.913-.072 1.32-.072.416 0 .665.008 1.337.072v-.207c-.772-.04-.921-.136-.921-.632v-3.004c0-.471-.05-.831-.183-1.127-.258-.59-.922-.998-1.67-.998-.697 0-1.229.311-1.677.95v-.16c-.025-.479-.034-.63-.083-.926-.507.192-.906.271-1.545.375v.168h.174zm10.666 5.561l.343-1.758h-.24c-.398 1.13-.805 1.457-1.73 1.457h-1.923L75 44.477h-4.595l-.296 1.59h.24l.102-.217c.38-.88.657-1.072 1.48-1.072h1.84l-4.004 5.803h4.761z" fill="#211D1E"/></svg>