<svg width="80" height="62" viewBox="0 0 80 62" fill="none" xmlns="http://www.w3.org/2000/svg">
<mask id="mask0" mask-type="alpha" maskUnits="userSpaceOnUse" x="0" y="0" width="80" height="62">
<path d="M58.8139 43.1412L47.2359 44.7329L47.8371 46.2441C48.5196 47.9585 48.7382 49.7533 48.544 51.4693C48.089 55.4749 45.4882 58.9109 41.7515 60.3977C36.2347 62.5996 29.8161 59.894 27.5898 54.313L24.9817 47.7798L12.3475 49.5112C12.315 49.5997 12.2825 49.6891 12.25 49.7793C11.9331 50.5178 11.2425 51.2247 10.4706 51.4693L8.68315 52.1835C7.09066 52.8172 5.28693 52.0372 4.64506 50.4537L0.225109 39.5736C-0.41676 37.9892 0.363232 36.1774 1.93947 35.5274C1.97197 35.5111 2.00447 35.5038 2.02884 35.4957L3.81632 34.7799C4.46631 34.5199 5.14881 34.4955 5.77443 34.6661L44.3515 6.91955L43.8559 5.68456C43.1417 3.88896 44.0184 1.85773 45.814 1.14273L48.0484 0.248994C49.8448 -0.465998 51.876 0.411492 52.5902 2.2071L58.0428 15.857C59.2616 16.1495 60.3909 16.6694 61.3488 17.4088C62.4701 18.2619 63.363 19.3994 63.9074 20.7725C64.4526 22.1375 64.5907 23.5756 64.3632 24.965C64.1682 26.1675 63.7132 27.3212 63.0307 28.3693L68.0763 41.0036C68.7913 42.7992 67.9138 44.8304 66.1182 45.5454L63.8838 46.4391C62.0882 47.1549 60.057 46.2775 59.342 44.4818L58.7976 43.125L58.8139 43.1412ZM44.7578 45.0742L27.468 47.4466L29.8567 53.4266C31.5792 57.749 36.5841 59.8534 40.8659 58.1471C43.7592 56.9934 45.7823 54.3049 46.1309 51.2011C46.2844 49.8605 46.1138 48.4622 45.5865 47.1387L44.7578 45.0742ZM12.1606 47.0973L57.8876 40.8167L48.3002 16.8076C48.0475 16.182 48.3571 15.467 48.9827 15.2151C49.6083 14.9632 50.3233 15.272 50.5752 15.9057L61.6332 43.5946C61.8445 44.1227 62.4693 44.3908 62.9982 44.1804L65.2326 43.2867C65.7607 43.0754 66.0288 42.4498 65.8176 41.9217L50.3242 3.12521C50.1121 2.59709 49.4865 2.32897 48.9584 2.54022L46.724 3.43396C46.1967 3.64521 45.9286 4.27083 46.139 4.79895L48.535 10.8033C48.7877 11.4289 48.479 12.1439 47.8526 12.3957C47.2269 12.6476 46.5128 12.3389 46.2609 11.7133L45.2851 9.26765L7.74066 36.2667C7.78128 36.348 7.8219 36.4382 7.86253 36.5267L12.1606 47.0973ZM4.71819 37.0549C4.09257 37.3067 3.47507 37.5505 2.85758 37.8024C2.52446 37.9405 2.33759 38.3386 2.48383 38.6717L2.50821 38.7359L6.90379 49.5502C7.04191 49.8914 7.44003 50.071 7.7894 49.9329C8.41502 49.6802 9.03252 49.438 9.65001 49.1854C9.98313 49.0472 10.1619 48.6491 10.0238 48.316L5.6038 37.4367C5.46568 37.0947 5.06756 36.9086 4.71819 37.0549ZM68.6856 26.655C68.0194 26.5818 67.5319 25.9887 67.605 25.3144C67.6782 24.6481 68.2713 24.1606 68.9456 24.2337L78.5412 25.2575C79.2066 25.3306 79.6949 25.9237 79.6218 26.5981C79.5478 27.2643 78.9555 27.7518 78.282 27.6787L68.6856 26.655ZM64.6394 14.4513C64.2096 14.9632 63.4378 15.0282 62.9259 14.5976C62.4132 14.167 62.3482 13.3951 62.7796 12.8832L69.3031 5.21332C69.7338 4.70145 70.5056 4.63645 71.0167 5.06707C71.5294 5.49769 71.5944 6.26956 71.1637 6.78143L64.6394 14.4513ZM68.5231 19.8544C67.8967 20.0982 67.1907 19.7975 66.9469 19.1719C66.704 18.5463 67.0038 17.8394 67.6294 17.5957L76.4287 14.0857C77.0551 13.842 77.762 14.1426 78.0049 14.7682C78.2479 15.3938 77.9489 16.1007 77.3224 16.3445L68.5231 19.8544ZM59.277 18.9607L61.812 25.3144C61.8762 25.0787 61.933 24.8431 61.9745 24.6075C62.128 23.6325 62.0395 22.6331 61.6568 21.6906C61.283 20.7482 60.6574 19.96 59.8782 19.3669C59.6832 19.2207 59.4882 19.0825 59.277 18.9607Z" fill="#25404F"/>
</mask>
<g mask="url(#mask0)">
<path d="M58.8139 43.1412L47.2359 44.7329L47.8371 46.2441C48.5196 47.9585 48.7382 49.7533 48.544 51.4693C48.089 55.4749 45.4882 58.9109 41.7515 60.3977C36.2347 62.5996 29.8161 59.894 27.5898 54.313L24.9817 47.7798L12.3475 49.5112C12.315 49.5997 12.2825 49.6891 12.25 49.7793C11.9331 50.5178 11.2425 51.2247 10.4706 51.4693L8.68315 52.1835C7.09066 52.8172 5.28693 52.0372 4.64506 50.4537L0.225109 39.5736C-0.41676 37.9892 0.363232 36.1774 1.93947 35.5274C1.97197 35.5111 2.00447 35.5038 2.02884 35.4957L3.81632 34.7799C4.46631 34.5199 5.14881 34.4955 5.77443 34.6661L44.3515 6.91955L43.8559 5.68456C43.1417 3.88896 44.0184 1.85773 45.814 1.14273L48.0484 0.248994C49.8448 -0.465998 51.876 0.411492 52.5902 2.2071L58.0428 15.857C59.2616 16.1495 60.3909 16.6694 61.3488 17.4088C62.4701 18.2619 63.363 19.3994 63.9074 20.7725C64.4526 22.1375 64.5907 23.5756 64.3632 24.965C64.1682 26.1675 63.7132 27.3212 63.0307 28.3693L68.0763 41.0036C68.7913 42.7992 67.9138 44.8304 66.1182 45.5454L63.8838 46.4391C62.0882 47.1549 60.057 46.2775 59.342 44.4818L58.7976 43.125L58.8139 43.1412ZM44.7578 45.0742L27.468 47.4466L29.8567 53.4266C31.5792 57.749 36.5841 59.8534 40.8659 58.1471C43.7592 56.9934 45.7823 54.3049 46.1309 51.2011C46.2844 49.8605 46.1138 48.4622 45.5865 47.1387L44.7578 45.0742ZM12.1606 47.0973L57.8876 40.8167L48.3002 16.8076C48.0475 16.182 48.3571 15.467 48.9827 15.2151C49.6083 14.9632 50.3233 15.272 50.5752 15.9057L61.6332 43.5946C61.8445 44.1227 62.4693 44.3908 62.9982 44.1804L65.2326 43.2867C65.7607 43.0754 66.0288 42.4498 65.8176 41.9217L50.3242 3.12521C50.1121 2.59709 49.4865 2.32897 48.9584 2.54022L46.724 3.43396C46.1967 3.64521 45.9286 4.27083 46.139 4.79895L48.535 10.8033C48.7877 11.4289 48.479 12.1439 47.8526 12.3957C47.2269 12.6476 46.5128 12.3389 46.2609 11.7133L45.2851 9.26765L7.74066 36.2667C7.78128 36.348 7.8219 36.4382 7.86253 36.5267L12.1606 47.0973ZM4.71819 37.0549C4.09257 37.3067 3.47507 37.5505 2.85758 37.8024C2.52446 37.9405 2.33759 38.3386 2.48383 38.6717L2.50821 38.7359L6.90379 49.5502C7.04191 49.8914 7.44003 50.071 7.7894 49.9329C8.41502 49.6802 9.03252 49.438 9.65001 49.1854C9.98313 49.0472 10.1619 48.6491 10.0238 48.316L5.6038 37.4367C5.46568 37.0947 5.06756 36.9086 4.71819 37.0549ZM68.6856 26.655C68.0194 26.5818 67.5319 25.9887 67.605 25.3144C67.6782 24.6481 68.2713 24.1606 68.9456 24.2337L78.5412 25.2575C79.2066 25.3306 79.6949 25.9237 79.6218 26.5981C79.5478 27.2643 78.9555 27.7518 78.282 27.6787L68.6856 26.655ZM64.6394 14.4513C64.2096 14.9632 63.4378 15.0282 62.9259 14.5976C62.4132 14.167 62.3482 13.3951 62.7796 12.8832L69.3031 5.21332C69.7338 4.70145 70.5056 4.63645 71.0167 5.06707C71.5294 5.49769 71.5944 6.26956 71.1637 6.78143L64.6394 14.4513ZM68.5231 19.8544C67.8967 20.0982 67.1907 19.7975 66.9469 19.1719C66.704 18.5463 67.0038 17.8394 67.6294 17.5957L76.4287 14.0857C77.0551 13.842 77.762 14.1426 78.0049 14.7682C78.2479 15.3938 77.9489 16.1007 77.3224 16.3445L68.5231 19.8544ZM59.277 18.9607L61.812 25.3144C61.8762 25.0787 61.933 24.8431 61.9745 24.6075C62.128 23.6325 62.0395 22.6331 61.6568 21.6906C61.283 20.7482 60.6574 19.96 59.8782 19.3669C59.6832 19.2207 59.4882 19.0825 59.277 18.9607Z" fill="#25404F"/>
<path d="M60.5 14.5L65.5 16.5L77.5 6L85 10V35C79.6667 35.1667 68.4 34.1 66 28.5C67.2 21.3 62.8333 16.1667 60.5 14.5Z" fill="#E63739"/>
</g>
</svg>
