<svg width="61" height="67" viewBox="0 0 61 67" fill="none" xmlns="http://www.w3.org/2000/svg">
<mask id="mask0" mask-type="alpha" maskUnits="userSpaceOnUse" x="0" y="0" width="61" height="67">
<path d="M21.6008 0C19.4986 0 17.7879 1.71071 17.7879 3.81288V5.08385H15.7921C11.2014 5.08385 7.39505 8.52903 6.94005 13.0969L3.38036 48.6838C3.12871 51.18 3.95654 53.6793 5.6393 55.54C6.14006 56.0942 6.71965 56.5483 7.33226 56.955L2.91368 61.3785H2.90872L0.371756 63.9204C-0.123919 64.4161 -0.123919 65.222 0.371756 65.7177C0.615781 65.9668 0.940035 66.09 1.2654 66.09C1.59077 66.09 1.9149 65.9642 2.16401 65.7177L4.33358 63.5481H56.6615L58.831 65.7177C59.0776 65.9642 59.4043 66.09 59.7296 66.09C60.055 66.09 60.3791 65.9642 60.6282 65.7177C61.1239 65.2194 61.1239 64.4186 60.6282 63.9204L58.0913 61.3785H58.0863L53.6677 56.955C54.2803 56.5483 54.8599 56.0942 55.3607 55.54C57.0435 53.6793 57.8688 51.18 57.6196 48.6838L54.06 13.0969C53.5999 8.52903 49.7937 5.08385 45.2029 5.08385H43.2071V3.81288C43.2071 1.71071 41.4964 0 39.3942 0H21.6008ZM21.6008 2.54192H39.3942C40.0933 2.54192 40.6652 3.11131 40.6652 3.81288V5.08385H20.3298V3.81288C20.3298 3.11131 20.9018 2.54192 21.6008 2.54192ZM15.7921 7.62577H17.7879H43.2071H45.2029C48.482 7.62577 51.2001 10.0888 51.528 13.3501L55.0827 48.937C55.2581 50.7189 54.6715 52.5028 53.4692 53.8322C52.4321 54.9786 51.0101 55.6675 49.4875 55.8429L49.2144 50.8385H51.4684C51.8344 50.8385 52.1801 50.6785 52.4216 50.4065C52.6631 50.1346 52.7752 49.7696 52.7294 49.4086L52.0939 44.3248C52.0151 43.6893 51.4735 43.2127 50.8329 43.2127H48.7974L47.3179 16.314C47.2111 14.2932 45.5359 12.7096 43.51 12.7096H17.4851C15.4591 12.7096 13.7839 14.2932 13.6771 16.314L12.1977 43.2127H10.1621C9.52157 43.2127 8.9799 43.6893 8.9011 44.3248L8.26562 49.4086C8.21986 49.7696 8.33195 50.1346 8.57343 50.4065C8.81491 50.6785 9.16061 50.8385 9.52665 50.8385H11.7806L11.5076 55.8478C9.98749 55.6699 8.56056 54.976 7.52092 53.8322C6.31859 52.5053 5.732 50.7189 5.90739 48.937L9.46708 13.3501C9.79244 10.0888 12.513 7.62577 15.7921 7.62577ZM17.4851 15.2515H18.0461C18.0461 15.2617 18.0411 15.2687 18.0411 15.2764L18.4581 35.1947C18.8953 38.3162 21.599 40.6708 24.7484 40.6708H36.2417C39.3911 40.6708 42.0995 38.3147 42.5468 35.0458L42.9539 15.2764C42.9539 15.2662 42.949 15.2592 42.949 15.2515H43.51C44.1861 15.2515 44.7428 15.7794 44.7809 16.453L46.2505 43.2127H41.9362C41.2346 43.2127 40.6652 43.7821 40.6652 44.4837V49.5675C40.6652 50.2691 41.2346 50.8385 41.9362 50.8385H46.6675L46.9505 55.9223H14.0445L14.3275 50.8385H19.0589C19.7604 50.8385 20.3298 50.2691 20.3298 49.5675V44.4837C20.3298 43.7821 19.7604 43.2127 19.0589 43.2127H14.7445L16.2141 16.453C16.2548 15.7819 16.8089 15.2515 17.4851 15.2515ZM20.583 15.2515H40.412L40.0198 34.8422C39.758 36.7131 38.1353 38.1288 36.2466 38.1288H24.7534C22.8647 38.1288 21.2392 36.717 20.9901 34.9961L20.583 15.2515ZM11.2842 45.7546H17.7879V48.2965H10.9664L11.2842 45.7546ZM43.2071 45.7546H47.5959H47.6654H49.7109L50.0286 48.2965H43.2071V45.7546ZM51.2003 58.077C51.2028 58.0821 51.2027 58.0893 51.2053 58.0919L54.1195 61.0062H6.87551L9.78978 58.0919C9.79486 58.0868 9.7922 58.0845 9.79475 58.082C10.5878 58.3082 11.3987 58.4642 12.2324 58.4642H12.7041H48.291H48.7626C49.5989 58.4642 50.4098 58.3058 51.2003 58.077Z" fill="#25404F"/>
</mask>
<g mask="url(#mask0)">
<path d="M21.6008 0C19.4986 0 17.7879 1.71071 17.7879 3.81288V5.08385H15.7921C11.2014 5.08385 7.39505 8.52903 6.94005 13.0969L3.38036 48.6838C3.12871 51.18 3.95654 53.6793 5.6393 55.54C6.14006 56.0942 6.71965 56.5483 7.33226 56.955L2.91368 61.3785H2.90872L0.371756 63.9204C-0.123919 64.4161 -0.123919 65.222 0.371756 65.7177C0.615781 65.9668 0.940035 66.09 1.2654 66.09C1.59077 66.09 1.9149 65.9642 2.16401 65.7177L4.33358 63.5481H56.6615L58.831 65.7177C59.0776 65.9642 59.4043 66.09 59.7296 66.09C60.055 66.09 60.3791 65.9642 60.6282 65.7177C61.1239 65.2194 61.1239 64.4186 60.6282 63.9204L58.0913 61.3785H58.0863L53.6677 56.955C54.2803 56.5483 54.8599 56.0942 55.3607 55.54C57.0435 53.6793 57.8688 51.18 57.6196 48.6838L54.06 13.0969C53.5999 8.52903 49.7937 5.08385 45.2029 5.08385H43.2071V3.81288C43.2071 1.71071 41.4964 0 39.3942 0H21.6008ZM21.6008 2.54192H39.3942C40.0933 2.54192 40.6652 3.11131 40.6652 3.81288V5.08385H20.3298V3.81288C20.3298 3.11131 20.9018 2.54192 21.6008 2.54192ZM15.7921 7.62577H17.7879H43.2071H45.2029C48.482 7.62577 51.2001 10.0888 51.528 13.3501L55.0827 48.937C55.2581 50.7189 54.6715 52.5028 53.4692 53.8322C52.4321 54.9786 51.0101 55.6675 49.4875 55.8429L49.2144 50.8385H51.4684C51.8344 50.8385 52.1801 50.6785 52.4216 50.4065C52.6631 50.1346 52.7752 49.7696 52.7294 49.4086L52.0939 44.3248C52.0151 43.6893 51.4735 43.2127 50.8329 43.2127H48.7974L47.3179 16.314C47.2111 14.2932 45.5359 12.7096 43.51 12.7096H17.4851C15.4591 12.7096 13.7839 14.2932 13.6771 16.314L12.1977 43.2127H10.1621C9.52157 43.2127 8.9799 43.6893 8.9011 44.3248L8.26562 49.4086C8.21986 49.7696 8.33195 50.1346 8.57343 50.4065C8.81491 50.6785 9.16061 50.8385 9.52665 50.8385H11.7806L11.5076 55.8478C9.98749 55.6699 8.56056 54.976 7.52092 53.8322C6.31859 52.5053 5.732 50.7189 5.90739 48.937L9.46708 13.3501C9.79244 10.0888 12.513 7.62577 15.7921 7.62577ZM17.4851 15.2515H18.0461C18.0461 15.2617 18.0411 15.2687 18.0411 15.2764L18.4581 35.1947C18.8953 38.3162 21.599 40.6708 24.7484 40.6708H36.2417C39.3911 40.6708 42.0995 38.3147 42.5468 35.0458L42.9539 15.2764C42.9539 15.2662 42.949 15.2592 42.949 15.2515H43.51C44.1861 15.2515 44.7428 15.7794 44.7809 16.453L46.2505 43.2127H41.9362C41.2346 43.2127 40.6652 43.7821 40.6652 44.4837V49.5675C40.6652 50.2691 41.2346 50.8385 41.9362 50.8385H46.6675L46.9505 55.9223H14.0445L14.3275 50.8385H19.0589C19.7604 50.8385 20.3298 50.2691 20.3298 49.5675V44.4837C20.3298 43.7821 19.7604 43.2127 19.0589 43.2127H14.7445L16.2141 16.453C16.2548 15.7819 16.8089 15.2515 17.4851 15.2515ZM20.583 15.2515H40.412L40.0198 34.8422C39.758 36.7131 38.1353 38.1288 36.2466 38.1288H24.7534C22.8647 38.1288 21.2392 36.717 20.9901 34.9961L20.583 15.2515ZM11.2842 45.7546H17.7879V48.2965H10.9664L11.2842 45.7546ZM43.2071 45.7546H47.5959H47.6654H49.7109L50.0286 48.2965H43.2071V45.7546ZM51.2003 58.077C51.2028 58.0821 51.2027 58.0893 51.2053 58.0919L54.1195 61.0062H6.87551L9.78978 58.0919C9.79486 58.0868 9.7922 58.0845 9.79475 58.082C10.5878 58.3082 11.3987 58.4642 12.2324 58.4642H12.7041H48.291H48.7626C49.5989 58.4642 50.4098 58.3058 51.2003 58.077Z" fill="#25404F"/>
<rect x="18" y="-1" width="25" height="9" fill="#E63739"/>
</g>
</svg>
