<svg width="57" height="44" fill="none" xmlns="http://www.w3.org/2000/svg"><path d="M56.54 17.518c0 9.675-7.828 17.518-17.484 17.518-9.657 0-17.485-7.843-17.485-17.518S29.399 0 39.056 0C48.712 0 56.54 7.843 56.54 17.518z" fill="#F79F1A"/><path d="M34.97 17.518c0 9.675-7.828 17.518-17.485 17.518S0 27.193 0 17.518 7.829 0 17.485 0C27.142 0 34.97 7.843 34.97 17.518z" fill="#EA001B"/><path d="M28.27 3.727a17.495 17.495 0 00-6.698 13.79 17.503 17.503 0 006.699 13.792 17.503 17.503 0 006.698-13.793 17.495 17.495 0 00-6.698-13.789z" fill="#FF5F01"/><path d="M55.474 26.813v-.518h.21v-.106h-.533v.106h.21v.518h.113zm1.034 0v-.625h-.163l-.188.43-.188-.43h-.163v.625h.116v-.471l.176.406h.12l.175-.408v.473h.115z" fill="#F79F1A"/><path d="M3.89 43.702h-.993v-4.63h.973v.564s.854-.69 1.362-.68c.986.016 1.575.855 1.575.855s.478-.856 1.557-.856c1.595 0 1.829 1.46 1.829 1.46v3.268h-.954v-2.88s.004-.875-1.03-.875c-1.07 0-1.168.876-1.168.876v2.879h-.992v-2.899s-.096-.914-.992-.914c-1.165 0-1.187.934-1.187.934l.02 2.898zm30.173-4.747c-.508-.009-1.362.68-1.362.68v-.562h-.974v4.629h.993l-.019-2.899s.022-.932 1.187-.932a.98.98 0 01.517.133v-.003l.323-.902a1.78 1.78 0 00-.665-.144zm13.977 0c-.507-.009-1.362.68-1.362.68v-.562h-.973v4.629h.993l-.02-2.899s.023-.932 1.187-.932a.98.98 0 01.518.133v-.003l.323-.902a1.781 1.781 0 00-.666-.144zm-34.45.925c.799 0 1.446.693 1.446 1.547 0 .855-.647 1.545-1.445 1.545s-1.442-.69-1.442-1.545c0-.854.644-1.548 1.442-1.548zm-.19-.944c-1.484 0-2.27 1.334-2.274 2.45-.004 1.142.895 2.46 2.317 2.46.83 0 1.51-.612 1.51-.612l-.001.472h.976V39.07h-.98v.584s-.64-.72-1.547-.72zm28.674.944c.798 0 1.445.693 1.445 1.547 0 .855-.647 1.545-1.445 1.545s-1.442-.69-1.442-1.545c0-.854.644-1.548 1.442-1.548zm-.19-.944c-1.485 0-2.271 1.334-2.275 2.45-.004 1.142.894 2.46 2.316 2.46.83 0 1.511-.612 1.511-.612l-.001.472h.976V39.07h-.98v.584s-.64-.72-1.547-.72zm9.566.944c.798 0 1.446.693 1.446 1.547 0 .855-.648 1.545-1.445 1.545-.798 0-1.442-.69-1.442-1.545 0-.854.644-1.548 1.442-1.548zm-.19-.944c-1.484 0-2.27 1.334-2.274 2.45-.004 1.142.894 2.46 2.316 2.46.83 0 1.511-.612 1.511-.612l-.002.472h.977V37.24h-.98v2.414s-.64-.72-1.547-.72zm-32.352 4.922c-1.011 0-1.945-.622-1.945-.622l.428-.662s.884.409 1.517.409c.412 0 1.101-.133 1.11-.545.008-.435-1.158-.564-1.158-.564s-1.741-.024-1.741-1.46c0-.902.87-1.478 1.984-1.478.644 0 1.848.564 1.848.564l-.486.759s-.93-.372-1.42-.39c-.415-.014-.915.184-.915.545 0 .982 2.9-.076 2.9 1.907 0 1.301-1.181 1.537-2.122 1.537m3.732-6.128v1.346h-.863v.974h.864v2.328s-.077 1.575 1.616 1.575c.468 0 1.385-.346 1.385-.346l-.392-1.012s-.364.31-.776.3c-.782-.02-.76-.52-.76-.52V40.05h1.612v-.974h-1.613V37.73h-1.072zm5.733 2.172c.037-.002.078 0 .118 0 1.191 0 1.183 1.126 1.183 1.126h-2.408s-.057-1.06 1.107-1.126zm.144-.909c-1.592 0-2.387 1.312-2.381 2.45.007 1.17.724 2.488 2.476 2.488.75 0 1.804-.659 1.804-.659l-.453-.787s-.719.51-1.35.51c-1.265 0-1.347-1.236-1.347-1.236h3.385s.253-2.766-2.134-2.766zm10.07 3.48l.454.908s-.72.468-1.527.468c-1.672 0-2.6-1.259-2.6-2.45 0-1.87 1.477-2.42 2.476-2.42.907 0 1.692.522 1.692.522l-.509.908s-.309-.481-1.21-.481-1.376.776-1.376 1.513c0 .826.553 1.527 1.39 1.527.656 0 1.21-.495 1.21-.495zm17.276.923c.025 0 .044.005.058.015a.05.05 0 01.022.042.05.05 0 01-.022.044.102.102 0 01-.058.015h-.107v-.116h.107zm0-.08h-.2v.432h.093v-.162h.043l.131.163h.111l-.142-.164a.174.174 0 00.102-.043.119.119 0 00.037-.089.125.125 0 00-.046-.1.2.2 0 00-.128-.038zm-.027.581a.364.364 0 01-.259-.62.364.364 0 01.514.514.357.357 0 01-.255.106zm0-.83a.481.481 0 00-.34.137.46.46 0 000 .658.48.48 0 00.676 0 .462.462 0 000-.658.477.477 0 00-.336-.137z" fill="#000"/></svg>