<svg width="127" height="23" fill="none" xmlns="http://www.w3.org/2000/svg"><g clip-path="url(#clip0)"><path d="M106.773 1.707a4.566 4.566 0 001.385 3.019c1.184 1.165 3.203 1.468 3.203 1.468s-.282-2.023-1.462-3.186a4.597 4.597 0 00-3.126-1.298" fill="#6ABF4B"/><path d="M9.211.196L5.69 5.6 2.166.196H0V11.62h2.001V3.46l3.622 5.354h.066l3.655-5.386v8.191h2.035V.196H9.21zm6.385 0v11.425h8.666V9.825H17.63V6.757h5.806V4.961H17.63v-2.97h6.55V.196h-8.584zm11.494 0v1.861h3.672v9.564h2.05V2.057h3.672V.197H27.09zm17.185 5.941c1.537 0 2.497-.848 2.497-2.073 0-1.338-.977-2.041-2.497-2.041H41.91v4.114h2.365zm-4.4-5.94h4.565c2.695 0 4.4 1.516 4.4 3.85 0 2.562-2.085 3.894-4.632 3.894H41.91v3.68h-2.035V.196zm21.748 5.712c0-2.22-1.637-4.064-3.935-4.064-2.299 0-3.904 1.81-3.904 4.064 0 2.219 1.637 4.055 3.937 4.055s3.902-1.812 3.902-4.055zm-9.973 0C51.65 2.693 54.164 0 57.72 0c3.558 0 6.037 2.66 6.037 5.909 0 3.213-2.514 5.907-6.07 5.907-3.554 0-6.037-2.661-6.037-5.907zM67.461.196v11.425h2.035V2.007h5.374v9.614h2.035V.196h-9.444zm23.121 5.713c0-2.22-1.636-4.064-3.936-4.064s-3.9 1.81-3.9 4.064c0 2.219 1.636 4.055 3.936 4.055s3.902-1.812 3.902-4.055h-.002zm-9.969 0C80.611 2.693 83.123 0 86.68 0c3.557 0 6.035 2.66 6.035 5.909 0 3.213-2.513 5.907-6.07 5.907-3.556 0-6.034-2.661-6.034-5.907M99.862.114L94.768 11.62h2.084l3.92-9.108 3.92 9.108h2.149L101.747.114h-1.885zm13.288.082h-2.034v11.425h2.034V.196zm3.266 5.713c0-3.245 2.464-5.909 5.969-5.909 2.133 0 3.424.735 4.53 1.785l-1.305 1.484c-.925-.848-1.918-1.42-3.241-1.42-2.216 0-3.814 1.795-3.814 4.064 0 2.236 1.603 4.056 3.814 4.056 1.421 0 2.331-.572 3.316-1.486l1.307 1.298c-1.199 1.251-2.522 2.034-4.69 2.034-3.374 0-5.886-2.595-5.886-5.906z" fill="#435565"/><path d="M42.064 6.139h-3.573v1.807h3.573V6.14zM14.667 19.442H15c.2.005.396-.052.56-.162a1.3 1.3 0 00.412-.501l.306-.583c.094-.202.244-.374.433-.496.179-.094.38-.14.582-.135a1.823 1.823 0 01.41.044l-.068.46-.077-.014h-.074a.758.758 0 00-.088 0 1.11 1.11 0 00-.188.015.476.476 0 00-.165.061.657.657 0 00-.151.133c-.057.07-.105.146-.143.227l-.278.534a1.28 1.28 0 01-.634.605.804.804 0 01.307.163c.107.093.203.199.285.314l1.39 1.837h-.738l-1.136-1.519a2.835 2.835 0 00-.197-.241.797.797 0 00-.184-.15.65.65 0 00-.208-.078 1.58 1.58 0 00-.268-.02h-.415v2.008h-.632v-4.376h.627v1.874zm6.443 2.608a2.656 2.656 0 01-.908-.148 1.96 1.96 0 01-.708-.442 1.986 1.986 0 01-.46-.72 2.757 2.757 0 01-.165-.973c-.005-.332.05-.662.166-.974.1-.27.258-.516.462-.723.201-.197.442-.35.709-.446.288-.108.593-.163.902-.163.31-.003.617.048.908.151a1.905 1.905 0 011.16 1.157c.114.312.17.642.165.973.005.335-.052.668-.166.983-.095.271-.25.519-.452.726a1.92 1.92 0 01-.703.447 2.611 2.611 0 01-.91.153zm0-.486c.235.005.468-.038.684-.128.193-.081.364-.206.498-.365.137-.169.238-.362.298-.57.137-.486.137-1 0-1.487a1.597 1.597 0 00-.302-.57 1.336 1.336 0 00-.497-.363 1.667 1.667 0 00-.68-.13 1.734 1.734 0 00-.698.13c-.194.08-.364.205-.498.364a1.563 1.563 0 00-.296.569c-.13.488-.13 1 0 1.488.057.207.158.401.296.569.134.159.305.284.498.365.221.09.459.132.698.125v.003zm3.954-3.996h.776l1.565 3.7 1.592-3.7h.748v4.38h-.577v-3.453l-1.526 3.447h-.509l-1.492-3.434v3.434h-.572l-.005-4.374zm9.561.497h-2.361v3.876h-.627v-4.373h3.614v4.38h-.626v-3.883zm5.763-.018H38.85l-.213 1.595c-.043.361-.12.718-.23 1.066-.08.26-.203.504-.366.723a1.369 1.369 0 01-.524.415 1.763 1.763 0 01-.705.132h-.142v-.497h.088c.156.003.311-.03.453-.097a.947.947 0 00.36-.337c.125-.202.22-.42.28-.65.091-.335.158-.676.2-1.021l.244-1.814h2.723v4.38h-.627l-.003-3.895zm5.662-.479v.497h-2.518v1.37h2.38v.504h-2.38v1.505h2.653l-.103.497h-3.175v-4.373h3.144zm2.34 1.874h.332c.2.005.397-.052.562-.162.178-.131.319-.303.411-.501l.307-.583c.093-.202.242-.374.431-.496.179-.094.38-.14.582-.135a1.832 1.832 0 01.401.044l-.067.46-.075-.014h-.075a.758.758 0 00-.088 0c-.062 0-.125.005-.187.015a.473.473 0 00-.166.061.646.646 0 00-.149.133.992.992 0 00-.143.227l-.278.534c-.13.27-.351.488-.627.615a.818.818 0 01.307.162c.107.094.203.2.285.315l1.388 1.837H50.8l-1.136-1.519a3.22 3.22 0 00-.197-.242.8.8 0 00-.185-.149.668.668 0 00-.199-.09 1.609 1.609 0 00-.27-.02H48.4v2.008h-.626v-4.374h.626l-.009 1.874zm8.356 1.06a1.879 1.879 0 01-.182.616 1.568 1.568 0 01-.388.487 1.74 1.74 0 01-.596.324 2.583 2.583 0 01-.814.117 2.517 2.517 0 01-.904-.152 1.808 1.808 0 01-.681-.448 2.01 2.01 0 01-.431-.719 2.844 2.844 0 01-.154-.973 2.723 2.723 0 01.166-.974 1.956 1.956 0 011.143-1.17c.274-.107.567-.162.863-.162.263-.005.525.03.776.106a1.507 1.507 0 01.922.746c.096.185.168.38.214.582l-.612.091a2.427 2.427 0 00-.166-.434 1.107 1.107 0 00-.249-.325 1.06 1.06 0 00-.368-.204 1.677 1.677 0 00-.52-.072 1.507 1.507 0 00-.65.133 1.351 1.351 0 00-.476.367 1.58 1.58 0 00-.292.57c-.069.24-.102.488-.1.738-.002.25.032.501.103.743.06.206.16.4.295.57.128.155.292.28.478.364.204.089.425.133.648.128.192.004.383-.021.566-.076a1.06 1.06 0 00.384-.214c.104-.094.186-.208.243-.334.06-.14.106-.286.136-.435l.646.01zm3.914.942c.302-.325.518-.718.63-1.144.175-.59.294-1.194.356-1.805l.103-.919h2.708v3.876h.476v1.556h-.586v-1.06h-3.525v1.06h-.584v-1.556l.422-.008zm1.565-2.729a9.38 9.38 0 01-.307 1.623c-.105.4-.29.776-.544 1.106h2.456v-3.397H62.3l-.075.668zm7.457-.668h-1.53l-.216 1.595c-.043.361-.12.718-.23 1.066-.08.26-.203.504-.366.723a1.367 1.367 0 01-.524.415 1.762 1.762 0 01-.704.132h-.143v-.497h.088c.156.003.311-.03.453-.097a.948.948 0 00.36-.337c.126-.202.22-.42.28-.65.091-.335.158-.676.2-1.021l.244-1.814h2.715v4.38h-.627v-3.895zm5.941 3.893h-.627v-1.812h-.775a1.136 1.136 0 00-.62.15 1.197 1.197 0 00-.394.462l-.633 1.2h-.707l.748-1.37c.066-.129.148-.248.246-.356A.916.916 0 0173.2 20a1.46 1.46 0 01-.742-.417 1.094 1.094 0 01-.225-.728c0-.166.028-.33.085-.487.06-.16.16-.3.293-.41.163-.132.353-.227.557-.28a3.09 3.09 0 01.882-.106h1.572v4.369zm-.627-2.289v-1.604h-.951a3.187 3.187 0 00-.566.042.884.884 0 00-.356.141.533.533 0 00-.191.248c-.04.116-.06.237-.058.359a.71.71 0 00.265.615c.247.152.538.222.83.2h1.028zm6.37-.021a.937.937 0 01-.373-.225 1.5 1.5 0 01-.3-.453l-.224-.487a.837.837 0 00-.23-.324.505.505 0 00-.323-.099h-.21l-.103.013-.081-.459c.044 0 .093-.01.142-.02.05-.01.087-.012.136-.017.05-.005.097 0 .136 0 .111-.002.222.007.332.026a.767.767 0 01.262.094.84.84 0 01.217.196c.076.102.14.21.194.325l.259.54c.088.208.231.39.414.525.182.121.399.183.619.176h.166v-1.873h.627v1.887h.19a.975.975 0 00.602-.178c.178-.141.322-.32.42-.523l.278-.54a1.46 1.46 0 01.22-.324.916.916 0 01.53-.296c.11-.019.22-.028.331-.027h.118c.038 0 .076.01.113.018.038.008.077.015.116.02l-.068.458-.081-.013h-.191a.596.596 0 00-.365.1.867.867 0 00-.242.324l-.243.486a1.35 1.35 0 01-.654.678.821.821 0 01.32.174c.122.111.233.233.332.363l1.326 1.767h-.74l-1.12-1.5a2.311 2.311 0 00-.226-.263.829.829 0 00-.214-.153.762.762 0 00-.248-.073 2.298 2.298 0 00-.32-.02h-.176v2.01h-.62v-2.01h-.198a2.235 2.235 0 00-.316.019.76.76 0 00-.456.225 2.51 2.51 0 00-.22.263l-1.104 1.5h-.74l1.326-1.766a2.23 2.23 0 01.331-.373.866.866 0 01.329-.17zm9.132 2.31v-3.445l-2.395 3.454h-.613v-4.38h.613v3.46l2.388-3.46h.612v4.38l-.605-.008zm2.082-3.869v-.503h3.837v.503h-1.605v3.87h-.625v-3.87H92.58zm5.098 0v-.503h3.837v.503H99.91v3.87h-.627v-3.87h-1.605zm8.448 3.869h-.625v-1.812h-.776a1.124 1.124 0 00-.618.15 1.19 1.19 0 00-.397.462l-.632 1.2h-.708l.748-1.37c.067-.128.149-.247.246-.356a.923.923 0 01.331-.214 1.462 1.462 0 01-.741-.417 1.107 1.107 0 01-.224-.728c0-.166.029-.33.085-.487.059-.16.159-.3.292-.41a1.5 1.5 0 01.558-.28c.287-.078.584-.113.881-.106h1.58v4.369zm-.625-2.289v-1.604h-.953a3.167 3.167 0 00-.564.042.888.888 0 00-.358.141.552.552 0 00-.191.248.996.996 0 00-.058.359.717.717 0 00.265.615c.247.152.538.222.829.2h1.03z" fill="#435565"/></g><defs><clipPath id="clip0"><path fill="#fff" d="M0 0h127v23H0z"/></clipPath></defs></svg>