<svg width="74" height="41" fill="none" xmlns="http://www.w3.org/2000/svg"><path d="M15.442 38.803H13.9v-1.46h-.619v3.28h.62V39.09h1.54v1.533h.623v-3.28h-.622v1.46zm3.204-1.46h-.62v3.28h.62v-3.28zm3.934 1.829h.607v1.065a1.017 1.017 0 01-.28.146 1.138 1.138 0 01-.371.056 1.45 1.45 0 01-.53-.1 1.255 1.255 0 01-.428-.284 1.365 1.365 0 01-.289-.45 1.582 1.582 0 01-.106-.594c0-.22.033-.422.098-.594a1.2 1.2 0 01.683-.732c.156-.067.333-.1.522-.1.206 0 .392.059.551.173.162.117.31.304.442.556l.02.038.304-.202-.02-.032a2.045 2.045 0 00-.242-.316 1.609 1.609 0 00-.327-.27 1.6 1.6 0 00-.89-.258c-.18.001-.354.022-.516.066a1.84 1.84 0 00-.82.46 1.601 1.601 0 00-.276.353 1.59 1.59 0 00-.174.413 1.65 1.65 0 00.003.898c.044.144.106.278.182.404.08.123.174.24.29.343.111.102.24.193.377.266a2.115 2.115 0 00.976.231 4.3 4.3 0 00.456-.02c.136-.012.26-.033.371-.062.112-.026.218-.058.316-.1.094-.037.188-.081.288-.134l.021-.012v-1.472H22.59v.264h-.009zm5.297-.369h-1.542v-1.46h-.619v3.28h.62V39.09h1.54v1.533h.62v-3.28h-.62v1.46zm3.203-1.46h-.618v3.28h2.243v-.284H31.08v-2.996zm3.847 0h-.619v3.28h.62v-3.28zm3.935 1.829h.61v1.065a1.02 1.02 0 01-.28.146 1.138 1.138 0 01-.371.056c-.189 0-.369-.035-.53-.1a1.255 1.255 0 01-.428-.284 1.365 1.365 0 01-.289-.45 1.58 1.58 0 01-.106-.594c0-.22.032-.419.097-.594a1.212 1.212 0 01.68-.732c.157-.067.334-.1.523-.1.206 0 .392.059.551.173.162.117.31.304.442.556l.02.038.301-.202-.02-.032a2.207 2.207 0 00-.242-.316 1.617 1.617 0 00-.327-.27 1.6 1.6 0 00-.89-.258c-.18.001-.354.022-.516.066a1.838 1.838 0 00-.82.46 1.713 1.713 0 00-.516 1.217c0 .152.021.3.066.447.044.144.103.278.182.404a1.823 1.823 0 001.123.778c.162.041.336.062.52.062.17 0 .32-.006.456-.02.135-.012.26-.033.371-.062.112-.026.215-.058.316-.1.094-.037.191-.084.289-.134l.02-.012v-1.472h-1.229v.264h-.003zm5.296-.369h-1.541v-1.46h-.619v3.28h.619V39.09h1.541v1.533h.62v-3.28h-.62v1.46zm2.008-1.173h1.167v2.993h.622V37.63h1.167v-.286h-2.956v.286zm8.878 1.173h-1.542v-1.46h-.619v3.28h.62V39.09h1.54v1.533h.62v-3.28h-.62v1.46zm5.364.161c0 .216-.024.421-.074.606-.05.184-.12.342-.215.474a.986.986 0 01-.345.307.98.98 0 01-.469.111.999.999 0 01-.477-.111 1.014 1.014 0 01-.345-.307 1.46 1.46 0 01-.21-.474 2.458 2.458 0 01-.07-.606c0-.214.024-.413.07-.594.048-.179.119-.334.21-.46a.946.946 0 01.342-.295c.136-.07.298-.106.477-.106.177 0 .334.035.472.106.136.07.25.17.342.295.094.13.165.284.215.46.05.181.077.38.077.594zm.471-.858a1.567 1.567 0 00-.283-.342 1.807 1.807 0 00-.801-.433 2.05 2.05 0 00-.979 0 1.844 1.844 0 00-.802.433 1.656 1.656 0 00-.528 1.197c0 .158.021.313.066.462.044.147.103.287.18.413.076.129.173.249.282.351.11.105.233.196.366.272a1.889 1.889 0 00.925.237 1.896 1.896 0 00.926-.237c.133-.076.256-.167.365-.272a1.705 1.705 0 00.463-.767 1.7 1.7 0 00.065-.46c0-.157-.02-.31-.065-.45a1.835 1.835 0 00-.18-.404zm4.557 1.355c0 .132-.024.258-.068.372a.935.935 0 01-.191.304.91.91 0 01-.301.205c-.118.05-.25.076-.4.076-.148 0-.28-.026-.399-.076a.909.909 0 01-.498-.509 1.029 1.029 0 01-.068-.372v-2.115h-.622v2.104c0 .17.03.333.092.482a1.166 1.166 0 00.716.67c.174.065.377.097.604.097.254 0 .475-.032.654-.096.183-.065.337-.155.454-.27a1.02 1.02 0 00.26-.395c.056-.149.082-.31.082-.477v-2.115h-.318v2.115h.003zm4.003-.307a1.993 1.993 0 00-.298-.217 10.436 10.436 0 00-.336-.187l-.333-.175a2.301 2.301 0 01-.286-.179 1.024 1.024 0 01-.197-.19.335.335 0 01-.071-.208c0-.053.012-.108.035-.16a.432.432 0 01.103-.141.572.572 0 01.177-.103.918.918 0 01.548.003.7.7 0 01.23.129.874.874 0 01.174.199c.048.079.089.167.118.26l.015.041.35-.158-.011-.032a1.107 1.107 0 00-.398-.57c-.183-.132-.433-.2-.746-.2-.174 0-.33.024-.462.068a1.002 1.002 0 00-.345.187.794.794 0 00-.215.287.91.91 0 00-.074.357c0 .129.026.243.082.342.053.097.124.188.21.267a1.7 1.7 0 00.288.21c.107.062.216.12.328.179l.059.029c.088.047.18.094.265.138.103.055.197.114.277.175a.88.88 0 01.192.202c.047.07.07.15.07.24 0 .073-.017.14-.05.196a.492.492 0 01-.135.146.61.61 0 01-.198.091.924.924 0 01-.513-.012.791.791 0 01-.241-.125.97.97 0 01-.325-.471l-.011-.041-.366.149.012.035c.044.12.1.228.168.328a1.03 1.03 0 00.583.398c.127.035.269.052.425.052.194 0 .368-.026.516-.073.147-.05.274-.12.374-.205.1-.087.177-.19.23-.307a.92.92 0 00.077-.372.645.645 0 00-.086-.325 1.102 1.102 0 00-.21-.257zm4.383-1.524v-.288h-2.32v3.281h2.32v-.284H72.12v-1.36h1.138v-.285H72.12V37.63h1.7zM61.861 19.933c-.006-2.187 1.648-3.913 3.823-4.039 1.86-.108 3.61 1.091 4.126 2.868.766 2.634-1.288 5.15-3.837 5.18-2.243.023-4.106-1.794-4.112-4.01zm11.922 7.611H68.5c3.976-1.25 6.236-5.232 5.284-9.651-.616-2.85-2.894-5.057-5.744-5.754-1.035-.251-.87-.14-1.963-.266l3.23-5.218h-4.562l-5.394 8.27a9.45 9.45 0 00-1.539 5.057v.035c-.035 3.24 2.108 6.421 5.441 7.527H51.595a8.049 8.049 0 003.316-3.953c.743-1.908.781-3.887.08-5.815-.87-2.388-2.509-4.098-4.94-5.078l4.247-6.046H40.433v4.141h5.768c-1.347 1.929-2.617 3.755-3.982 5.71 1.503 0 2.818-.003 4.133.003.539.003 1.093-.05 1.615.046 1.966.363 3.428 2.298 3.29 4.285-.136 1.94-1.872 3.664-3.803 3.775-2.01.114-3.944-1.34-4.31-3.272-.079-.424-.067-.866-.097-1.3h-4.102c-.378 2.919 1.24 5.895 3.808 7.505h-6.788V6.756h-6.791v4.018h2.34v16.77H28.19c-.448-1.107-.898-2.213-1.344-3.322-.981-2.432-1.954-4.87-2.935-7.302a4055.205 4055.205 0 00-3.316-8.194c-.51-1.253-1.035-2.5-1.542-3.752-.622-1.542-1.226-3.093-1.85-4.636-.057-.131-.222-.225-.337-.339-.118.123-.283.225-.345.372-.327.778-.621 1.565-.937 2.35-.536 1.34-1.073 2.68-1.615 4.018-.383.945-.77 1.887-1.152 2.833l-4.964 11.85.79.324 4.754-11.35a.09.09 0 01.012.024c.495 1.256.982 2.517 1.48 3.773.845 2.136 1.694 4.27 2.543 6.406.554 1.396 1.103 2.795 1.654 4.19.577 1.46 1.158 2.921 1.739 4.382.54 1.363 1.078 2.73 1.618 4.094l.318.802h8.08c-.443-1.086-.888-2.172-1.33-3.26l-.973-2.403h45.27v-.849h-.026v-.012h.002z" fill="#2F1523"/><path d="M18.15 28.434l-.118-.313-.206-.577H5.338l-5.114 12.5-.224.55h10.478v-.849l-3.106-.003 4.253-11.314 6.525.006z" fill="#2F1523"/></svg>