<svg width="107" height="21" fill="none" xmlns="http://www.w3.org/2000/svg"><g clip-path="url(#clip0)"><path d="M43.845 10.39c0 4.775-3.69 6.262-8.367 6.262H30.76V4.15h4.718c4.682 0 8.367 1.482 8.367 6.24zm-9.703-3.756v7.538h1.403c2.488 0 4.733-.467 4.733-3.778 0-3.293-2.25-3.76-4.733-3.76h-1.403zm10.654 3.774c0-3.9 3.016-6.47 7.42-6.47 4.379 0 7.421 2.57 7.421 6.47 0 3.899-3.037 6.468-7.42 6.468-4.405 0-7.421-2.57-7.421-6.469zm11.264 0c0-2.655-1.757-4.034-3.849-4.034-2.091 0-3.849 1.379-3.849 4.034 0 2.654 1.758 4.034 3.85 4.034 2.091.004 3.848-1.375 3.848-4.034zm11.698 6.469c-4.461 0-7.164-2.485-7.164-6.483 0-3.948 2.8-6.45 7.262-6.45 3.592 0 6.115 2.034 6.608 4.878H71.15c-.375-1.707-1.814-2.448-3.413-2.448-2.014 0-3.572 1.464-3.572 4.02 0 2.637 1.558 4.052 3.613 4.052 1.46 0 3.079-.552 3.474-2.448h3.315c-.514 2.893-3.196 4.879-6.809 4.879zm7.656-3.293h3.67v3.068h-3.67v-3.069zm8.166-1.968c0 1.828.494 2.844 2.843 2.844 2.369 0 2.78-1.173 2.78-3.02V4.146h3.371v7.053c0 3.845-1.695 5.674-6.156 5.674-4.281 0-6.213-1.447-6.213-5.57V4.145h3.376v7.471zm18.014-7.466L107 16.652h-3.669l-.869-2.224h-5.524l-.848 2.224h-3.592L97.883 4.15h3.711zm-.036 7.88l-1.835-4.763-1.855 4.762h3.69z" fill="#0957C3"/><path d="M3.086 3.08L.283 7.324 20.84 17.7l2.803-4.244L3.086 3.08z" fill="#FE5000"/><path d="M14.768.017H9.161v20.75h5.607V.017z" fill="#0957C3"/><path d="M.279 13.453l2.803 4.245L23.64 7.323l-2.803-4.244L.279 13.453z" fill="#47D7AC"/></g><defs><clipPath id="clip0"><path fill="#fff" d="M0 0h107v21H0z"/></clipPath></defs></svg>