<svg width="101" height="11" fill="none" xmlns="http://www.w3.org/2000/svg"><path d="M4.378 10.963C2.062 10.597.482 9.03.083 6.705c-.142-.83-.097-2.186.098-2.94C.658 1.925 1.912.648 3.728.155c.706-.191 2.107-.209 2.86-.035C8.24.5 9.32 1.572 9.736 3.247c.073.297.134.618.134.712v.172l-1.532-.018-1.532-.017-.114-.342c-.16-.484-.406-.777-.82-.984-.318-.158-.415-.175-.83-.148-.568.038-.916.204-1.242.59-.416.495-.625 1.253-.625 2.272 0 1.13.228 1.86.741 2.38.376.38.67.497 1.25.494.745-.002 1.257-.426 1.52-1.258l.145-.459h3.104v.22c0 .35-.242 1.23-.457 1.665-.544 1.098-1.558 1.923-2.804 2.281-.47.136-1.838.228-2.296.156zm62.87-.03a4.92 4.92 0 01-3.873-3.012c-.338-.81-.438-1.389-.43-2.503.007-1.146.123-1.703.537-2.578.65-1.377 1.744-2.287 3.226-2.687.701-.189 1.987-.205 2.73-.035.704.162 1.726.675 2.194 1.102 1.104 1.009 1.657 2.277 1.721 3.952.049 1.27-.122 2.162-.6 3.119-.969 1.946-3.152 2.993-5.506 2.642zm1.67-2.73c.862-.41 1.29-1.34 1.278-2.785-.009-1.047-.276-1.833-.782-2.298-.386-.354-.639-.464-1.153-.497-.402-.027-.513-.007-.862.152-.917.418-1.357 1.423-1.29 2.94.06 1.364.54 2.24 1.395 2.55.4.146 1.038.118 1.414-.061zM10.26 10.678c0-.034.353-1.039.784-2.231C12.558 4.263 13.7 1.116 13.857.69l.159-.43 1.559-.017 1.559-.018.232.646c2.002 5.576 3.488 9.753 3.488 9.804 0 .04-.622.064-1.622.064H17.61l-.202-.678a85.43 85.43 0 00-.228-.761c-.022-.066-.39-.08-1.67-.066l-1.64.017-.23.744-.228.743h-1.576c-.952 0-1.576-.024-1.576-.062zm6.216-3.858c-.176-.693-.862-3.02-.891-3.02-.058-.001-.991 3.085-.953 3.149.02.031.45.048.958.036.914-.02.922-.021.886-.165zm5.289-1.335l.002-5.256h3.182v3.9c0 3.076.017 3.902.08 3.903l2.308-.002 2.226-.003v2.714h-7.8l.002-5.256zm9.098 4.002V8.232l2.395-2.63 2.394-2.63-2.267-.018-2.266-.017.007-1.354.007-1.355h8.764V2.58l-2.4 2.706c-1.322 1.489-2.393 2.716-2.382 2.727.011.012 1.143.027 2.515.035l2.495.014.017 1.34.018 1.338h-9.297V9.486zm10.833 1.21c-.024-.024-.044-2.39-.044-5.256V.228h8.58V2.94h-5.4l.019.644.019.645 2.455.017 2.454.018-.017 1.238-.018 1.24-2.453.016-2.454.018V8.03h5.522l.036.149c.02.082.028.684.018 1.339l-.019 1.19-4.327.017c-2.38.01-4.347-.003-4.37-.028zm10.55-5.207V.23l2.877.002c3.066.002 3.53.038 4.266.335 1.841.74 2.84 2.68 2.718 5.282-.045.984-.187 1.606-.54 2.37-.531 1.154-1.529 1.951-2.919 2.336-.49.135-.69.145-3.46.17l-2.942.026V5.49zm5.56 2.308c.471-.245.809-.675.98-1.245.17-.568.17-1.668-.001-2.126-.406-1.082-1.1-1.487-2.551-1.487h-.803v5.1l.996-.022c.96-.022 1.01-.03 1.38-.222zm16.582 2.899c-.024-.024-.043-2.39-.043-5.256V.228h3.287l1.265 2.359a505.743 505.743 0 011.508 2.826c.134.257.244.438.246.402.001-.037 0-1.309-.002-2.827l-.004-2.76h3.059v10.514l-1.57-.018-1.571-.017-1.002-1.818c-.55-1-1.255-2.275-1.565-2.833l-.564-1.015-.017 2.85-.017 2.849h-1.483c-.816 0-1.503-.02-1.527-.044zm11.266-5.212V.228h3.185V10.74h-3.185V5.484zm4.03 5.19c0-.035.364-1.07.81-2.297.446-1.227 1.29-3.556 1.876-5.174L93.435.261l1.562-.017c1.442-.017 1.565-.01 1.606.099.25.652 3.675 10.283 3.675 10.331 0 .042-.598.066-1.621.066h-1.621l-.17-.579-.22-.743-.051-.166h-3.3l-.225.744-.225.744h-1.58c-1 0-1.582-.024-1.582-.066zm5.845-5.165a70.66 70.66 0 01-.435-1.562c-.017-.082-.05-.149-.074-.149-.038 0-.986 3.009-.983 3.122.001.06 1.768.1 1.842.043.03-.023-.128-.677-.35-1.454z" fill="#000"/></svg>