<svg width="69" height="69" viewBox="0 0 69 69" fill="none" xmlns="http://www.w3.org/2000/svg">
<path d="M63.4355 22.2581H11.3516L53.1968 5.56452C53.7532 6.23226 54.6436 6.67742 55.6452 6.67742C57.5371 6.67742 58.9839 5.23065 58.9839 3.33871C58.9839 1.44677 57.5371 0 55.6452 0C53.7532 0 52.3065 1.44677 52.3065 3.33871C52.3065 3.45 52.3065 3.45 52.3065 3.56129L5.23065 22.2581C2.3371 22.3694 0 24.8177 0 27.8226V63.4355C0 66.5516 2.44839 69 5.56452 69H63.4355C66.5516 69 69 66.5516 69 63.4355V27.8226C69 24.7065 66.5516 22.2581 63.4355 22.2581ZM55.6452 2.22581C56.3129 2.22581 56.7581 2.67097 56.7581 3.33871C56.7581 4.00645 56.3129 4.45161 55.6452 4.45161C54.9774 4.45161 54.5323 4.00645 54.5323 3.33871C54.5323 2.67097 54.9774 2.22581 55.6452 2.22581ZM66.7742 63.4355C66.7742 65.3274 65.3274 66.7742 63.4355 66.7742H5.56452C3.67258 66.7742 2.22581 65.3274 2.22581 63.4355V27.8226C2.22581 25.9306 3.67258 24.4839 5.56452 24.4839H63.4355C65.3274 24.4839 66.7742 25.9306 66.7742 27.8226V63.4355Z" fill="#25404F"/>
<path d="M6.67749 37.8386H62.3227V27.8225H6.67749V37.8386ZM8.9033 30.0483H60.0968V35.6128H55.6452V33.387H53.4194V35.6128H48.9678V32.2741H46.742V35.6128H42.2904V33.387H40.0646V35.6128H35.613V32.2741H33.3872V35.6128H28.9356V33.387H26.7097V35.6128H22.2581V32.2741H20.0323V35.6128H15.5807V33.387H13.3549V35.6128H8.9033V30.0483Z" fill="#25404F"/>
<path d="M25.5967 45.6291C23.5935 42.9581 20.3661 41.1775 16.6935 41.1775C13.0209 41.1775 9.79349 42.9581 7.79026 45.6291C6.45478 47.521 5.56445 49.7468 5.56445 52.3065C5.56445 54.8662 6.45478 57.092 7.79026 58.9839C9.79349 61.6549 13.0209 63.4356 16.6935 63.4356C20.3661 63.4356 23.5935 61.6549 25.5967 58.9839C26.9322 57.092 27.8225 54.8662 27.8225 52.3065C27.8225 49.7468 26.9322 47.521 25.5967 45.6291ZM9.01445 56.7581C8.458 55.7565 8.01284 54.6436 7.90155 53.4194H25.5967C25.4854 54.6436 25.0403 55.7565 24.4838 56.7581H9.01445ZM7.90155 51.1936C8.01284 49.9694 8.458 48.8565 9.01445 47.8549H24.3725C24.929 48.8565 25.3741 49.9694 25.4854 51.1936H7.90155ZM16.6935 43.4033C18.9193 43.4033 21.0338 44.2936 22.5919 45.6291H10.7951C12.3532 44.2936 14.4677 43.4033 16.6935 43.4033ZM16.6935 61.2097C14.4677 61.2097 12.3532 60.3194 10.7951 58.9839H22.4806C21.0338 60.3194 18.9193 61.2097 16.6935 61.2097Z" fill="#25404F"/>
<path d="M55.6452 50.0806C51.9726 50.0806 48.9678 53.0854 48.9678 56.758C48.9678 60.4306 51.9726 63.4354 55.6452 63.4354C59.3178 63.4354 62.3226 60.4306 62.3226 56.758C62.3226 53.0854 59.3178 50.0806 55.6452 50.0806ZM55.6452 61.2096C53.1968 61.2096 51.1936 59.2064 51.1936 56.758C51.1936 54.3096 53.1968 52.3064 55.6452 52.3064C58.0936 52.3064 60.0968 54.3096 60.0968 56.758C60.0968 59.2064 58.0936 61.2096 55.6452 61.2096Z" fill="#E63739"/>
<path d="M56.758 53.4194H54.5322V55.6452H56.758V53.4194Z" fill="#25404F"/>
<path d="M56.758 44.5161H54.5322V46.7419H56.758V44.5161Z" fill="#25404F"/>
<path d="M52.3064 44.5161H50.0806V46.7419H52.3064V44.5161Z" fill="#25404F"/>
<path d="M61.2097 44.5161H58.9839V46.7419H61.2097V44.5161Z" fill="#25404F"/>
</svg>
