<svg width="179" height="38" fill="none" xmlns="http://www.w3.org/2000/svg"><path d="M1.602.436V25.29h6.602V10.824h.194l5.534 14.272h3.98l5.535-14.175h.194v14.37h6.602V.435h-8.398l-5.777 14.078h-.291L10 .436H1.602zM39.897 25.29l1.432-4.757h8.204l1.432 4.757h7.281L50.042.436H40.82L32.615 25.29h7.282zm2.961-9.805l2.476-8.204h.194l2.476 8.204h-5.146zM56.79 5.873h7.476V25.29h6.65V5.873h7.476V.436H56.79v5.437zM84.217 25.29l1.432-4.757h8.204l1.432 4.757h7.282L94.363.436H85.14L76.936 25.29h7.281zm2.961-9.805l2.476-8.204h.194l2.476 8.204h-5.146zm27.346 9.805c7.572 0 12.378-4.66 12.378-12.427 0-7.767-4.806-12.427-12.475-12.427h-9.466V25.29h9.563zm-2.816-5.728V6.164h2.379c3.883 0 6.019 1.505 6.019 6.7 0 5.193-2.136 6.698-5.825 6.698h-2.573zm42.394-6.699c0-8.3-5.34-12.767-12.087-12.767-6.797 0-12.088 4.466-12.088 12.767 0 8.253 5.291 12.767 12.088 12.767 6.747 0 12.087-4.466 12.087-12.767zm-6.942 0c0 4.466-1.796 6.893-5.145 6.893-3.35 0-5.146-2.427-5.146-6.893 0-4.466 1.796-6.893 5.146-6.893 3.349 0 5.145 2.427 5.145 6.893zm10.064 12.427h6.747v-8.204h2.331l4.369 8.204h7.33l-5.049-9.272c2.646-1.274 4.223-3.689 4.223-7.135 0-5.292-3.701-8.447-9.223-8.447h-10.728V25.29zm6.747-13.446v-6.02h2.379c2.367 0 3.787.923 3.787 3.059 0 2.123-1.42 2.96-3.787 2.96h-2.379z" fill="#E63739"/><path d="M114.64 32.663c0-2.076-1.335-3.192-3.022-3.192-1.699 0-3.022 1.116-3.022 3.192 0 2.063 1.323 3.191 3.022 3.191 1.687 0 3.022-1.116 3.022-3.191zm-1.736 0c0 1.116-.449 1.723-1.286 1.723s-1.286-.607-1.286-1.724c0-1.116.449-1.723 1.286-1.723s1.286.607 1.286 1.724zm10.478-3.107v4.029c0 .461-.377.776-1.008.776-.619 0-.995-.315-.995-.776v-4.03h-1.687v4.103c0 1.42 1.044 2.184 2.682 2.184 1.626 0 2.682-.764 2.682-2.184v-4.102h-1.674zm6.578 1.359h1.869v4.854h1.663v-4.854h1.868v-1.36h-5.4v1.36zm12.698 4.854c1.893 0 3.095-1.165 3.095-3.106 0-1.942-1.202-3.107-3.119-3.107h-2.367v6.213h2.391zm-.704-1.432v-3.35h.595c.971 0 1.505.377 1.505 1.676 0 1.298-.534 1.674-1.457 1.674h-.643zm14.87-1.675c0-2.075-1.335-3.191-3.022-3.191-1.699 0-3.021 1.116-3.021 3.192 0 2.063 1.322 3.191 3.021 3.191 1.687 0 3.022-1.116 3.022-3.191zm-1.735 0c0 1.117-.449 1.724-1.287 1.724-.837 0-1.286-.607-1.286-1.724 0-1.116.449-1.723 1.286-1.723.838 0 1.287.607 1.287 1.724zm12.807 0c0-2.075-1.335-3.191-3.022-3.191-1.699 0-3.022 1.116-3.022 3.192 0 2.063 1.323 3.191 3.022 3.191 1.687 0 3.022-1.116 3.022-3.191zm-1.735 0c0 1.117-.449 1.724-1.287 1.724-.837 0-1.286-.607-1.286-1.724 0-1.116.449-1.723 1.286-1.723.838 0 1.287.607 1.287 1.724zm6.787 3.107h1.687v-2.05h.583l1.092 2.05h1.833l-1.263-2.318c.662-.318 1.056-.922 1.056-1.784 0-1.323-.925-2.111-2.306-2.111h-2.682v6.213zm1.687-3.361v-1.505h.595c.592 0 .947.23.947.764 0 .531-.355.74-.947.74h-.595z" fill="#25404F"/><path stroke="#E63739" stroke-width="6.408" d="M103.706 32.204h-102"/></svg>